<?xml version="1.0" encoding="UTF-8"?><svg id="Layer_1" xmlns="http://www.w3.org/2000/svg" viewBox="0 0 124.54 33.14"><defs><style>.cls-1{fill:#818181;}.cls-2{fill:none;}.cls-3{fill:#666;font-family:MicrosoftJhengHeiBold, 'Microsoft JhengHei';font-size:13px;}.cls-4{letter-spacing:-.01em;}</style></defs><path class="cls-1" d="M8.6,19.94q-.1,0-.1-.1"/><path class="cls-1" d="M30.3,32.14c.2,.1,.3,.1,.3,.3,0,.1-.1,.2-.1,.3l-.6,.2v-.2l-.2-.2-.4,.2,.1,.2h-1c.2-.2,.4-.1,.7-.1l-.3-.3c-.1,0-.2,.1-.2,.1-.1,0-.2,0-.3-.1l-.1,.3c-.1-.1-.2-.2-.4-.1v.3h-2.2c-.1-.1-.1-.2-.2-.2h-.3q0,.2,.2,.2-.2,.1-.6,.1h-1.3l-.1-.4c-.1,.1-.2,.3-.1,.4h-1.7c-.2,0-.3,0-.5-.1s-.5-.1-.7-.2l-.1,.1c.1,0,.3,.1,.4,.2h-7.6c-1.4,0-2.8-.1-4.2-.4-2.4-.4-4.6-1.5-6.3-3.2-.8-.7-1.4-1.6-1.8-2.5-.4-1.4-.7-2.6-.7-3.8V10.84c0-.4,.1-.7,.3-1.1,.1-.2,.1-.6,.1-.9H.1v-.1c.1-1.6,.8-3,1.8-4.3,.1,.2,.1,.4,0,.6-.1,0-.1,.1,0,.1s.2,0,.2-.1c.1-.2,.2-.4,.2-.6,0-.1,0-.2-.1-.3,1.3-1.4,2.8-2.4,4.4-3v.3c0,.1,.1,.1,.2,.2,.1,0,.2-.1,.2-.1v-.3c0-.1,.1-.2,.3-.2l.1,.4h.1c0-.1,0-.2,.1-.3,.1-.2,.3-.4,.6-.4,.2,0,.3-.1,.5-.1,0,.1,.1,.2,.1,.3s.1,.3-.2,.4c-.2,0-.1,.2-.1,.3,.1-.1,.2-.2,.3-.2,.1-.1,.2-.2,.3-.4,.1-.2,.2-.4,.3-.5,.7-.2,1.5-.3,2.2-.3h0c0,.1-.1,.2,.1,.2s.1-.1,.1-.2v-.1h4c.2,.2,0,.4,.3,.5V.14h2.2c.2,0,.4,0,.4,.2,.4-.1,.8-.2,1.1-.2h47c0,.1,.1,.1,.2,.2h.2c.1,.1,0,.3,.4,.2-.1-.1-.2-.1-.2-.2s.1-.1,.1-.3h1.4q.1,0,.2,.1c.2,0,.4-.1,.5-.1h.6c.2,0,.3,0,.5,.1,.1,.1,.3,.1,.4,.1v-.1l-.2-.1h.3l.1,.2,.2-.1v.2l-.3,.1,.4,.1c0,.3-.4,.5-.2,.8,.3,0,.2-.4,.6-.4l-.1-.2h.7v-.2c-.1-.1-.2-.1-.3,0-.1,.1-.2,.1-.4,0l.2-.5c.2-.1,.4,0,.5,.2l.1-.1,.1,.1h.1v.1c.1,.1,.1,.3,.1,.4v.4c.3,.2,.5,0,.7-.1l-.4-.4c.2-.2,.5-.1,.7-.1s.4-.1,.6-.1c.1,.2,.1,.4,.2,.6,0,.1,.1,.1,.2,.1,0-.1,0-.2,.1-.4l.3-.3,.2,.2c.1,0,.2-.1,.1-.3h.4c-.1,.1-.1,.3-.2,.4q0,.1-.1,.2t-.1,.1h-.1c-.2-.1-.2,0-.4,0l.1,.1-.2,.2-.2-.2v.2h-.1l-.2-.4-.3,.2c0,.2,0,.4-.1,.6q-.1-.1-.3,0h.3c-.1,.1-.2,.1-.1,.2,0,.1,.1,.1,.1,.2h-.4v-.2h-.1q-.1,.2-.6,.4l-.1-.2c-.1,.2-.3,.3-.5,.1h-.4q-.3-.1-.4,.1c-.2,0-.6,.1-.7-.1l-.5,.1c0-.2,.2-.3,.3-.4,.1,0,.2,.1,.3,0,.2-.1,.3-.1,.5-.1,0-.1,0-.2-.3-.2h-.5l.1,.2-.2,.1c-.1-.2-.2-.2-.4-.2-.1,0-.2,.1-.3,.1l.1,.4h-2.2c-.1,0-.2,0-.1-.1h.3q0-.1-.1-.2c-.1,0-.2,.1-.1,.1-.1-.1-.2-.1-.3,0-.3,.1-.7,.1-1,0h-.1c-.1,.1-.3,.1-.5,.1h-1.3l.3-.5v.4l.1-.2-.6-.2c0,.2-.1,.3-.1,.4q-.1,.2-.4,.2H21.8l-.1-.6c-.3,.2-.1,.4-.2,.5H13.1c0-.2,.1-.4,.1-.6,0-.1,0-.3,.1-.4q0-.2-.3-.3c-.2,0-.3,.2-.2,.4v1h-.4c-.7,0-1.5,0-2.2,.1-.3,0-.6,.1-.8,.2h-.2l-.4-.4c-.2,0-.1,.2-.3,.2,0,.1,.1,.2,.1,.3s-.1,.2-.3,.3c-.3,.1-.6,.2-.9,.4l-.3-.3c0,.5-.4,.6-.7,.7-.2-.2,.2-.4,0-.6-.4,0-.2,.2-.3,.3-.1,.2-.1,.4,0,.5l-.4,.3-.2-.1-.1,.1c0,.2-.1,.3-.3,.5-1.2,1-2.1,2.4-2.3,4v15c.1,3,2,5.1,5.5,6.4,.2,.1,.4,.2,.5,.2,1,.2,2.1,.4,3.2,.4h11.3c.1,.1,.1,.3,.2,.4s.2,.2,.4,.2c.2-.2-.1-.4-.1-.6h3.4l-.2,.3,.4-.1c.1,.2-.1,.5,.4,.4,0-.1,.1-.1,.1-.2,.2-.1,.3-.3,.5-.4h.1c0,.2-.1,.3,.2,.4l.2-.1v-.4c.4,0,.9,0,1.3,.1h.2c.2-.1,.4,0,.6,.1,.1,.1,.2,.1,.3,0,.2-.1,.4-.1,.6-.1l-.1,.1c0,.1,.1,.2,.1,.3s.1,.2,.2,.3l-.1,.2c0-.1-.1-.1-.1-.2-.1,0-.1-.1-.2-.1-.2,.1-.4,.2-.6,.4-.1,0-.1,.1,0,.2,.3,.1,.3,.2,0,.3,0-.1-.1-.2-.1-.3-.1-.1-.1-.2-.2-.2l.2-.1-.4-.3-.1,.4-.5-.3c-.1,.2-.1,.4-.2,.5,0,.1-.1,.1-.2,.2h.3c.1,0,.2,0,.2,.1,0,.2-.1,.3,.2,.4l-.3-.4c.1,0,.1,.1,.2,.1s.1,0,.1-.1c.1,0,0,0,0-.1h0ZM72,1.34l.2,.3v-.2c.1,.1,.2,.1,.3,0l-.2-.2c.1,.1,.2,0,.3,0-.2-.1-.2,0-.3,.1h-.3ZM28.5,31.94v-.2l-.1-.1-.1,.1c0,.1,.1,.2,.2,.2h0c.1,.2,.2,.3,.3,.4,.1-.1,.2-.2,0-.3,0,0-.2-.1-.3-.1Zm-2.2,.4l.1-.1c0-.1-.1-.2-.3-.2l.2,.3c-.3-.1-.2-.3-.3-.4-.2,.1-.3,.3-.2,.3,.2,.1,.3,.2,.6,.3l-.1-.2ZM69.8,1.14l-.2,.1,.3,.2-.1-.3c.1-.1,.3,0,.3-.2s-.2-.2-.3-.2c-.1-.1-.3,0-.3,.1,.1,.1,.1,.2,.2,.3-.1,0,0,0,.1,0h0ZM15.3,1.14h.2c-.1-.2-.1-.4-.2-.6,0-.1-.1-.2-.1-.2-.1-.1-.2-.1-.3,0h0v.7c.1,.2,0,.4,.2,.5,.3-.1,.1-.2,.2-.4Zm13.8,29.9c.2,.2,0,.5,.3,.8q-.2,.2,0,.4c0-.2,.3-.2,.4-.2,0-.1-.1-.2-.1-.2,0-.5-.4-.6-.6-.8ZM2,11.64c.3-.4,.4-.7,.2-.9-.1,0-.2,.1-.2,.1-.1,.3-.1,.5,0,.8ZM68.4,.24c-.3,.2-.3,.3-.1,.4,.1,.1,.2,0,.3-.1,.1-.1,.1-.2-.2-.3ZM21,32.34h.1l.4-.2c0-.2-.2-.2-.4-.2l-.1,.4ZM68.7,2.24c.2-.2-.1-.3-.2-.4l-.3,.1h.3c0,.2,0,.3,.2,.3Zm-.2-1.4c.1,.1,.2,.1,.3,.2,.1,0,.2,0,.3-.1v-.1c-.1,0-.1-.1-.2-.1-.2,0-.3,.1-.4,.1ZM1.8,12.14h0c-.2,.1-.2,.2-.3,.4l.1,.1c.1,0,.2-.1,.2-.1,.1-.1,.1-.3,0-.4ZM21.3,31.14c.1,.2,.1,.4,.4,.3q0-.2-.4-.3h0Zm-4,.9c0-.2-.1-.3-.4-.3,0,.2,.2,.3,.4,.3h0Zm-.7-30.5v-.2l-.1-.1c-.1,0-.1,.1-.1,.2s0,.2,.2,.1Zm7.6,29.9c0,.1,.1,.2,.3,.2,.1,0,.1-.1,.1-.2-.2-.1-.3-.1-.4,0h0ZM73.3,2.14v-.3l-.5,.2,.5,.1Zm.6-1c.2-.2,.1-.3-.2-.4l.2,.4Zm-4.7,.3h0c0-.1,0-.2-.1-.2h-.2v.1c.1,0,.2,.1,.3,.1h0ZM7.1,2.24c.3-.1,.3-.2,.1-.4-.1,.1-.2,.2-.1,.4,0-.1,0,0,0,0Zm10.3-.3l-.2-.1-.1,.1,.1,.1,.2-.1Zm-3,29.8h0l-.3-.3c.1,.1,.1,.3,.3,.3h0Zm9,.1h0l.2,.2c.1,.1,.2,.1,.2-.1l-.4-.1Zm3.7-.4h.1c.1-.1,.1-.2-.1-.3v.3ZM1.3,9.24h-.1c0,.1-.1,.2-.1,.2l.1,.1s.1,0,.1-.1v-.2ZM69.9,1.94c-.2,0-.3-.1-.4,0,.1,.2,.3,.2,.4,0ZM20.7,1.24l-.1-.1c-.1,0-.1,.1-.1,.1l.1,.1c0-.1,.1-.1,.1-.1Zm5.5,29.9h-.4l.2,.3,.2-.3ZM70.6,.44l-.3,.1q.2,.1,.3-.1ZM11.7,1.14h0c-.1,.1-.2,.2,0,.3v-.3ZM31.4,31.14h.3v-.1h-.2c-.1,0-.1,.1-.1,.1ZM7.6,1.84h0q.2-.1,0-.2v.2Zm17.2,30.9h.1l-.1-.3c-.2,.2-.1,.3,0,.3ZM69,1.84h0c.1,.1,.2,.2,.4,.1l-.4-.1Zm3.6,0h0l-.2-.2c-.1,.2,.1,.2,.2,.2h0ZM25.5,31.74q0-.2-.3-.2l.3,.2ZM70.6,1.54c-.2,0-.3,0-.3,.1,.1,0,.3,0,.3-.1h0Zm-1.6,0h-.3l.1,.1,.2-.1Zm4.2-.2l.2,.2,.1-.1c0-.1-.1-.1-.3-.1h0ZM19.3,30.94c-.1,0-.1-.1-.2-.1l-.1,.1,.1,.1c.1,0,.1-.1,.2-.1Zm7.4-.2c-.2,0-.2,.1-.1,.2,.1,0,.1-.1,.1-.2ZM9.9,2.34l.2-.1q-.2-.1-.2,.1ZM29.5,31.14q.2,.1,.3-.1l-.3,.1ZM73.5,1.84c.1,.1,.2,.1,.3,0h-.3Zm-4-.3q0,.2,.2,.2l-.2-.2ZM20,31.84c-.1,.1,0,.2,.2,.2l-.2-.2Zm10.9-.7s.1-.1,0,0c.1-.1,0-.2,0-.2l-.1,.1s0,.1,.1,.1Zm-1.8,.7c.1,0,.1-.1,0-.2h-.1q-.1,.1,.1,.2h0Zm-9.6,0h0l-.2-.2h-.1l.3,.2ZM67.3,1.34h0c0-.1-.1-.2-.2-.1l.2,.1ZM28.5,31.34c-.1,0-.1-.1-.1,0l-.1,.1,.1,.1c0-.1,.1-.1,.1-.2ZM68.2,1.84h0c.1,0,.1-.1,.1-.1l-.1-.1h0v.2Zm2.4-.6h0l-.2-.1h0l.2,.1Zm2.1-.7v.1l.1,.1s.1,0,.1-.1-.2,0-.2-.1ZM21.1,32.64c.1,0,.2,0,.2-.2l-.2,.2ZM6.8,2.54q-.1,0-.2-.1h-.1s0,.1,.1,.1h.2Zm-.4,28.3s0-.1,0,0c.1-.1,0-.1,0-.1h-.1s0,.1,.1,.1Zm19.9,1.8l-.1,.1,.1,.1q.1-.1,0-.2h0Zm-8-1.4h0l-.1-.2h-.1l.2,.2ZM66.5,1.94h0q0,.1,.1,.1h0q0-.1-.1-.1ZM31.1,31.04s0,.1,0,0c-.1,.1,0,.1,0,.1q.1,0,0-.1c.1,.1,.1,0,0,0Zm-11.5,.3h0l-.1-.2h0l.1,.2Zm11-.1h.1l-.1-.1h-.1l.1,.1Zm-4.2,.2h.1v-.2h-.1v.2Zm-.9,.8q.1,0,0,0c.1-.1,.1-.2,0-.2h-.1c.1,.1,.1,.2,.1,.2h0Zm-5.6-.8h0v.2h.1l-.1-.2ZM73.7,1.44c.1,0,.1,.1,.1,0,0,0,.1,0,.1-.1h-.1c0,.1-.1,.1-.1,.1ZM3.3,4.64s-.1,0,0,0h-.1s0,.1,.1,0h0ZM68.4,1.24s0,.1,0,0q0,.1,0,0,.1,.1,0,0c.1,.1,0,0,0,0Zm-.4,.1h0c.1-.1,0-.1,0-.1,0,0-.1,0,0,.1q-.1,0,0,0h0Zm-45,.4h0q0-.1,0,0Zm42.3-.7h.2v-.1q-.1,.1-.2,.1ZM27.4,32.34q0-.1,0,0l.1-.1h-.1q-.1,0,0,.1ZM71,.94h-.1c-.1,.1,0,.1,.1,0-.1,.1,0,.1,0,0ZM24.8,32.34h0q-.1-.1-.2,0v.1c.1-.1,.2-.1,.2-.1Zm-2.1-1h0v.1h.1l-.1-.1ZM70.1,.84q.1-.1,0,0c.1-.1,0-.1,0-.1v.1q0-.1,0,0Zm-3.4,1l.1-.1h-.2c.1,0,.1,.1,.1,.1ZM8.3,2.84s0-.1,0,0v-.1q-.1,0,0,.1-.1,0,0,0ZM69.8,.44q0-.1,0,0v-.1q-.1,0,0,.1-.1-.1,0,0Z"/><path class="cls-1" d="M124.2,14.74c.2,.1,.2,.3,.2,.4v.4l-.4-.1v.1l.2,.2c.2,.1,.2,.2,.2,.4v4.5h-.3l.1,.2,.2-.1v1.6l-.4,.1c.1,.1,.2,.1,.3,.2,.1,.1,.2,.1,.1,.3v.9l-.4,.1,.4,.2c0,.5-.1,.9-.3,1.4-.1,.2-.1,.4-.2,.6-.2,.7-.5,1.4-.9,1.9-.7,1-1.6,1.9-2.7,2.6-.4,.2-.8,.5-1.2,.7l-.1-.2c-.1,.4-.4,.5-.7,.6,0,0-.1,0-.1-.1s.2-.2,.1-.4c-.1,.2-.2,.3-.1,.4-.5,.4-1.2,.6-1.8,.7-.9,.2-1.9,.3-2.8,.5-.5,.1-.9,.1-1.4,.1h-11.2v-.1c.1,0,.2-.1,.4-.2,.1-.1,.1-.2,0-.3s-.2-.1-.3,0c-.1,.1-.2,.2-.1,.3,0,.1,.1,.1,.2,.2-.3,.1-.5,.1-.8,.1-.1-.1,.2-.3-.1-.4-.1,0-.1-.1-.3-.1,.2,.2,.1,.3,0,.5H48c-.2,0-.4,0-.6-.1-.1,0-.2-.1-.3,0-.2,.1-.5,.2-.8,.1h-5.2v-.2c-.1-.1-.3-.1-.5,0l.3-.6,.2,.1c0-.2-.2-.4,0-.6-.3,0-.4,0-.5,.2-.1,.3-.2,.6-.3,.8,0,0,0,.1-.1,.1-.3-.1-.6-.2-.9,0,0-.2,.1-.3,.3-.3h.4q.3,0,.3-.3h-.3v-.1h0c.1-.1,.2-.2,.1-.3-.1,0-.1,.1-.2,.1,0,0-.1,.1-.1,.2h0c-.1,.1-.2,.2-.4,.2-.1,0-.1,.1-.2,.1-.1,.1-.2,.3-.3,.4h-.4l-.1-.2-.2,.2-.2-.1c-.2,.1-.4,.2-.6,0-.2,.1-.4,.1-.6,.1-.1-.2,.1-.3,.2-.5-.2,0-.2,.1-.3,.2h0l.1-.3h-.4c-.2-.1-.1-.3,0-.5,0-.1,.2-.3,.1-.4-.1-.2,0-.3,.1-.4,.1,0,.2,.1,.3,.1s.1-.1,.2-.2c.2-.1,.4-.1,.6,0l-.3,.1,.2,.3q-.2,0-.2-.1c0-.1-.2-.1-.3-.1h0c-.1,0-.1,.1-.1,.2,.1,.2-.1,.3-.2,.5l.2-.3c-.2,.1-.3,.3-.3,.5l.3-.1,.2,.1,.2-.3c.1,.1,.2,.2,.1,.3-.1,.1-.1,.2-.1,.3h.6l.3-.3v-.2l.1-.1c.1,.4-.1,.7-.5,.8l.1,.3h.4v-.4l.3,.1c.1-.1,.2-.1,.3-.2,0,.1,.1,.2,.3,.2l.1-.1-.5-.1q0-.1,.1-.1c.2,0,.4-.1,.5-.2-.2,0-.3-.3-.6-.1l.5-1,.7,.1v-.1c.4,0,.7-.1,1.1,0v.5c.2-.1,.3-.2,.5-.3q0,.1,.2,.1l-.2-.1c.1-.2,.3-.1,.5-.1v.4c.4-.1,.3-.4,.4-.5h1.1c.2,0,.4,0,.7,.1h.1c.3-.1,.7-.1,1-.1h41.3c.2,0,.5,0,.7,.2,.1-.1,.3-.2,.4-.2h5.8c.1,.1,.2,.2,.3,.2s.2-.1,.3-.2h2.4c.4,0,.8,.1,1.2,.1h.3c.2-.1,.5-.1,.7-.1h4.3c.2,0,.4,0,.6,.2,.1-.2,.3-.2,.5-.2h3.4c.1,0,.3,0,.4,.1,0,.1,.2,.1,.3,0,.1-.1,.2-.1,.3-.1h2c1.2,0,2.5,0,3.7-.2,2-.3,3.8-1.2,5.3-2.5,.6-.6,1.1-1.2,1.4-2,.4-.8,.6-1.7,.5-2.5v-.8c0-.1,.1-.2,.1-.3-.2,0-.1-.1-.1-.2v-1.5c0-.3,.1-.5,.1-.8,0-.2,0-.4-.1-.6,0-.1,0-.3,.2-.3h0q-.2-.1-.2-.3v-1.6c0-.2,0-.4,.2-.5q.1-.1-.1-.2v-.3h.2c.1-.2,.1-.4,0-.5l-.2,.4v-2.7c0-.1,.1-.2,.1-.3s.2-.1,.2-.1h.1v-.3c0-.1,0-.2,.1-.2q.1-.1,.1-.2c-.1-.1,.1-.2,.1-.3,.3-.3,.5-.7,.5-1.1,0-.2,.1-.4,.2-.6,.1-.2,.2-.4,.4-.5v.4h.1c.1-.2,.3-.5,.4-.7s.2-.2,.4,0l-.2,.1h.3c0,.4,0,.9-.1,1.3v.8c0,.4-.1,.8-.1,1.1v.1c.2,.1,.2,.3,.2,.4,.1,.3,0,.6-.2,.9-.1,.1-.1,.2-.1,.4-.1,.2,0,.2,0,.2h0ZM42,31.54l-.1,.2,.3-.1-.2-.1v-.2l-.3,.2h.3Zm-3.1,1l-.2-.1c0,.1,.1,.1,.2,.1v.2c.2-.1,.3-.2,.2-.3,0,.1-.1,.1-.2,.1h0Zm.7-1.5c.2,.3-.3,.3-.2,.4h.5v.3c.2-.2,.3-.4,.5-.5,.1,0,.2,.1,.3,.1s.2-.1,.2-.3c-.2-.1-.3,.1-.5,0s-.2,.2-.4,.1l.1-.2-.5,.1Zm59.2,1.4c-.1-.1-.3-.2-.4-.3-.2-.1-.4-.1-.4,0s0,.2,.1,.3,.2,.1,.3,.1c.1-.1,.2-.1,.3,0l.1-.1h0Zm24.5-22.2q-.1,.1-.1,.2c0,.1,0,.2,.1,.4,0,.1-.2,.2-.2,.3,0,.2-.1,.3-.3,.4,.4,0,.4-.3,.6-.4,0-.1-.1-.2-.1-.3,.1-.2,.1-.4,0-.6Zm.4,6.1c.3,.1,.1,.3,.2,.4,.1,0,.2,0,.2-.1-.1-.1,0-.3,.1-.4v-.2c-.2,.1-.5,.2-.5,.3h0Zm.6,5.4c-.2,.2-.6,.1-.6,.3l.5,.1,.1-.4Zm-.4-11.9h0c-.1,.1-.1,.2-.1,.2l.3,.3h.2v-.1l-.4-.4h0Zm-28.1,22.3c.1,0,.2-.1,.2-.2h0c0-.1,0-.2-.2-.2-.1,0-.2,.1-.3,.2,.1,.1,.2,.2,.3,.2Zm-20.6-.6c.1-.2,.1-.4,0-.6-.2,.2-.2,.3,0,.6Zm26.6-.4c-.1-.1-.2-.1-.3-.1s-.3,.1-.3,.2,.1,.1,.2,.1c.1-.1,.2-.2,.4-.2Zm-3.2-.1c.1,0,.2,.1,.2,.1,.1,0,.2-.1,.2-.1,0-.1-.1-.1-.2-.1,0-.1-.2-.1-.2,.1Zm23.6-12c.2-.2,.2-.4,.2-.6-.1,.1-.2,.3-.2,.6Zm.7-6.9c.4-.1,.5-.2,.3-.4l-.3,.4Zm.9,0h0c0,.2,.1,.4,.4,.4v-.1c-.2-.1-.3-.2-.4-.3Zm-23.2,18.6q-.1,.1-.1,.2l.1,.1c.1,0,.2,0,.2-.1,0-.1-.1-.1-.2-.2Zm23.1-16.8l.1,.5q.2-.3-.1-.5Zm-.9-.3h0l.5,.3c-.1-.2-.3-.2-.5-.3h0Zm1.1,4.9l.3-.1-.2-.2h-.1v.3Zm-1.3,.8c.2,0,.4,0,.6-.1-.2-.1-.4,0-.6,.1Zm-22.6,12.6q.1,.2,.3,.1l-.3-.1Zm22.5-4.5q.2-.1,.2-.2v-.1h-.1l-.1,.3Zm-27.9,4.4q-.1,.1-.1,.2s.1,.1,.2,.1l.1-.1c-.1-.1-.2-.1-.2-.2Zm27.8-19.3c.2-.1,.1-.2,0-.4-.2,.2,.1,.3,0,.4Zm.7,9.2h.1l.2-.4h-.1l-.2,.4Zm-.9-2.5c-.2,0-.2,.1-.2,.4,.2,0,.1-.2,.2-.4Zm0,5.7h0l-.2,.4h.1l.1-.4Zm-24.2,6.5c-.1,0-.1-.1-.1-.1,0,0-.1,0-.1,.1l.1,.1,.1-.1Zm24.2-10c-.2,0-.2,.1-.2,.2h.1c.1,0,.1-.1,.1-.2h0Zm-17.4,9.8l.1-.1-.1-.1-.1,.1s0,0,.1,.1h0Zm17.6-16.8q.1-.2,0-.3v.3Zm1.7,10.2h-.3q.2,.1,.3,0h0Zm-10.9,8c-.1,0-.1-.1-.2-.1l-.1,.1,.1,.1,.2-.1Zm-69.1-.7h0l.3-.2h-.1l-.2,.2ZM121.9,13.74h.1v-.3h-.1v.3ZM42.3,31.94v.2h.1l.2-.2h-.3Zm50-.9l-.2-.1-.1,.1,.1,.1s.1-.1,.2-.1h0Zm-50.5,1c-.1,.1-.2,.1-.2,.2,.2,0,.2-.1,.2-.2h0ZM122.8,14.84q.1-.2,0-.3v.3Zm.8,9.2h0l.2,.1v-.1h-.2Zm-1.9-9.8h.1v-.3h-.1v.3Zm-19.7,18.4l-.1-.1-.1,.1s0,.1,.1,.1l.1-.1Zm.4-1.7l-.3,.1c.2,.1,.3,0,.3-.1Zm-8.6,1.6h-.2s-.1,0-.1,.1l.1,.1q.2-.1,.2-.2Zm26.5-4.9h0l-.1,.2h.1v-.2Zm3.6-7c-.1,0-.1-.1-.1-.1h-.1l.1,.1c-.1,.1,0,0,.1,0ZM46.9,31.64q.2-.1,.2-.2l-.2,.2Zm-2.5,.7h0q-.2,0-.2,.1l.2-.1ZM123.5,11.34h-.1l.1,.1h.1l-.1-.1Zm-38.3,19.9s-.1,0,0,0c-.1-.1-.1,0-.2,0h.2Zm-41.3,1.4c.1,.1,.2,.2,.3,0h-.3Zm57.8-1.1h0l.1-.2h-.1v.2Zm-8.4,.4q-.1,0,0,0c-.1,.1-.1,.2,0,.2,0,0,.1,0,.1-.1l-.1-.1Zm-56.2,.1h0l.2,.2c0-.2-.2-.2-.2-.2h0Zm64.2-.2l.1-.1-.1-.1v.2q0-.1,0,0h0Zm19.2-3.7q-.2,.1-.1,.3l.1-.3Zm2.8-12.8c-.2,0-.3,.1-.2,.2l.2-.2Zm.5,8.4h.2v-.1l-.2,.1Zm-.1-.4l-.1-.1h-.1s.1,0,.1,.1h.1Zm-21.1,7.8h0v0h0Zm-6,.2h0c-.1-.1-.2,0-.2,0,0,0,0,.1,.1,.1,0,0,.1,0,.1-.1h0Zm26.3-17.1q0-.2-.2-.1l.2,.1Zm.8-1.4h0q0,.1,0,0h0ZM44.4,32.04h-.3s0,.1,.1,.1l.2-.1Zm61,.2h0q-.1,0,0,0h0Zm-12.9,.3s-.1,0,0,0h-.1q0,.1,.1,0h0Zm31.4-8.1s-.1,0,0,0h0Z"/><path class="cls-1" d="M87.2,2.24c.2-.3,.6-.4,.7-.8,0-.1,.2-.2,.3-.2l-.2-.4,.2-.1c-.2-.2-.2-.3,.1-.4l-.1-.1c.1,0,.1-.1,.2-.1h10.8l.3,.4c.2-.1,.1-.3,.2-.4h12.8c.9,0,1.8,.1,2.7,.3,.4,.1,.7,.1,1,.2l-.3,.6s0,.1,.1,.1c.2-.1,.4-.3,.5-.6,.2,0,.2,.1,.2,.2s0,.2,.1,.2h.2l-.1,.4c.3-.1,.3-.4,.6-.5,0,.1,0,.3-.1,.4-.1,.2-.1,.3-.3,.4-.2,.1,0,.3-.2,.4q0,.4-.4,.8c-.6-.2-1.3-.3-1.9-.5-.7-.2-1.5-.2-2.2-.2h-20.4c-.1-.3,.2-.6-.2-.9-.2,.1-.3,.2-.2,.4v.5h-1.3c-.1,0-.1-.1-.2-.1-.1,.1-.3,.2-.5,.1h-1.1c-.2,0-.3,0-.5-.1-.1,.1-.3,.1-.6,.1-.1,0-.1-.1-.2-.1h0Zm6.7-.2h.1v-.3l.3-.1c-.1-.2-.2-.4-.2-.7l.4-.1c-.2-.2-.4-.2-.6-.2s-.2,.1-.2,.3v.4c0,.3,0,.6,.2,.7h0Zm-3.4-1.5c0,.1-.1,.3-.1,.4,0,0,0,.1,.1,.1h.1c0-.2,.1-.4-.1-.5Zm4.4,.1h-.1c-.1,.2-.1,.4,0,.5h.2l-.1-.5Zm.4,1.5h0q.1-.1,.1-.2t-.1-.2h-.1v.2c0,.1,0,.2,.1,.2Zm20.9-.6q-.2,.2-.2,.4c.2-.1,.3-.2,.2-.4h0Zm-16.9,.3c.1,0,.1-.1,.1-.1l-.1-.1-.1,.1,.1,.1Zm-10.2-1.4c.1,.1,.3,.2,.4,.1-.1-.1-.2-.2-.4-.1Zm1.4,1.2c-.2,.1-.2,.2,0,.3v-.3Zm11.6-1.3c-.1-.1-.2-.1-.3,0v.1c.1,0,.2,0,.3-.1Zm-12.4,1.4q.1-.1,0-.2h-.1c-.1,.1-.1,.2,.1,.2Zm8.1-1c0-.1-.1-.1-.2-.1h0v.1h.2Zm-6.4,.4h-.2s-.1,0-.1,.1l.1,.1c.1-.1,.1-.2,.2-.2Zm-2.7,.5h0l-.1-.1h0s0,.1,.1,.1Zm2.7-1.3h0l-.2-.1v.1h.2Z"/><path class="cls-1" d="M122.3,7.94c.1,.2,0,.5-.2,.6-.1,0-.1,.2-.1,.3,.2-.1,.5-.1,.7-.1v.1c-.3,.1-.5,.4-.6,.7,0,.2-.2,.4-.4,.5-.1-.1,0-.3,.1-.4,.2-.1,.2-.3,.2-.5l-.3,.1v-.1c0-.8-.2-1.5-.5-2.2-.2-.4-.5-.8-.7-1.2-.2-.2-.2-.4,0-.6l.2-.2v-.2h.2l.4-1.6c.1,0,.2,.1,.3,.2l-.2,.1,.2,.2,.3-.2c.4,.3,.7,.7,1,1.1-.1,0-.3,0-.2,.2l.2-.2c.2,.1,.1,.3,.2,.4h.1c-.1,.1,.1,.3-.1,.4-.1,.1,0,.3-.1,.4,0,.1-.1,.2-.2,.2l-.1,.1v.6s.1,.1,.2,.1q.2,0,.4,.2l-.5,.3c-.1,.5-.2,.5-.5,.7q0-.1,0,0h0Zm-.8-4h0c-.2,.2-.3,.5-.1,.7h.1c-.1,.1-.2,.1-.1,.3,.1,.1,0,.2-.2,.2-.1,0-.1,.1-.1,.1v.3h0l.1-.2c.2,.1,0,.3,.3,.4,0-.2,.1-.3,.1-.5,.1-.2,.1-.3,.2-.5l-.2-.2-.2,.1c.1-.2,.1-.5,.1-.7l.2,.4c.1-.1,.1-.2,.1-.3,0-.1-.2-.2-.3-.1Zm.5,3.1c.2-.7,.3-.7,0-.9-.1,.3-.2,.5-.2,.7-.1,.1,0,.2,.2,.2Zm-.9-2.2l-.3,.5c.2,0,.3-.2,.3-.5h0Zm1.2,2.8l.3-.4c-.4,0-.4,.1-.3,.4h0Zm-1-.6l.3,.1q0-.2-.2-.2l-.1,.1Zm.9,.1h0l.1-.3c-.2,.1-.2,.2-.1,.3h0Zm-.1,.7q-.2,.1-.1,.2l.1-.2Zm.5-2.8q-.2,.1-.2,.2l.2-.2Zm-.8-.8c.1-.1,.1-.2,0-.3v.3Zm-.1,4.2c.2,0,.2-.1,.2-.1v-.1l-.2,.2Zm0-.3h0q-.1,0-.1,.1h.1v-.1h0Z"/><path class="cls-1" d="M119.5,4.04l-.1,.7-.5-.4c.1-.1,.1-.3,.1-.4s.1-.2-.2-.2c.1-.2,.2-.3,.2-.5,0,0,0-.1-.1-.2h-.1s-.1,.1-.1,.2,0,.3-.1,.4l.1,.1-.1,.5c-.2-.1-.4-.3-.6-.4-.2-.1-.4-.3-.5-.4-.2-.1-.4-.2-.7-.3,0-.1,.1-.2,.1-.3,.1-.2,.1-.3,0-.5v-.2c.2-.3,.4-.6,.6-1l.2-.2,.1,.4h.1l.2-.3c.4,.2,.9,.4,1.3,.6,0,.1-.1,.1-.2,.2q-.2,.1,0,.3v.1h.1c.2-.1,0-.4,.2-.5,.2,.1,.2,.2,.1,.4s-.1,.4-.2,.6-.1,.3-.2,.5c-.1,.1,0,.2,.1,.2h0c-.1,.2-.3,.3-.1,.5l.3,.1Zm-1.8-2.1h0l.2-.2h-.1l-.1,.2Z"/><path class="cls-1" d="M83.1,2.14c.2-.2,.3-.5,.2-.8h0c.2-.1,.4,0,.6,0h0l-.1,.2c.1,0,.2,.1,.2,.2s-.1,.1-.1,.2-.1,.1-.1,.2q.6,0,.8-.2c0-.2-.1-.2-.4-.1,.2-.2,.6-.4,.3-.7,.3-.1,.5,0,.5,.1-.1,.2,.1,.2,.2,.4,.1-.1,.2-.1,.2-.2s0-.2-.1-.3c-.3,0-.3-.2-.2-.3h.2l-.1-.2,.3-.3-.6-.1v-.1c.2-.1,.3,0,.4,.1l.2-.1h.1v.4c0,.2,0,.3-.2,.4-.1,0-.1,.2-.1,.2,.2,.2,.1,.4,.1,.7q0,.1-.1,.2c0,.1,0,.2,.3,.2,.2-.3,0-.6,.1-.9,.1-.3,.1-.6,.2-.9h.1c-.1,.1-.1,.3-.1,.4s-.1,.2-.1,.3c.1,.2,.2,.4,.1,.6v.1c0,.1,.1,.1,.1,.2l.4-.1c0-.1-.1-.1-.1-.2,.2-.2,.2-.4,.2-.7,.1-.2,.1-.5,.1-.7,.1-.1,.2-.2,.4-.2h.8l.1,.4c-.5,.2-.4,.6-.4,1-.1,0-.4,0-.3,.2,0,0-.1,.1-.3,.1,.2,0,.3,.2,.3,.3h0c-.2,.1-.3,.2-.5,.1-.1,0-.2-.1-.3-.2l-.1,.2h-1.6v-.1q.2,0,.2-.2c-.1,.1-.3,.1-.2,.2h-.2c-.1,.1-.2,.1-.3,.1h-1q-.2,0-.3-.2l.2,.1q.1,.1,.3,0h-.3Zm3.7-.6c-.1,0-.2-.1-.2,0s0,.1,.1,.1c.2,0,.1-.1,.1-.1q.2,0,.2-.2l-.2,.2Zm.1-1h0v-.2h-.1l.1,.2Z"/><path class="cls-1" d="M119.4,3.74l.3-.3c-.2-.3,.1-.4,.2-.7,.1-.1,.2-.3,.3-.4l.3,.2-.5,.5h.1l.4-.4c.1,0,.1,.1,.1,.2s-.1,.2-.1,.2c0,.1,0,.2,.2,.3l.2-.4c.1,.1,0,.4-.3,.7,0,.4,0,.8-.2,1.2v-.5h-.1l-.3,.6c0-.1-.1-.1-.1-.2,.1-.2,.1-.4,.3-.5,.2-.3,.2-.6,.1-.9-.2,.1-.3,.3-.3,.5s0,.4-.1,.6c0,.1-.1,.3-.2,.4-.2-.1-.1-.2-.1-.2,.1-.2,.2-.3,.1-.6q0-.1,.1-.2l-.2,.1c-.1,0-.1-.2-.2-.2h0Z"/><path class="cls-1" d="M122.7,9.94c-.1-.3,.2-.5,.4-.7l-.1-.1-.5,.2c.3-.5,.5-1,.6-1.6q.1,.1,.1,.4c0,.1-.2,.2,.1,.4,0-.1,.1-.2,.1-.4v-.4l.3-.3c0,.1,0,.2-.1,.4,0,.1-.2,.2,0,.3l-.1,.2c-.1,.1-.2,.4,0,.5l.1,.1c.1,.1,0,.2-.2,.2v.3c-.1,0-.2,0-.3,.1l-.2,.2c-.1,0-.2,.1-.2,.2h0Z"/><path class="cls-1" d="M122.7,9.94c-.1,.2-.1,.3-.2,.5-.1,.1-.2,.3-.1,.5,0,.1,0,.2-.1,.3-.1,.2-.2,.4-.4,.7-.1,.1-.1,.2-.2,.2-.1-.2-.2-.4,0-.6,.1-.1,.1-.2,.1-.4l-.2,.1c-.1-.1,0-.6,.1-.8,.2,0,.1,.1,.1,.2v.3c.2,0,.3-.2,.3-.3s.1-.3,.2-.4c.1-.1,.2-.2,.3-.4,0,0,0,.1,.1,.1h0Z"/><path class="cls-1" d="M34.4,31.14c-.1,0-.1,.2-.3,.1l-.1,.1c-.1,.2-.2,.3-.2,.5,0,0,0,.1-.1,.1-.1-.2-.3-.5,.1-.6,0-.2-.1-.2-.3-.2-.1,0-.2-.1-.4,0l.2-.3h.3l.1,.2c.2,0,.4-.1,.5-.3l.2,.4h0Z"/><path class="cls-1" d="M83.8,1.34c0-.1,0-.2-.1-.3q-.3-.1-.2-.4c.2,0,.3-.1,.5-.1,0,0,0-.1,.1-.3l-.3,.1V.14l.5,.1c-.2,.2,0,.3-.2,.4,.1,.2-.2,.3-.1,.5,0,.1,0,.2-.2,.2h0Z"/><path class="cls-1" d="M31.7,32.54l-.2,.1-.1-.1c-.1-.1-.2-.2,0-.3l.3,.1,.1-.5h.2l-.2,.5c.1,.1,.3,.1,.1,.2,0,.2-.1,.1-.2,0Z"/><path class="cls-1" d="M74.2,2.14c.3,0,.5-.1,.8-.1,.1,0,.2,.1,.3,.1l.3-.2,.1,.2c-.4,.2-.6,0-1-.1-.1,.2-.3,.2-.5,.2,.1,0,.1-.1,0-.1h0Z"/><path class="cls-1" d="M124.2,8.44c.1,.1,.1,.2,.1,.2-.2,.2-.1,.3,0,.5,0,0,0,.1-.1,.1l-.2-.3c-.1,0,0,.3-.3,.2,0-.3,.3-.5,.5-.7Z"/><path class="cls-1" d="M33.5,31.94c-.2,.2-.3,.4-.1,.6l-.2,.2h0v-.2c-.2,.1-.1,.3-.3,.2,.1-.1,.1-.3,.2-.4,.1-.2,.1-.4,.4-.4Z"/><path class="cls-1" d="M76.2,1.94c.1-.1,.1-.2,.1-.2,.2,0,.3-.2,.4-.3,0-.1,.1-.1,.2-.1v.2q.1,.2-.1,.2c-.2,.1-.3,.2-.6,.2Z"/><path class="cls-1" d="M32.7,31.34c-.2,.1-.4,.1-.2,.3-.1,0-.1,.1-.2,.1l-.1-.5c.1,0,.4-.2,.5,.1Z"/><path class="cls-1" d="M39.1,30.84c-.5,0-.3,.3-.4,.5-.2-.2,.1-.4,0-.6l.4,.1h0Z"/><path class="cls-1" d="M119.4,3.74c.2,.1,.2,.2,.1,.3h0l-.2,.2c-.3-.2,0-.3,.1-.5Z"/><path class="cls-1" d="M123,6.54c-.2-.2-.1-.4,0-.6,.1,.2,.1,.3,0,.6Z"/><path class="cls-1" d="M83.1,1.54h-.3l-.1-.1-.2,.1v-.2c.3-.1,.5,0,.6,.2h0Z"/><path class="cls-1" d="M76.5,.84q.2-.1,.2-.4,.1,0,.1,.1v.3c0,.1-.1,.1-.3,0Z"/><path class="cls-1" d="M38.2,31.14h-.3c0-.1,.1-.1,.1-.2,.1-.1,.2-.2,.5-.1-.2,0-.3,.1-.3,.3Z"/><path class="cls-1" d="M30.3,32.14c-.1-.1-.1-.3,0-.4h.3c-.1,.2-.2,.3-.3,.4h0Z"/><path class="cls-1" d="M76.2,.74c0-.2,.2-.3-.1-.5,.1-.1,.2,0,.3,0v.4c-.1,.1-.2,.1-.2,.1h0Z"/><path class="cls-1" d="M27.8,31.04l-.2-.3,.4-.1-.2,.4Z"/><path class="cls-1" d="M38,31.34c0,.1,.2,.3,0,.4-.1-.1-.2-.3,0-.4Z"/><path class="cls-1" d="M37,32.54l-.3,.2v-.3c.1-.1,.2,.1,.3,.1h0Z"/><path class="cls-1" d="M34.3,32.44l-.1-.5h0l.1,.5h0Z"/><path class="cls-1" d="M76.3,2.14c-.3,.1-.4,0-.5-.1,.2,0,.3,.1,.5,.1Z"/><path class="cls-1" d="M75.6,1.54l-.1-.1,.2-.1c.2,0,0,.1-.1,.2Z"/><path class="cls-1" d="M75.9,1.84l.1-.4,.1,.3-.2,.1Z"/><path class="cls-1" d="M122.3,7.94q.4,0,.2,.3c-.1-.1,0-.3-.2-.3h0Z"/><path class="cls-1" d="M83,1.14c-.1,0-.3,.1-.4-.1,.1,0,.2,0,.4,.1h0Z"/><path class="cls-1" d="M123.3,5.54l.2,.4q-.3-.2-.2-.4Z"/><path class="cls-1" d="M32.8,30.74h.2l-.1,.1v.1h-.1v-.2Z"/><path class="cls-1" d="M31.9,30.94l.2-.3q.1,.3-.2,.3Z"/><path class="cls-1" d="M36.1,31.84l-.2,.3c-.1-.2-.1-.3,.2-.3Z"/><path class="cls-1" d="M83.3,1.34c-.1-.1-.2-.2-.3-.2h.4q-.1,.1-.1,.2h0Z"/><path class="cls-1" d="M76.2,1.34l.3-.3c-.1,.1,0,.2-.3,.3Z"/><path class="cls-1" d="M74.6,1.74l-.1,.2q-.1-.1-.1-.2c0-.1,.1,0,.2,0Z"/><path class="cls-1" d="M123.6,8.64l.1-.3q.1,.1-.1,.3Z"/><path class="cls-1" d="M35.7,31.04l.2-.2c.1,.1,0,.1-.2,.2h0Z"/><path class="cls-1" d="M35.6,30.94l-.1,.2c-.1-.1-.1-.2,.1-.2Z"/><path class="cls-1" d="M76.2,.74q0,.2-.4,.3c.2-.2,.3-.2,.4-.3h0Z"/><path class="cls-1" d="M34.4,31.14h.3l-.1,.2-.2-.2h0Z"/><path class="cls-1" d="M36.4,31.34h-.3v-.2l.3,.2Z"/><path class="cls-1" d="M35.8,32.64l-.2,.2c0-.1,0-.2,.2-.2Z"/><path class="cls-1" d="M75.1,1.74c-.2-.1-.1-.2-.1-.2l.1,.2Z"/><path class="cls-1" d="M123,5.74l-.1-.1h.1q.1,0,0,.1h0Z"/><path class="cls-1" d="M124.2,14.84q0-.1,.2-.1-.1,0-.2,.1h0Z"/><path class="cls-1" d="M35,30.84l-.3,.1,.1-.1q.1-.1,.2,0h0Z"/><path class="cls-1" d="M73,.24q.1,0,0,0c.1-.1,.2,0,.2,0h-.2Z"/><path class="cls-1" d="M40.3,32.04c-.1,0-.1,.2-.2,0h0s.1-.1,.2,0h0Z"/><path class="cls-1" d="M35.3,31.54c.1,0,.1,.1,0,0v0h0Z"/><path class="cls-1" d="M36.3,32.64v.2h-.1l.1-.2h0Z"/><path class="cls-1" d="M15.3,1.14c-.1,.1,.1,.3-.1,.4-.2-.1-.2-.3-.3-.5V.34c.1-.1,.2-.1,.3,0h0c.1,.1,.1,.2,.1,.2,.1,.2,.1,.4,.2,.6h-.2Z"/><path class="cls-1" d="M29.1,31.04c.3,.2,.6,.4,.6,.7,0,.1,.1,.1,.1,.2-.1,.1-.4,0-.4,.2q-.2-.2,0-.4c-.3-.2-.2-.5-.3-.7Z"/><path class="cls-2" d="M2,11.64c-.1-.2-.1-.5,0-.8,0-.1,.1-.1,.2-.2,.2,.3,.1,.6-.2,1Z"/><path class="cls-1" d="M69.8,1.14h-.2c-.1-.1-.1-.2-.2-.3,.1-.1,.2-.1,.3-.1,.1,.1,.3,.1,.3,.2,.1,.2-.1,.2-.2,.2h0Z"/><path class="cls-1" d="M70.8,1.94l.2-.1-.1-.2h.5c.2,0,.2,.1,.3,.2-.2,0-.3,0-.5,.1-.2,.1-.3,0-.4,0h0Z"/><path class="cls-1" d="M68.4,.24c.3,.1,.3,.2,.2,.3-.1,.1-.2,.1-.3,.1-.2,0-.1-.2,.1-.4Z"/><path class="cls-1" d="M26.3,32.34v.2c-.2,0-.4-.1-.6-.3-.1-.1,0-.2,.2-.3,.2,.1,.1,.3,.4,.4h0Z"/><path class="cls-1" d="M21,32.34l.1-.4c.2,0,.3,.1,.4,.2l-.4,.2h-.1Z"/><path class="cls-1" d="M68.7,2.24c-.2,0-.2-.1-.2-.2h-.3l.3-.1c.2,0,.4,.1,.2,.3Z"/><path class="cls-1" d="M68.5,.84c.1,0,.2-.1,.3-.1s.2,0,.2,.1v.1c-.1,0-.2,.1-.3,.1l-.2-.2Z"/><path class="cls-1" d="M1.8,12.14v.4s-.1,.1-.2,.1l-.1-.1c.1-.2,.2-.3,.3-.4h0Z"/><path class="cls-1" d="M28.5,31.94c.1,.1,.2,.1,.4,.2,.2,.1,.1,.2,0,.3-.2-.2-.2-.4-.4-.5h0Z"/><path class="cls-1" d="M21.3,31.14q.3,.1,.4,.3c-.3,.1-.3-.1-.4-.3Z"/><path class="cls-1" d="M17.3,32.04c-.2,0-.3-.2-.4-.3,.3,0,.4,.1,.4,.3Z"/><path class="cls-1" d="M16.6,1.54c-.2,0-.2-.1-.2-.1,0-.1,0-.2,.1-.2l.1,.1v.2Z"/><path class="cls-1" d="M24.2,31.44c.1-.1,.3-.1,.3,0s0,.1-.1,.2c-.1,0-.2-.1-.2-.2Z"/><path class="cls-1" d="M73.3,2.14l-.5-.1,.5-.2v.3Z"/><path class="cls-1" d="M73.9,1.14l-.2-.4c.3,.1,.4,.2,.2,.4Z"/><path class="cls-1" d="M69.2,1.44c-.1,0-.2,0-.3-.1,0,0-.1-.1,0-.1q.1-.1,.2-.1c.1,.1,.1,.2,.1,.3h0Z"/><path class="cls-1" d="M7.1,2.24c-.1-.2,0-.3,.1-.4h0c.2,.2,.2,.3-.1,.4Z"/><path class="cls-1" d="M17.4,1.94l-.2,.1-.1-.1,.1-.1,.2,.1Z"/><path class="cls-1" d="M14.4,31.74c-.2,0-.2-.2-.3-.3l.3,.3h0Z"/><path class="cls-1" d="M23.4,31.84l.4,.1q-.1,.1-.2,.1c0-.1-.1-.1-.2-.2h0Z"/><path class="cls-1" d="M27.1,31.44v-.3c.2,.1,.2,.2,.1,.3h-.1Z"/><path class="cls-1" d="M1.3,9.24v.3s-.1,0-.1,.1l-.1-.1c0-.1,0-.2,.1-.2l.1-.1Z"/><path class="cls-1" d="M69.9,1.94c-.2,.2-.3,.2-.4,0h.4Z"/><path class="cls-1" d="M72.3,1.14l.2,.2c-.1,.1-.2,0-.3,0h0l-.1-.2h.2Z"/><path class="cls-1" d="M20.7,1.24c-.1,0-.1,.1-.2,.1l-.1-.1,.1-.1q.1,0,.2,.1Z"/><path class="cls-1" d="M28.5,31.84c-.1,0-.2,0-.2-.1l.1-.1s.1,0,.1,.1v.1h0Z"/><path class="cls-1" d="M69.8,1.14l.1,.4-.3-.2c0-.1,.1-.1,.2-.2h0Z"/><path class="cls-1" d="M30,32.24l.2,.4c-.2-.1-.2-.2-.2-.4h0Z"/><path class="cls-1" d="M26.2,31.14l-.2,.2-.2-.2h.4Z"/><path class="cls-1" d="M70.6,.44q-.1,.3-.3,.1l.3-.1Z"/><path class="cls-1" d="M11.7,1.14v.3c-.1-.1-.1-.2,0-.3h0Z"/><path class="cls-1" d="M31.4,31.14c0-.1,.1-.1,.1-.1h.2v.1c-.1,0-.2,.1-.3,0h0Z"/><path class="cls-1" d="M7.6,1.84v-.2q.2,.1,0,.2h0Z"/><path class="cls-1" d="M26.3,32.34h0l-.1-.3c.2,0,.2,.1,.3,.2-.1,0-.1,.1-.2,.1Z"/><path class="cls-1" d="M24.8,32.74c-.1-.1-.2-.1,0-.3l.1,.3h-.1Z"/><path class="cls-1" d="M67.8,2.24q0-.1,.1-.1c.1,0,.2,.1,.1,.2,0-.1-.1-.1-.2-.1h0Z"/><path class="cls-1" d="M69,1.84l.4,.1c-.2,.1-.3,0-.4-.1h0Z"/><path class="cls-1" d="M72.6,1.84c-.1,0-.2,0-.2-.2l.2,.2h0Z"/><path class="cls-1" d="M25.5,31.74l-.3-.2q.3,0,.3,.2Z"/><path class="cls-1" d="M70.6,1.54c-.1,.1-.2,.2-.3,.1h0c0-.2,.1-.2,.3-.1Z"/><path class="cls-1" d="M69,1.54l-.2,.1-.1-.1h.3Z"/><path class="cls-1" d="M73.2,1.34c.2,0,.3,0,.3,.1l-.1,.1-.2-.2Z"/><path class="cls-1" d="M19.3,30.94c-.1,0-.1,.1-.2,.1l-.1-.1,.1-.1q.1,0,.2,.1Z"/><path class="cls-1" d="M26.7,30.74c.1,.1,0,.2-.1,.2q-.1-.1,.1-.2Z"/><path class="cls-1" d="M9.9,2.34q0-.2,.2-.1l-.2,.1Z"/><path class="cls-1" d="M29.5,31.14l.3-.1q-.1,.1-.3,.1Z"/><path class="cls-1" d="M73.5,1.84h.3c-.1,0-.2,.1-.3,0Z"/><path class="cls-1" d="M72.4,1.14s.1-.1,.3,0c-.1,.1-.2,.1-.3,0h0Z"/><path class="cls-1" d="M69.5,1.54l.2,.2q-.2-.1-.2-.2Z"/><path class="cls-1" d="M20,31.84l.2,.2c-.2,0-.2-.1-.2-.2Z"/><path class="cls-1" d="M30.9,31.14c-.1,0-.1-.1-.1-.1l.1-.1v.2c.1-.1,0,0,0,0Z"/><path class="cls-1" d="M29.1,31.84c-.1,0-.1-.1-.1-.2h.1q.1,.1,0,.2Z"/><path class="cls-1" d="M19.5,31.84l-.2-.2h.1l.1,.2h0Z"/><path class="cls-1" d="M72.1,1.14l.1,.2h-.2l.1-.2Z"/><path class="cls-1" d="M67.3,1.34h-.2c.1-.2,.1-.1,.2,0h0Z"/><path class="cls-1" d="M72,1.34l.3,.1h0v.2l-.3-.3Z"/><path class="cls-1" d="M28.5,31.34l-.1,.1s-.1,0-.1-.1c0,0,0-.1,.1-.1,0,.1,.1,.1,.1,.1Z"/><path class="cls-1" d="M68.2,1.84l-.1-.2h0s.1,0,.1,.1c.1,0,.1,.1,0,.1h0Z"/><path class="cls-1" d="M70.6,1.24l-.3-.1h0l.3,.1h0Z"/><path class="cls-1" d="M72.7,.54l.1,.1-.1,.1s-.1,0-.1-.1l.1-.1Z"/><path class="cls-1" d="M21.1,32.64l.2-.2c0,.2-.1,.2-.2,.2Z"/><path class="cls-1" d="M6.8,2.54h-.2s-.1,0-.1-.1h.1q.1,0,.2,.1Z"/><path class="cls-1" d="M6.4,30.84s0-.1-.1-.1h.1v.1c0-.1,0,0,0,0Z"/><path class="cls-1" d="M26.3,32.64h0v.1s-.1,0-.1-.1h.1Z"/><path class="cls-1" d="M18.3,31.24l-.1-.1h.1v.1h0Z"/><path class="cls-1" d="M66.5,1.94l.1,.1h0l-.1-.1h0Z"/><path class="cls-1" d="M31.1,31.04c.1,0,.1,.1,0,0,.1,.1,0,.1,0,.1v-.1c0,.1,0,0,0,0Z"/><path class="cls-1" d="M19.6,31.34l-.2-.2h0l.2,.2h0Z"/><path class="cls-1" d="M30.6,31.24v-.2h.1l.1,.1-.2,.1Z"/><path class="cls-1" d="M26.4,31.44v-.2h.1v.2h-.1Z"/><path class="cls-1" d="M74.2,1.74h-.3q.1-.1,.3,0h0Z"/><path class="cls-1" d="M25.5,32.24c0-.1-.1-.1-.1-.1h.1q.1,0,0,.1,.1,0,0,0Z"/><path class="cls-1" d="M19.9,31.44l.1,.1h-.1v-.1h0Z"/><path class="cls-1" d="M73.7,1.44s.1,0,.1-.1h.1l-.1,.1q0,.1-.1,0Z"/><path class="cls-1" d="M68.4,1.24s.1,.1,0,0q.1,.1,0,0,0,.1,0,0c0,.1,0,0,0,0Z"/><path class="cls-1" d="M68,1.34q-.1,0,0,0v0h0Z"/><path class="cls-1" d="M23,1.74q0-.1,0,0h0Z"/><path class="cls-1" d="M65.3,1.04h.2v.1l-.2-.1h0Z"/><path class="cls-1" d="M27.4,32.34v-.1h.1c-.1-.1,0,0-.1,.1q0-.1,0,0Z"/><path class="cls-1" d="M71,.94c0,.1-.1,.1,0,0-.1,.1-.2,0-.2,0h.2Z"/><path class="cls-1" d="M24.8,32.34h-.1v-.1s0,0,.1,.1h0Z"/><path class="cls-1" d="M22.7,31.34l.1,.1h-.1v-.1h0Z"/><path class="cls-1" d="M70.1,.84q0-.1,0,0v-.1q.1,0,0,.1,.1-.1,0,0Z"/><path class="cls-1" d="M66.7,1.84v-.1h.2q-.1,0-.2,.1Z"/><path class="cls-1" d="M8.3,2.84q-.1,0,0,0c-.1-.1,0-.1,0-.1t0,.1c0-.1,0,0,0,0Z"/><path class="cls-1" d="M69.8,.44q-.1-.1,0,0c-.1-.1,0-.1,0-.1,0-.1,0,0,0,.1q0-.1,0,0Z"/><path class="cls-1" d="M39.6,31.04h.5l-.1,.2c.2,.1,.2-.2,.4-.1s.3-.2,.5,0c0,.1-.1,.2-.2,.3-.1,0-.2,0-.3-.1-.2,.1-.4,.3-.5,.5v-.3h-.5c0-.2,.5-.2,.2-.5Z"/><path class="cls-1" d="M98.8,32.44s-.1,.1-.1,0c-.1-.1-.2-.1-.3,0-.1,0-.2,0-.3-.1-.1,0-.1-.1-.1-.2,.1-.2,.3-.2,.4,0,.2,0,.3,.1,.4,.3Z"/><path class="cls-1" d="M100.8,32.74l-.2-.2c-.1-.1,0-.3,.1-.3,.1-.1,.2,0,.3,0,.1,.1,.2,.2,0,.3,.1,.1-.1,.2-.2,.2h0Z"/><path class="cls-1" d="M123.3,10.24c.1,.2,.1,.4,.1,.6,0,.1,0,.2,.1,.3-.3,.1-.2,.4-.6,.4,.2-.1,.3-.2,.3-.4,0-.1,.1-.2,.2-.3,0-.1,0-.2-.1-.4-.1-.1,0-.1,0-.2Z"/><path class="cls-1" d="M123.7,16.34c0-.2,.2-.2,.5-.4v.2c0,.1-.1,.3-.1,.4s-.1,.1-.2,.1c-.1,0,.1-.2-.2-.3Z"/><path class="cls-1" d="M124.3,21.74l-.1,.5-.5-.1c0-.3,.4-.2,.6-.4Z"/><path class="cls-1" d="M123.9,9.84l.4,.4v.1h-.2l-.3-.3s0-.1,.1-.2h0Z"/><path class="cls-1" d="M95.8,32.14c-.1,0-.2-.1-.2-.2s.2-.2,.3-.2,.2,.1,.2,.2c-.1,.2-.2,.2-.3,.2h0Z"/><path class="cls-1" d="M75.2,31.54c-.2-.3-.2-.5,0-.6,.1,.2,.1,.4,0,.6Z"/><path class="cls-1" d="M101.8,31.14c-.1,.1-.2,.1-.3,.2l-.2-.1c0-.1,.1-.2,.3-.2,0,0,.1,0,.2,.1Z"/><path class="cls-1" d="M98.6,31.04c0-.2,.1-.2,.2-.2s.2,0,.2,.1-.1,.2-.2,.1h-.2Z"/><path class="cls-1" d="M122.2,19.04c-.1-.2,0-.5,.2-.6,.1,.2,0,.4-.2,.6Z"/><path class="cls-1" d="M122.9,12.14l.3-.4c.1,.2,.1,.3-.3,.4Z"/><path class="cls-1" d="M123.8,12.14c.1,.1,.3,.2,.4,.3v.1c-.4,0-.4-.2-.4-.4h0Z"/><path class="cls-1" d="M100.6,30.74c.1,.1,.2,.1,.2,.1,0,.1-.1,.1-.2,.1s-.1-.1-.1-.1l.1-.1Z"/><path class="cls-1" d="M123.7,13.94q.3,.2,.1,.5l-.1-.5Z"/><path class="cls-1" d="M122.8,13.64c.2,.1,.4,.1,.5,.3l-.5-.3h0Z"/><path class="cls-1" d="M123.9,18.54l-.1-.2h.1l.2,.2h-.2Z"/><path class="cls-1" d="M122.6,19.34c.2-.1,.4-.2,.6-.1-.2,.1-.4,.1-.6,.1Z"/><path class="cls-1" d="M100,31.94l.3,.1q-.2,.1-.3-.1Z"/><path class="cls-1" d="M122.5,27.44l.1-.3h.1v.1q.1,.1-.2,.2Z"/><path class="cls-1" d="M38.9,32.54l.2-.1q0,.2-.2,.3v-.2h0Z"/><path class="cls-1" d="M94.6,31.84l.2,.2-.1,.1c-.1,0-.1-.1-.2-.1-.1-.1,0-.1,.1-.2Z"/><path class="cls-1" d="M122.4,12.54c0-.1-.2-.2,0-.4,.1,.2,.2,.3,0,.4Z"/><path class="cls-1" d="M123.1,21.74l.2-.4h.1l-.2,.4h-.1Z"/><path class="cls-1" d="M122.2,19.24c-.1,.2,0,.3-.2,.4,0-.2,0-.3,.2-.4Z"/><path class="cls-1" d="M40.2,32.04c-.1-.1-.2,0-.2,0,0-.1,.1-.1,.1-.2,.1,0,.1-.1,.2-.1,.1,.2,.1,.3-.1,.3Z"/><path class="cls-1" d="M122.2,24.94l-.1,.4h-.1l.2-.4h0Z"/><path class="cls-1" d="M38.9,32.14l.4,.1-.1,.1c-.2,0-.3-.1-.3-.2h0Z"/><path class="cls-1" d="M98,31.44l-.1,.1-.1-.1,.1-.1,.1,.1Z"/><path class="cls-1" d="M122.2,21.44h0c.1,.1,.1,.2-.1,.2h-.1c-.1-.1,0-.2,.2-.2Z"/><path class="cls-1" d="M104.8,31.24c0-.1-.1-.1-.1-.1l.1-.1,.1,.1s-.1,0-.1,.1Z"/><path class="cls-1" d="M122.4,14.44v-.3q.1,.1,0,.3Z"/><path class="cls-1" d="M42,31.54h-.2l.3-.2-.1,.2h0Z"/><path class="cls-1" d="M124.1,24.64q-.1,.2-.3,0h.3Z"/><path class="cls-1" d="M113.2,32.64l-.2,.1-.1-.1,.1-.1c.1,.1,.2,.1,.2,.1Z"/><path class="cls-1" d="M118.1,31.64c-.1-.1,0-.3,.1-.4,.1,.2-.1,.3-.1,.4h0Z"/><path class="cls-1" d="M44.1,31.94l.2-.2h.1l-.3,.2h0Z"/><path class="cls-1" d="M121.9,13.74v-.3h.1v.3h-.1Z"/><path class="cls-1" d="M42.3,31.94h.2l-.2,.2h-.1l.1-.2Z"/><path class="cls-1" d="M92.3,31.04h-.2s-.1,0-.1-.1c0,0,0-.1,.1-.1l.2,.2Z"/><path class="cls-1" d="M41.8,32.04c0,.1,0,.2-.2,.2-.1-.1,0-.2,.2-.2Z"/><path class="cls-1" d="M122.8,14.84v-.3q.1,0,0,.3Z"/><path class="cls-1" d="M123.6,24.04h.2v.1l-.2-.1h0Z"/><path class="cls-1" d="M121.7,14.24l.1-.3h.1v.3h-.2Z"/><path class="cls-1" d="M102,32.64l-.1,.1-.1-.1,.1-.1,.1,.1Z"/><path class="cls-1" d="M102.4,30.94c0,.1-.1,.2-.3,.1l.3-.1Z"/><path class="cls-1" d="M93.8,32.54c-.1,0-.1,.1-.1,.1,0,0-.1,0-.1-.1,0,0,0-.1,.1-.1,0,.1,.1,.1,.1,.1Z"/><path class="cls-1" d="M120.3,27.64v.2h-.1l.1-.2h0Z"/><path class="cls-1" d="M123.9,20.64h-.1s-.1,0-.1-.1h.1s0,.1,.1,.1Z"/><path class="cls-1" d="M46.9,31.64l.2-.2q0,.2-.2,.2Z"/><path class="cls-1" d="M44.4,32.34l-.2,.1c-.1-.1,0-.2,.2-.1h0Z"/><path class="cls-1" d="M123.5,11.34v.2h-.1l-.1-.1,.2-.1Z"/><path class="cls-1" d="M43.9,32.64h.3c-.1,.2-.2,.1-.3,0Z"/><path class="cls-1" d="M101.7,31.54v-.1h.1l-.1,.1h0Z"/><path class="cls-1" d="M42,31.54l.1,.1-.3,.1c.1-.1,.2-.1,.2-.2h0Z"/><path class="cls-1" d="M93.3,31.94c0,.1,.1,.1,.1,.1l-.1,.1q-.1-.1,0-.2-.1,0,0,0Z"/><path class="cls-1" d="M37.1,32.04c.1,0,.2,0,.2,.2l-.2-.2h0Z"/><path class="cls-1" d="M101.3,31.84q0-.1,0,0-.1-.1,0-.2s.1,0,.1,.1,0,0-.1,.1Z"/><path class="cls-1" d="M120.5,28.14l-.1,.3q-.1-.2,.1-.3Z"/><path class="cls-1" d="M123.3,15.34l-.2,.2q0-.1,.2-.2Z"/><path class="cls-1" d="M123.8,23.74h.2v.1l-.2-.1h0Z"/><path class="cls-1" d="M41.7,30.94l.2,.1q-.2,.1-.2-.1h0Z"/><path class="cls-1" d="M123.7,23.34h-.1s-.1,0-.1-.1h.1q.1,0,.1,.1Z"/><path class="cls-1" d="M96.6,31.34h-.1l-.1-.1q.1,.1,.2,.1h0Z"/><path class="cls-1" d="M122.9,14.24l-.2-.1q.2-.1,.2,.1Z"/><path class="cls-1" d="M44.4,32.04l-.1,.1-.1-.1h.2Z"/><path class="cls-1" d="M38.9,32.54c-.1,0-.2,0-.2-.1,.1,0,.2,.1,.2,.1h0Z"/><path class="cls-1" d="M92.5,32.64h-.1q0-.1,.1,0c-.1-.1,0-.1,0,0Z"/><path class="cls-1" d="M93.9,2.04c-.2-.2-.2-.4-.2-.6v-.4c0-.2,.1-.3,.2-.3,.2,0,.4,0,.6,.2l-.4,.1c0,.2,0,.5,.2,.7h-.3v.3h-.1Z"/><path class="cls-1" d="M90.5,.54c.2,.1,.2,.3,.1,.4,0,0-.1,.1-.1,0l-.1-.1s0-.2,.1-.3Z"/><path class="cls-1" d="M94.9,.64l.1,.6h-.2c-.1-.1-.1-.4,0-.5l.1-.1Z"/><path class="cls-1" d="M95.3,2.14c-.1,0-.1-.1-.1-.1v-.2h.1c0,.1,.1,.1,.1,.2l-.1,.1h0Z"/><path class="cls-1" d="M116.2,1.54c.1,.2,0,.3-.2,.4q0-.2,.2-.4Z"/><path class="cls-1" d="M99.3,1.84l-.1-.1,.1-.1,.1,.1s-.1,0-.1,.1Z"/><path class="cls-1" d="M89.1,.44c.2-.1,.3,0,.4,.1-.1,.1-.3,0-.4-.1Z"/><path class="cls-1" d="M90.5,1.64v.3c-.2-.1-.2-.2,0-.3Z"/><path class="cls-1" d="M102.1,.34c-.1,.1-.2,.1-.3,0v-.1c.1,0,.2,0,.3,.1Z"/><path class="cls-1" d="M89.7,1.74c-.2,0-.2-.1-.1-.2h.1c.1,0,.1,.1,0,.2Z"/><path class="cls-1" d="M97.8,.74h-.2v-.1s.1,0,.2,.1h0Z"/><path class="cls-1" d="M91.4,1.14s-.1,.1-.2,.1c0,0-.1,0-.1-.1l.1-.1q.1,.1,.2,.1Z"/><path class="cls-1" d="M88.7,1.64c-.1,0-.1-.1-.2-.1h0l.2,.1h0Z"/><path class="cls-1" d="M91.4,.34h-.2v-.1l.2,.1h0Z"/><path class="cls-1" d="M121.5,4.64l.2-.1,.2,.2c-.1,.2-.2,.3-.2,.5s-.1,.3-.1,.5c-.3-.1-.1-.3-.3-.4l-.1,.2h0v-.3c0-.1,.1-.1,.1-.1,.2-.1,.2-.2,.2-.2-.2-.1,0-.2,0-.3h0Z"/><path class="cls-1" d="M122,7.04c-.2,0-.3-.1-.2-.2,.1-.2,.2-.5,.2-.7q.2,.2,0,.9Z"/><path class="cls-1" d="M121.5,3.94v.8h-.1c-.2-.2-.1-.5,0-.6q0-.2,.1-.2h0Z"/><path class="cls-1" d="M121.1,4.84c.1,.2,0,.4-.2,.5h-.1l.3-.5Z"/><path class="cls-1" d="M122.3,7.64c-.1-.3,0-.3,.3-.4l-.3,.4Z"/><path class="cls-1" d="M121.5,3.94c.1,0,.3,0,.3,.1s0,.2-.1,.3c-.1-.2-.2-.3-.2-.4h0Z"/><path class="cls-1" d="M121.3,7.04l.1-.1q.2,.1,.2,.2l-.3-.1Z"/><path class="cls-1" d="M122.2,7.14c-.1-.1-.1-.2,.1-.3l-.1,.3h0Z"/><path class="cls-1" d="M122.1,7.84l-.1,.2q-.1-.2,.1-.2Z"/><path class="cls-1" d="M122.6,5.04l-.2,.2q0-.1,.2-.2Z"/><path class="cls-1" d="M121.8,4.24v-.3c.2,.1,.2,.2,0,.3Z"/><path class="cls-1" d="M122.6,4.64l-.2,.2c0-.1,.1-.1,.2-.2h0Z"/><path class="cls-1" d="M121.7,8.44l.2-.2v.1c0,.1,0,.2-.2,.1Z"/><path class="cls-1" d="M121.7,8.14s0,.1-.1,.1h-.1c.1,0,.1-.1,.2-.1h0Z"/><path class="cls-1" d="M118.8,3.74l-.1-.1c.1-.1,.1-.3,.1-.4,0,0,.1-.1,.1-.2h.1c0,.1,.1,.1,.1,.2-.1,.2-.2,.3-.3,.5h0Z"/><path class="cls-1" d="M117.7,1.94l.1-.2h.1l-.2,.2h0Z"/><path class="cls-1" d="M84.6,2.14c-.1-.1,.1-.2,.2-.2q.1,.2-.2,.2h0Z"/><path class="cls-1" d="M83.1,2.14h.3q-.2,.2-.3,0h0Z"/><path class="cls-1" d="M86.8,1.54c0,.1,.1,.1,0,.1s-.2,0-.1-.1c-.1-.1,0,0,.1,0h0Z"/><path class="cls-1" d="M86.9,.54l-.1-.1h.1v.1h0Z"/><path class="cls-1" d="M86.8,1.54l.2-.2q0,.2-.2,.2h0Z"/><text class="cls-3" transform="translate(22.3 15.82)"><tspan x="0" y="0">適用於 </tspan><tspan class="cls-4" x="42.25" y="0">A</tspan><tspan x="51.41" y="0">C v7,</tspan><tspan x="11.62" y="13">v8 &amp; </tspan><tspan class="cls-4" x="44.37" y="13">A</tspan><tspan x="53.53" y="13">CS</tspan></text></svg>