<?xml version="1.0" encoding="UTF-8"?><svg id="Layer_1" xmlns="http://www.w3.org/2000/svg" width="124.45" height="32.75" viewBox="0 0 124.45 32.75"><defs><style>.cls-1{fill:#818181;}.cls-2{fill:#666;font-family:MicrosoftJhengHeiBold, 'Microsoft JhengHei';font-size:15px;}</style></defs><g id="Layer_2"><g id="Layer_1-2"><path class="cls-1" d="M30.31,32.02c.23,.06,.29,.11,.25,.27-.02,.09-.05,.18-.09,.28l-.58,.16c0-.1,.01-.17-.02-.23-.07-.07-.15-.13-.24-.18l-.42,.19,.15,.18c-.32,.04-.64,.05-.95,.02,.17-.21,.41-.12,.69-.1l-.26-.33c-.08,.03-.16,.06-.25,.07-.09-.01-.17-.03-.25-.07l-.06,.26c-.11-.08-.17-.23-.38-.14v.31h-2.17c-.07-.09-.11-.2-.21-.25-.07-.04-.21,0-.33,.01q-.03,.16,.23,.19-.16,.07-.6,.07c-.22,0-.45,0-.67,0-.22,0-.43-.02-.63-.03l-.13-.4c-.14,.1-.17,.28-.07,.42h0c-.58,.01-1.13,.02-1.68,0-.16,0-.31-.02-.47-.06-.24-.06-.46-.15-.74-.24l-.14,.09c.15,0,.28,.09,.35,.21h-4.02c-1.19,0-2.37-.02-3.56,0-1.4,.02-2.8-.11-4.18-.38-2.39-.41-4.6-1.53-6.35-3.21-.78-.7-1.4-1.56-1.81-2.52-.47-1.11-.72-2.3-.74-3.5,.04-2.4,.01-4.81,.01-7.21,0-1.74,0-3.47,0-5.21,0-.37,.09-.73,.27-1.06,.13-.28,.16-.59,.1-.89l-.32-.05s-.02-.05-.02-.08c.2-1.57,.84-3.06,1.85-4.28,.07,.17,.07,.37-.02,.54-.03,.07-.07,.16,.07,.18,.08-.01,.15-.06,.19-.13,.1-.21,.18-.42,.24-.64,.02-.1-.05-.21-.08-.34,1.19-1.3,2.68-2.29,4.33-2.91-.03,.1-.05,.21-.04,.32,.03,.07,.09,.13,.16,.16,.13,.03,.16-.06,.17-.14,0-.09,0-.19,0-.28,0-.14,.09-.2,.31-.21l.1,.43h.07c.07-.1,.13-.22,.19-.34,.1-.24,.33-.4,.59-.41,.17-.02,.33-.06,.5-.1,.02,.12,.05,.23,.06,.34,.01,.13,.06,.27-.18,.35-.18,.06-.06,.21-.06,.36,.12-.09,.2-.17,.3-.24,.14-.09,.24-.22,.29-.38,.08-.19,.18-.36,.29-.54,.73-.2,1.48-.29,2.23-.29,.01,.02,.03,.03,.03,.05,.02,.09-.09,.23,.12,.24,.18,0,.11-.14,.15-.22,.01-.03,.03-.05,.05-.09h4c.16,.15-.02,.4,.32,.49l-.04-.49c.11,0,.2-.02,.28-.02,.64,0,1.29,0,1.93,0,.17,0,.36-.02,.42,.21,.26-.19,.6-.27,.92-.21,14.03,0,28.06,0,42.09,0,1.32,0,2.65,.01,3.97,.02,.3,0,.59,0,.91,0,.04,.07,.1,.14,.16,.2,.04,.03,.14,.02,.23,.04,.09,.07,.04,.27,.35,.21-.07-.08-.17-.14-.18-.21,0-.07,.07-.15,.12-.25,.46,.02,.95-.02,1.44,.02,.07,.01,.14,.04,.21,.08,.21-.04,.37-.08,.54-.09,.2-.02,.39,0,.59,0,.17-.02,.34,.01,.47,.11,.12,.06,.26,.09,.39,.08l.02-.06-.21-.1h.27l.06,.21,.23-.12,.02,.17-.32,.13,.44,.11c.02,.3-.39,.5-.25,.82,.35-.02,.21-.41,.58-.4l-.12-.2,.72-.05s.05-.08-.03-.15c-.07-.07-.18-.08-.26-.01-.11,.08-.22,.06-.37,0l.21-.48c.19-.09,.42,0,.51,.18l.1-.27,.08,.06s.06,.01,.06,.02c.01,.04,0,.1,.02,.13,.16,.11,.14,.25,.11,.39-.01,.12-.01,.23,0,.35,.26,.19,.46,.03,.68-.06l-.45-.42c.22-.18,.47-.09,.7-.12,.2-.04,.4-.08,.6-.15,.07,.19,.14,.37,.22,.56,.03,.05,.14,.07,.24,.12,.01-.13,.04-.25,.08-.37,.07-.1,.16-.2,.26-.28l.18,.18c.13,0,.16-.14,.07-.34h.37c-.07,.14-.13,.26-.18,.38-.03,.06-.05,.13-.05,.21,0,.05-.04,.1-.09,.1-.02,0-.04,0-.06-.02-.16-.13-.23,.01-.38,.02l.13,.13-.18,.16-.19-.07-.05,.24h-.06l-.22-.41-.32,.19c.05,.19,.02,.4-.08,.56q-.13-.09-.26,0h.27c-.11,.05-.15,.12-.08,.22,.04,.06,.08,.13,.11,.19h0l-.37-.04s0-.04,0-.06c0-.02-.01-.05-.03-.07-.04,0-.07,0-.08,0q-.18,.18-.61,.35l-.14-.15c-.13,.16-.28,.28-.5,.09-.03-.03-.14,0-.2,0-.08,0-.17-.02-.25-.04-.26-.08-.26-.08-.39,.12-.25-.05-.55,.11-.73-.11l-.45,.13c-.03-.23,.17-.3,.32-.39,.1,.01,.17,.12,.31,0,.15-.06,.31-.1,.47-.11-.01-.11-.04-.2-.25-.19-.15,0-.3,0-.45-.03l.07,.25-.16,.07c-.1-.2-.16-.24-.38-.18-.11,.03-.22,.07-.34,.12l.07,.36c-.19,.02-.36,.04-.54,.04-.55,0-1.1,0-1.66,0-.07,0-.19,.03-.13-.09,.09,0,.18,.01,.27,.02,.04-.1,0-.15-.13-.15-.14,0-.17,.05-.13,.14-.09-.05-.21-.06-.3-.01-.31,.12-.66,.14-.97,.03-.04-.01-.11-.03-.13-.02-.13,.14-.32,.07-.48,.08-.43,0-.86,0-1.34,0l.27-.47,.15,.19,.06-.16-.62-.22c-.05,.17-.08,.31-.13,.43-.08,.22-.09,.23-.41,.23-1.16,0-2.33,0-3.49,0H21.76l-.09-.56c-.28,.17-.08,.37-.21,.54H13.09c.03-.21,.05-.41,.08-.61,.02-.14,.05-.28,.07-.41,.02-.16-.03-.21-.26-.34-.16,.04-.26,.2-.24,.37,.02,.33,0,.65,0,1.02-.09,0-.22,0-.35,0-.74,0-1.48,.04-2.21,.14-.29,.02-.57,.08-.84,.18-.05,.01-.1,.02-.15,.02l-.34-.51c-.22-.02-.16,.21-.33,.23,.03,.09,.05,.17,.07,.26,0,.14-.06,.24-.25,.3-.33,.11-.64,.24-.97,.36l-.24-.23c.01,.46-.42,.56-.75,.74-.19-.24,.22-.45,0-.69-.34,0-.22,.23-.3,.36-.1,.16-.08,.35,.03,.5l-.42,.3-.2-.13s-.06,.06-.06,.08c.02,.19-.11,.33-.27,.47-1.25,.99-2.07,2.42-2.28,3.99-.03,.28-.05,.56-.05,.84,0,4.18,0,8.36,0,12.54,0,.55-.02,1.1,0,1.65,.14,2.96,1.98,5.1,5.51,6.4,.18,.08,.36,.16,.55,.21,1.04,.24,2.1,.37,3.16,.4,2.52-.01,5.05,0,7.57,0,.97,0,1.95,.02,2.92,.02,.27,0,.54-.02,.84-.03,.06,.15,.13,.3,.2,.44,.06,.14,.2,.23,.36,.22,.21-.23-.1-.42-.14-.64h3.39l-.19,.27,.36-.06c.08,.16-.05,.45,.41,.41,.02-.07,.06-.14,.11-.19,.16-.15,.35-.29,.52-.43,0,0,.05,0,.09,.01-.03,.15-.09,.32,.17,.43l.18-.07,.02-.39c.43,0,.86,.02,1.28,.07,.06,0,.12,0,.17-.03,.19-.07,.41-.05,.59,.06,.09,.05,.21,.06,.31,0,.2-.1,.43-.12,.65-.07l-.13,.11c.04,.1,.07,.2,.12,.29,.04,.09,.1,.18,.16,.29l-.15,.23c-.03-.07-.07-.13-.12-.19-.05-.04-.11-.08-.18-.11-.19,.12-.39,.23-.56,.35-.07,.05-.06,.11,.03,.17,.26,.14,.25,.18-.04,.35-.03-.1-.07-.19-.12-.29-.05-.09-.11-.17-.18-.25l.18-.08-.38-.3-.08,.37-.42-.23c-.09,.2-.15,.37-.24,.52-.04,.06-.13,.11-.23,.18,.12-.01,.21-.03,.3-.04,.09,0,.18,0,.18,.1-.05,.15-.07,.29,.22,.35l-.22-.35c.06,.03,.13,.06,.19,.07,.05,0,.1-.02,.14-.05,.01-.02-.04-.07-.06-.1h0ZM71.99,1.18l.22,.26,.03-.19c.09,.06,.21,.06,.3,0-.06-.07-.11-.14-.17-.21,.1,.06,.23,.04,.32-.05-.16-.12-.23-.03-.31,.05h-.26l-.13,.13ZM28.52,31.75c.01-.06,.02-.12,0-.19,0-.03-.08-.05-.12-.08-.03,.04-.1,.09-.09,.12,.01,.08,.07,.16,.22,.13l-.05,.1c.19,.07,.23,.23,.38,.35,.12-.09,.2-.17,.03-.26-.12-.06-.24-.12-.36-.18Zm-2.18,.44s.11-.06,.11-.07c-.02-.09-.09-.16-.25-.19l.05,.21c-.22-.06-.09-.25-.22-.35-.17,.1-.29,.25-.2,.31,.16,.14,.35,.23,.56,.28l-.04-.18ZM69.79,1.04l-.21,.15,.28,.23-.08-.38c.1-.06,.31-.04,.3-.2,0-.15-.2-.17-.32-.24-.11-.06-.26-.03-.33,.08,.06,.1,.13,.21,.2,.3,.02,.03,.1,.03,.15,.05h0Zm-54.47,.01l.21-.07c-.05-.19-.1-.37-.16-.55-.03-.08-.07-.16-.12-.23-.07-.08-.18-.09-.26-.02-.01,.01-.02,.02-.03,.03-.02,.04-.04,.09-.03,.14-.02,.19,0,.37,.03,.56,.05,.17,.03,.37,.25,.5,.21-.09,.04-.23,.13-.35Zm13.75,29.81c.15,.24,0,.54,.28,.75q-.22,.22-.03,.4c.03-.2,.26-.16,.41-.22-.04-.09-.1-.16-.09-.22,.05-.34-.28-.51-.56-.7ZM2,11.48c.27-.41,.41-.69,.17-.93-.06,.06-.15,.12-.16,.17-.08,.24-.08,.51-.01,.75ZM68.45,.13c-.25,.21-.29,.32-.14,.4,.1,.06,.24,.03,.31-.06,.13-.13,.09-.22-.17-.34ZM20.97,32.18l.11,.04,.38-.24c-.05-.18-.19-.24-.37-.23l-.11,.43ZM68.77,2.11c.16-.21-.05-.29-.17-.39l-.33,.1v.04l.26,.03c.02,.1,0,.23,.24,.22Zm-.23-1.38c.09,.07,.19,.12,.3,.16,.09,0,.18-.02,.25-.07,.04-.04,.04-.1,.01-.15-.06-.04-.14-.06-.22-.06-.12,.03-.24,.06-.35,.11ZM1.85,12.01h-.09c-.07,.1-.14,.23-.19,.36-.01,.04,.07,.1,.11,.15,.06-.04,.16-.07,.16-.11,.01-.13,.02-.26,0-.39ZM21.34,31.01c.1,.15,.07,.35,.38,.33-.03-.25-.05-.26-.38-.33h0Zm-4.07,.92c0-.21-.08-.29-.38-.35,.05,.18,.2,.31,.38,.35h0Zm-.65-30.49c.02-.06,.02-.12,.02-.17-.02-.05-.08-.13-.13-.13-.14,0-.13,.09-.11,.16,.02,.08,.05,.17,.22,.14Zm7.56,29.83c.04,.12,.1,.22,.26,.18,.05-.03,.08-.09,.07-.15-.07-.12-.18-.13-.33-.03h0ZM73.36,1.95v-.28l-.5,.16,.5,.12Zm.58-.95c.2-.16,.13-.3-.15-.37l.15,.37Zm-4.71,.28l.07-.05c-.05-.07-.11-.13-.17-.19-.06-.01-.13,0-.18,.03-.02,.05-.01,.1,.03,.14,.08,.03,.17,.06,.25,.07h0ZM7.11,2.06c.25-.09,.26-.12,.12-.36-.13,.06-.19,.21-.13,.34v.03Zm10.3-.28l-.16-.11s-.11,.07-.11,.11,.07,.08,.11,.11l.16-.11Zm-2.95,29.78l.07-.07-.39-.24c.08,.12,.08,.3,.31,.31h0Zm9.02,.11l-.02,.06c.08,.03,.16,.07,.23,.12,.11,.08,.17,.08,.24-.06l-.45-.13Zm3.66-.4h.12c.06-.09,.09-.19-.12-.34v.34ZM1.27,9.08h-.11c-.04,.07-.06,.15-.08,.22,0,.03,.06,.06,.09,.1,.03-.02,.09-.04,.1-.06,0-.09,0-.17,0-.26ZM69.94,1.84c-.18-.04-.31-.07-.44,.03,.15,.15,.27,.12,.44-.03ZM20.74,1.08c-.08-.05-.13-.11-.18-.11-.05,0-.1,.06-.15,.09,.04,.03,.07,.08,.11,.08,.07-.01,.14-.03,.21-.06Zm5.45,29.97l-.35-.06,.17,.26,.18-.2ZM70.6,.26l-.32,.14q.26,.14,.32-.14ZM11.73,.99h-.09c-.04,.1-.07,.2,.09,.35v-.35ZM31.38,31.03l.05,.04c.07-.02,.15-.04,.21-.08,.03-.02,.01-.08,.02-.12-.05,0-.12-.01-.15,0-.05,.04-.1,.09-.13,.15ZM7.6,1.7h.09c.1-.07,.13-.14-.07-.24l-.02,.24Zm17.18,30.94l.11-.03-.12-.25c-.15,.15-.09,.22,.01,.28ZM69.04,1.67l-.04,.09c.13,0,.2,.13,.44,.03l-.4-.12Zm3.56,.05l.07-.07-.24-.13c-.06,.18,.05,.19,.17,.19h0ZM25.55,31.58q-.05-.22-.33-.15l.33,.15ZM70.65,1.37c-.18-.05-.29-.04-.32,.1,.11,.06,.25,.03,.32-.08v-.02Zm-1.66,.07l-.06-.08-.19,.07,.08,.11,.17-.1Zm4.29-.23l.16,.16s.11-.06,.1-.09c0-.09-.1-.11-.26-.08h0ZM19.28,30.77c-.07-.04-.11-.08-.15-.08-.04,0-.08,.05-.12,.08,.04,.03,.07,.08,.12,.08,.04,0,.08-.04,.15-.08Zm7.4-.14c-.17,.04-.21,.11-.12,.24,.14-.06,.18-.12,.12-.24ZM9.94,2.18l.2-.12q-.22-.05-.2,.12ZM29.49,30.95q.19,.05,.3-.07l-.3,.07ZM73.49,1.67c.14,.13,.22,.07,.29,0h-.29Zm-4-.29q.03,.15,.23,.18l-.23-.18ZM20.03,31.71c-.06,.13-.02,.18,.18,.17l-.18-.17Zm10.84-.7s.09-.07,.09-.09c-.02-.04-.07-.06-.1-.09-.04,.03-.1,.06-.1,.08,0,.03,.06,.06,.12,.1Zm-1.79,.67c.14-.05,.14-.12,.04-.19-.03-.01-.06-.02-.1,0-.1,.08-.07,.15,.05,.2h0Zm-9.62-.02l.08-.06-.25-.16-.06,.05,.23,.17ZM67.3,1.21l.03-.06c-.07-.06-.14-.1-.25,.01l.23,.05ZM28.52,31.22c-.06-.02-.1-.05-.13-.05s-.07,.05-.07,.07c.02,.03,.05,.05,.09,.06,.03,0,.06-.04,.11-.08ZM68.27,1.7h.08s.01-.08,0-.11c-.03-.03-.07-.05-.11-.07l-.04,.02,.08,.15Zm2.32-.57l.06-.08-.25-.07-.03,.05,.22,.1Zm2.11-.73c-.02,.07-.05,.1-.04,.13,0,.02,.04,.04,.06,.06,.03-.02,.08-.05,.08-.07s-.04-.05-.1-.11ZM21.11,32.53c.12,0,.21-.03,.18-.19l-.18,.19ZM6.8,2.38c-.05-.03-.11-.05-.16-.06-.03,0-.06,.02-.09,.04,.03,.02,.05,.06,.08,.07,.06,0,.12-.02,.17-.04Zm-.44,28.31s.08-.06,.08-.08c0-.03-.03-.05-.06-.06-.03,0-.05,.01-.08,.03,.01,.04,.03,.07,.06,.11Zm19.99,1.8l-.11,.07s.06,.06,.09,.06c.03,0,.07-.03,.1-.05l-.08-.09Zm-8.05-1.42l.08-.04-.14-.12-.05,.03,.11,.13ZM66.53,1.76l-.06,.06c.05,.03,.1,.05,.16,.07l.03-.04s-.09-.06-.14-.1ZM31.15,30.91s-.06,.05-.08,.09c0,.01,.06,.05,.07,.04,.03-.01,.06-.04,.09-.07,0,0-.04-.03-.08-.06Zm-11.57,.25l.07-.05-.15-.1-.05,.04,.13,.11Zm11.04-.02l.11-.02-.07-.15-.08,.02,.04,.15Zm-4.21,.17h.11l-.04-.18h-.09l.02,.18Zm-.88,.81s.09-.07,.1-.1c0-.01-.04-.05-.06-.05-.04,0-.1,.02-.1,.04,0,.03,.03,.06,.07,.11h0Zm-5.64-.81l-.08,.04,.13,.13,.06-.03-.11-.14ZM73.74,1.34c.05,.02,.09,.05,.1,.05,.03-.02,.06-.04,.08-.07-.03-.01-.06-.05-.08-.04-.04,.02-.08,.04-.11,.06ZM3.29,4.52s-.06-.03-.1-.04c0,0-.04,.03-.04,.04,.01,.02,.03,.04,.05,.06l.09-.06ZM68.44,1.13s-.04,.04-.04,.04c.02,.02,.04,.04,.06,.06,.02-.02,.05-.04,.04-.05,0-.02-.04-.03-.07-.05Zm-.44,.08s.07-.05,.07-.07c0-.02-.04-.05-.06-.05-.03,0-.06,.02-.07,.05,0,.02,.04,.04,.06,.07h0Zm-44.98,.35l.06,.03s.04-.04,.05-.07l-.05-.02s-.04,.04-.06,.06Zm42.35-.66l.02,.06,.16-.03-.03-.06c-.05,0-.1,.02-.15,.03ZM27.37,32.16s.08-.05,.09-.07c0-.02-.02-.05-.03-.07-.03,0-.08,.01-.08,.03,0,.04,0,.08,.02,.12ZM71.01,.84s-.1-.02-.15-.03c-.01,0-.04,.04-.03,.04,.03,.03,.07,.05,.1,.06,.03-.02,.06-.05,.08-.07ZM24.84,32.16l-.08-.08s-.06,.03-.07,.04c0,.03,.01,.05,.04,.06,.02,0,.06,0,.11-.02Zm-2.15-1l-.05,.03,.09,.12,.08-.04-.12-.11ZM70.16,.69s.07-.06,.08-.09c0-.01-.04-.03-.06-.05-.03,.02-.06,.04-.08,.07,0,.01,.03,.04,.07,.08Zm-3.43,1.01c.08-.1,.12-.13,.11-.13-.02-.02-.05-.04-.08-.04-.02,0-.07,.02-.07,.04,0,.05,.02,.09,.05,.14ZM8.26,2.71s.04-.07,.04-.09c0-.02-.05-.03-.07-.04-.01,.02-.04,.05-.03,.07,0,.02,.03,.03,.07,.06ZM69.79,.27s.05-.06,.06-.1c-.02-.02-.05-.03-.08-.03-.03,.02-.06,.04-.08,.07,0,0,.05,.03,.09,.06Z"/><path class="cls-1" d="M124.23,14.65c.16,.08,.24,.27,.2,.44-.01,.14-.02,.28-.03,.43l-.4-.07-.05,.06c.07,.07,.15,.13,.23,.19,.15,.06,.25,.22,.24,.38,0,.61,.03,1.21-.02,1.82-.02,.21,.02,.41,.02,.61v2.08h-.31l.13,.17,.16-.06v1.63l-.43,.05c.14,.08,.21,.12,.29,.16,.12,.06,.21,.12,.12,.25-.03,.05,.03,.12,.03,.18,0,.24,0,.48,0,.72l-.41,.09,.37,.18c-.03,.46-.12,.92-.27,1.37-.06,.19-.13,.37-.19,.56-.19,.7-.51,1.35-.94,1.93-.73,1.02-1.64,1.89-2.68,2.58-.38,.25-.8,.47-1.2,.7l-.15-.19c-.07,.38-.43,.48-.75,.62-.02,0-.07-.03-.1-.05,0-.13,.21-.22,.11-.42-.1,.16-.17,.28-.1,.42-.54,.36-1.16,.59-1.8,.67-.93,.19-1.87,.34-2.82,.48-.45,.05-.91,.07-1.37,.06-2.24,0-4.47,0-6.71,0-1.4,0-2.79,0-4.19,0-.11,0-.22,0-.33-.01-.02,0-.02-.06-.03-.1,.12-.05,.24-.1,.36-.18,.14-.11,.11-.25-.03-.35-.09-.08-.23-.09-.33-.03-.13,.06-.2,.21-.14,.35,.05,.08,.1,.15,.16,.22-.26,.11-.54,.14-.81,.07-.07-.14,.16-.3-.06-.42-.08-.05-.14-.14-.31-.07,.2,.16,.1,.32-.04,.52h-.7c-2.31,0-4.63,0-6.94,0-1.6,0-3.19,0-4.79,0H48.04c-.19,.03-.39,0-.55-.11-.08-.04-.18-.05-.27-.02-.24,.15-.53,.19-.8,.13-.43-.03-.85,.01-1.28,0-1.25-.01-2.5,0-3.75,0-.05,0-.11-.01-.16-.02l.05-.18c-.14-.11-.35-.09-.47,.05l.3-.59,.23,.14c-.04-.22-.22-.4,0-.57-.29-.05-.41,.02-.49,.23-.1,.28-.2,.56-.3,.83-.02,.04-.05,.07-.08,.1-.29-.05-.6-.23-.92-.04,.01-.19,.11-.3,.26-.26,.13,.02,.26,.01,.38-.03q.3-.04,.33-.33h-.26l-.03-.14h0c.11-.06,.2-.14,.1-.26-.07,.03-.14,.07-.21,.12-.05,.05-.09,.1-.12,.15h0c-.14,.06-.2,.2-.41,.21-.05,0-.11,.09-.15,.15-.09,.13-.16,.27-.25,.42h-.35l-.13-.23-.17,.23-.16-.11c-.19,.1-.39,.21-.6,.02-.19,.12-.43,.15-.64,.06-.11-.18,.13-.29,.16-.45-.19-.02-.23,.11-.34,.15h0l.06-.32h-.36c-.16-.14-.06-.3-.05-.46,0-.14,.15-.3,.1-.41-.09-.18,.05-.29,.1-.43,.09,.05,.19,.08,.3,.09,.07,0,.12-.1,.18-.16,.16-.12,.38-.14,.56-.05l-.27,.08,.2,.34c-.19,.04-.19-.05-.23-.11-.05-.1-.17-.14-.26-.09h0c-.12,.04-.12,.12-.07,.19,.13,.18-.06,.31-.15,.46l-.05-.28c-.2,.15-.33,.28-.27,.5l.27-.07,.24,.14,.17-.3c.12,.1,.22,.16,.09,.29-.06,.09-.11,.18-.14,.29l.56,.03c.11-.1,.2-.2,.29-.32,.04-.07,.02-.16,.05-.23,.01-.04,.07-.07,.13-.12,.07,.39-.1,.65-.54,.81l.12,.32,.37-.04v-.44l.29,.1c.08-.05,.17-.11,.26-.17,0,.14,.1,.2,.26,.22,.04,0,.09-.06,.13-.1l-.39-.12c-.03-.07,0-.1,.1-.1,.2,.02,.4-.06,.51-.23-.23,0-.33-.26-.63-.1l.54-1.02,.74,.11,.04-.07c.36,.03,.72-.07,1.11,0l-.04,.5c.16-.09,.31-.18,.45-.26q0,.14,.17,.1l-.18-.09c.11-.24,.34-.05,.51-.07v.37c.37-.11,.31-.37,.45-.53,.37-.01,.73-.03,1.08-.03,.22,0,.44,.04,.65,.06,.05,0,.1,.03,.13,.02,.33-.09,.67-.11,1-.05,.35,.01,.71-.02,1.07-.02,7.78,0,15.56,0,23.34,0,5.63,0,11.26,0,16.88,0,.24-.04,.49,.03,.67,.19,.1-.14,.26-.21,.43-.19,1.94,0,3.88,0,5.82,0,.09,.06,.17,.16,.26,.17,.08,0,.18-.09,.34-.17,.75,0,1.59-.01,2.43,0,.39,0,.78,.08,1.17,.11,.11,.01,.21,0,.31-.02,.22-.07,.45-.1,.68-.1,1.1,0,2.2,0,3.3,0,.34,.02,.68,.02,1.02,0,.21-.03,.42,.04,.56,.19,.1-.19,.28-.2,.48-.2,1.13,0,2.25,0,3.38,0,.14,0,.28-.04,.36,.12,.04,.08,.2,.06,.28-.02,.07-.07,.18-.11,.28-.11,.66,0,1.31,.02,1.97,0,1.25,.04,2.49-.01,3.73-.17,1.97-.3,3.81-1.18,5.28-2.53,.59-.56,1.07-1.22,1.43-1.95,.39-.79,.57-1.67,.54-2.55,0-.28-.01-.56,0-.84,.02-.1,.06-.19,.11-.28-.16,0-.11-.12-.11-.21,0-.49,0-.97,0-1.46,0-.27,.06-.54,.06-.8,0-.19-.03-.39-.06-.58-.03-.13,.05-.27,.18-.3,.01,0,.02,0,.03,0-.21-.12-.21-.12-.21-.29,0-.4,.03-.8,.04-1.2,0-.15-.03-.3-.03-.45-.04-.18,.02-.37,.16-.5,.11-.09,.07-.12-.14-.17v-.28l.21,.03c.1-.16,.11-.36,.04-.54l-.21,.43c-.02-.07-.04-.14-.05-.21,0-.84,0-1.68,0-2.52,0-.12,.05-.24,.12-.34,.04-.06,.16-.09,.24-.14l.07,.03c0-.09,0-.18,0-.27-.02-.08,0-.16,.07-.2,.07-.05,.1-.14,.09-.23-.06-.15,.05-.23,.15-.32,.29-.29,.46-.67,.49-1.08,.02-.2,.08-.39,.16-.57,.08-.2,.22-.37,.4-.49l.05,.38h.06c.15-.22,.3-.44,.44-.67,.11-.18,.24-.18,.42-.01l-.21,.13,.02,.04,.27-.03c.02,.44,0,.87-.06,1.3-.01,.03-.02,.07-.01,.11,.05,.24,.05,.48,0,.72-.04,.38-.06,.77-.11,1.15,0,.03,0,.09,.03,.1,.2,.12,.15,.28,.15,.44,.05,.32-.01,.65-.18,.92-.06,.11-.1,.23-.1,.35,0,.04,.06,.09,.1,.13h0ZM42.01,31.44l-.12,.19,.26-.06-.14-.13,.02-.24-.27,.19,.03,.05c.08,0,.15,0,.23,0Zm-3.07,.98l-.16-.15c-.06,.15,.03,.17,.17,.14v.25c.19-.08,.25-.17,.23-.33-.1,.03-.17,.06-.24,.08h0Zm.7-1.49c.24,.27-.25,.25-.24,.43h.46l.05,.27c.17-.2,.27-.41,.52-.51,.09,.03,.19,.09,.26,.07,.12-.02,.2-.13,.19-.25-.2-.14-.28,.14-.47,.05-.18-.09-.2,.23-.41,.11l.09-.19-.45,.02Zm59.24,1.33c-.14-.12-.26-.22-.38-.32-.16-.14-.37-.14-.43,.02-.02,.1,.01,.2,.08,.28,.07,.09,.18,.12,.28,.07,.11-.05,.23-.05,.33,0,.03,.01,.09-.03,.12-.04h0Zm24.48-22.18c-.06,.1-.11,.15-.11,.19,.03,.12,.05,.23,.05,.35-.02,.12-.16,.23-.15,.34,.02,.17-.07,.29-.3,.42,.42-.03,.38-.35,.63-.4-.02-.1-.08-.21-.05-.29,.06-.2,.04-.42-.07-.61Zm.41,6.15c.29,.09,.09,.29,.21,.39,.11,0,.23-.01,.19-.12-.07-.15,0-.27,.06-.4,.01-.07,.01-.15,0-.22-.22,.12-.43,.18-.46,.35h0Zm.58,5.41c-.24,.15-.56,.08-.62,.34l.5,.15,.12-.49Zm-.38-11.92l-.08,.02c0,.08-.03,.16,0,.23,.07,.1,.16,.19,.26,.26,.05,.02,.11,.02,.16,0,.04-.03,.05-.08,.03-.12-.11-.13-.24-.26-.37-.39h0Zm-28.1,22.32c.11,.01,.21-.06,.22-.17h0c0-.11-.04-.19-.18-.21-.12-.01-.24,.06-.28,.17-.01,.09,.11,.2,.23,.21Zm-20.64-.59c.1-.19,.11-.41,.03-.61-.22,.15-.24,.3-.03,.61Zm26.57-.46c-.08-.05-.16-.09-.25-.12-.14-.02-.31,.09-.28,.17,.03,.06,.14,.15,.18,.14,.12-.05,.24-.11,.35-.19Zm-3.11-.08c.08,.04,.16,.06,.25,.08,.12,.01,.18-.05,.17-.14,0-.09-.08-.13-.2-.12-.11,.01-.22,.03-.22,.19Zm23.59-12.01c.16-.16,.23-.39,.21-.62-.18,.15-.26,.39-.21,.62Zm.63-6.88c.43-.09,.48-.18,.28-.45l-.28,.45Zm.9,.01l-.07,.06c.1,.13,.15,.3,.43,.36,0-.06,.04-.12,.02-.14-.11-.1-.24-.18-.37-.27Zm-23.16,18.58c-.06,.07-.13,.11-.14,.16,0,.03,.08,.09,.13,.1,.12,.01,.19-.05,.18-.13,0-.04-.09-.07-.17-.13Zm23.15-16.78l.07,.46q.19-.3-.07-.46Zm-.93-.34l-.06,.06,.52,.26c-.06-.2-.28-.24-.45-.32h0Zm1.11,4.9l.29-.06c-.06-.07-.13-.13-.2-.18-.02-.01-.09,.01-.14,.02l.06,.22Zm-1.36,.81c.21,.04,.43,0,.61-.13-.21-.03-.43,.01-.61,.13Zm-22.54,12.59c.1,.23,.1,.23,.33,.09l-.33-.09Zm22.51-4.49c.23-.06,.23-.06,.16-.17-.02-.04-.01-.09-.01-.14h-.06l-.09,.31Zm-28,4.42c-.05,.07-.12,.12-.11,.15,.02,.05,.1,.08,.15,.11,.04-.04,.13-.08,.12-.1-.02-.05-.09-.09-.16-.16Zm27.88-19.25c.15-.12,.08-.24,.03-.38-.27,.13,.02,.26-.03,.38Zm.67,9.16l.1,.03,.18-.44-.06-.02-.21,.43Zm-.92-2.47c-.2,.05-.23,.14-.24,.41,.22-.08,.1-.25,.24-.41Zm0,5.67l-.08-.03-.1,.42h.1l.08-.39Zm-24.2,6.48c-.07-.03-.11-.08-.15-.07-.04,0-.08,.05-.12,.08l.14,.1,.13-.11Zm24.16-9.98c-.15,.02-.22,.09-.18,.21,.02,.02,.05,.04,.09,.04,.15-.03,.16-.12,.12-.21,0,0-.01-.01-.03-.03Zm-17.4,9.79c.06-.06,.12-.1,.13-.15,0-.02-.07-.06-.11-.08-.04,.03-.1,.06-.12,.1,0,.03,.05,.07,.1,.13h0Zm17.66-16.8q.11-.16,0-.33v.33Zm1.68,10.19l-.28,.03c.13,.12,.22,.13,.28-.03h0Zm-10.88,8.07c-.05-.04-.11-.08-.17-.11-.01,0-.09,.05-.09,.06,.03,.05,.06,.09,.1,.12l.16-.08Zm-69.18-.79l.09,.07,.23-.25-.07-.04-.25,.22ZM121.96,13.55h.11v-.27h-.08l-.03,.27ZM42.31,31.79l-.03,.23,.07,.02,.21-.21-.24-.04Zm50-.88l-.2-.12s-.08,.06-.07,.08c.02,.04,.06,.07,.1,.08,.04,0,.09-.02,.17-.04h0Zm-50.54,.94c-.12,.05-.22,.11-.15,.24,.18-.04,.17-.14,.15-.24h0ZM122.81,14.66q.13-.23,0-.33v.33Zm.78,9.21v.08h.22s0-.08,0-.08c-.07,0-.14,0-.22,0h0Zm-1.82-9.82h.12l.04-.25h-.09l-.07,.25Zm-19.74,18.46l-.1-.09s-.08,.05-.1,.09c0,.02,.04,.05,.07,.08l.13-.08Zm.41-1.73l-.27,.13c.18,.07,.23,0,.27-.13Zm-8.57,1.66s-.1-.03-.15-.03c-.02,0-.06,.05-.06,.05,.02,.03,.05,.05,.09,.06,.03,0,.06-.04,.12-.08Zm26.45-4.94h-.07l-.04,.16h.06l.05-.16Zm3.57-6.99c-.06-.04-.1-.07-.13-.08-.03,0-.07,.03-.1,.05,.03,.02,.05,.06,.09,.07,.03,0,.07-.02,.15-.04ZM46.94,31.55q.18-.07,.16-.22l-.16,.22Zm-2.57,.64l-.06-.05c-.11,0-.18,.04-.17,.2l.22-.15ZM123.58,11.24l-.11,.02,.09,.15,.07-.02-.05-.15Zm-38.36,19.88s-.06-.05-.09-.05c-.02,0-.05,.03-.07,.05l.09,.07,.07-.06Zm-41.3,1.37c.12,.1,.21,.18,.31,.01h-.31Zm57.79-1.07h.1v-.15s-.06,0-.09,0c0,.05,0,.1,0,.15Zm-8.41,.34s-.09,.07-.09,.09c.01,.04,.04,.06,.08,.07,.03,0,.1-.03,.1-.05,0-.03-.04-.06-.08-.11Zm-56.23,.09l-.05,.04,.22,.17c.05-.17-.1-.16-.16-.2h0Zm64.31-.19s.09-.08,.08-.1-.06-.05-.1-.05c-.03,0-.06,.03-.07,.07,0,.02,.04,.05,.09,.09h0Zm19.14-3.69q-.17,.15-.12,.29l.12-.29Zm2.84-12.76c-.22,.03-.26,.08-.16,.2l.16-.2Zm.5,8.33v.06h.2v-.07l-.2,.02Zm-.08-.4s-.08-.05-.12-.07c-.02,0-.05,.03-.08,.04,.02,.03,.05,.05,.08,.07,.02,0,.06-.02,.11-.04h0Zm-21.11,7.83s-.05,.05-.05,.07c0,.02,.04,.03,.07,.05l.07-.07-.09-.04Zm-6,.25s-.08-.07-.1-.06c-.04,.01-.08,.03-.12,.06,.02,.02,.05,.05,.07,.05,.05,0,.1-.02,.14-.04h0Zm26.29-17.11q-.05-.19-.2-.11l.2,.11Zm.83-1.41l-.05,.04s.05,.04,.07,.06l.06-.05-.08-.04ZM44.45,31.94c-.05-.02-.11-.03-.16-.03-.02,0-.07,.04-.07,.05,.02,.03,.04,.06,.07,.08l.16-.1Zm60.98,.12l-.09,.04s.03,.05,.06,.05c.03,0,.06-.01,.09-.03l-.05-.06Zm-12.92,.39s-.06-.03-.1-.04c0,0-.04,.03-.03,.04,0,.02,.03,.03,.05,.05l.08-.05Zm31.43-8.18s-.06,0-.09,0c-.01,0-.02,.03-.03,.04,.03,0,.06,.01,.09,.02,0,0,.02-.03,.03-.05h0Z"/><path class="cls-1" d="M87.26,2.07c.24-.25,.61-.44,.65-.79,0-.08,.15-.15,.25-.24l-.11-.38,.15-.06c-.15-.24-.14-.26,.15-.35l-.11-.12c.05-.03,.11-.06,.18-.07,.53,0,1.06,0,1.6,0,2.91,0,5.82,0,8.72,0h.48l.27,.4c.19-.1,.06-.26,.18-.38,.09,0,.19-.02,.3-.02,4.16,0,8.31,0,12.47,0,.92,.02,1.84,.12,2.74,.32,.36,.07,.72,.14,1.05,.2-.11,.2-.21,.37-.3,.55-.01,.02,.04,.06,.07,.1,.23-.11,.39-.32,.46-.57,.24-.02,.18,.12,.21,.2,.03,.08,.04,.16,.06,.25l.16-.02-.09,.36c.29-.15,.3-.4,.56-.53,.02,.14-.02,.28-.1,.39-.05,.15-.14,.29-.25,.4-.18,.12,.03,.31-.17,.4q-.02,.38-.37,.78c-.64-.16-1.26-.33-1.9-.48-.72-.15-1.45-.23-2.19-.21h-15.69c-1.46,0-2.91,0-4.37,0-.11,0-.22,0-.33-.01-.11-.29,.24-.64-.22-.88-.2,.1-.27,.22-.25,.39,.02,.15,.02,.31,.03,.5-.47,0-.9,0-1.33,0-.07,0-.15-.08-.24-.13-.13,.12-.31,.17-.48,.14-.37-.02-.74,0-1.11,0-.15-.01-.31-.04-.46-.07-.12,.11-.35,.08-.56,.06-.04,0-.06-.07-.09-.11h0Zm6.68-.13h.1v-.34l.27-.1c-.12-.2-.18-.43-.17-.66l.38-.05c-.16-.16-.38-.23-.6-.19-.16,.04-.23,.14-.23,.34,0,.14,0,.28,.02,.42,.05,.2,.02,.42,.23,.58h0Zm-3.43-1.54c-.04,.13-.08,.26-.1,.39,0,.03,.05,.09,.09,.1,.04,0,.14-.02,.14-.05,.02-.15,.12-.3-.13-.44Zm4.45,.1h-.1c-.09,.17-.07,.37,.04,.52,.01,.02,.09,.02,.16,.03l-.1-.55Zm.36,1.49l.08-.03s.01-.09,0-.13c-.02-.06-.04-.12-.08-.17-.04,0-.08,0-.12,0-.03,.06-.04,.13-.03,.2,.01,.05,.1,.08,.15,.12Zm20.93-.54c-.23,.13-.26,.17-.2,.37,.15-.1,.29-.2,.2-.37h0Zm-16.94,.24c.05-.04,.13-.08,.12-.1-.02-.04-.08-.07-.12-.11l-.14,.11,.14,.1Zm-10.18-1.4c.11,.13,.29,.18,.45,.11-.12-.12-.29-.16-.45-.11Zm1.37,1.22c-.17,.1-.17,.19,0,.34v-.34ZM102.13,.19c-.11-.09-.2-.1-.29-.02-.01,.01,0,.06,.01,.07,.1,.08,.19,.05,.27-.05Zm-12.39,1.4c.09-.07,.09-.14-.01-.19-.04,0-.08,0-.12,.03-.04,.07-.04,.14,.13,.17Zm8.12-.94c-.04-.08-.14-.12-.22-.08-.01,0-.02,.01-.04,.02-.02,.01,0,.06,.01,.1l.24-.04Zm-6.45,.36c-.07-.03-.12-.06-.14-.05-.04,.02-.08,.05-.11,.08,.03,.02,.07,.06,.1,.06,.05-.02,.11-.05,.15-.09Zm-2.71,.48l.05-.05-.19-.07-.03,.04c.05,.03,.11,.06,.17,.09Zm2.75-1.26l.02-.06-.19-.04-.02,.06,.19,.04Z"/><path class="cls-1" d="M122.32,7.76c.11,.22,.04,.48-.16,.62-.08,.06-.09,.18-.16,.35,.22-.08,.45-.1,.68-.06-.02,.03-.02,.06-.04,.06-.31,.13-.53,.41-.58,.74-.04,.24-.21,.43-.44,.5-.08-.13-.04-.29,.07-.38,.16-.1,.24-.29,.21-.48l-.29,.06s-.03-.05-.04-.08c0-.78-.19-1.55-.54-2.24-.22-.41-.46-.81-.73-1.19-.15-.23-.21-.43,.02-.64,.06-.06,.13-.11,.24-.19v-.22l.22,.03,.38-1.57c.13-.01,.25,.08,.26,.21l-.23,.11,.15,.17,.28-.17c.38,.35,.73,.73,1.03,1.15-.13,.01-.28,0-.2,.23l.19-.23c.21,.1,.07,.28,.17,.41h.14s.03,.04,.03,.05c-.12,.11,.07,.26-.12,.38-.1,.06-.04,.26-.08,.39-.04,.09-.1,.17-.17,.24-.03,.04-.1,.08-.1,.12,0,.19,.02,.39,.05,.58,0,.05,.1,.11,.17,.12,.22,.04,.23,.03,.36,.19l-.5,.29c.09,.29,.05,.3-.3,.37-.02,0-.03,.03-.03,.05l.04,.02h0Zm-.8-4.01s0,.05-.03,.07c-.21,.14-.26,.43-.11,.64,0,.01,.02,.03,.03,.04,.02,.03,.1,.03,.15,.04-.06,.08-.17,.13-.1,.26,.05,.09,.01,.2-.15,.25-.06,.03-.1,.08-.12,.15-.01,.11-.01,.23,0,.34h.05l.13-.25c.2,.1,0,.29,.26,.39,.02-.17,.05-.34,.09-.5,.07-.17,.15-.34,.23-.5l-.19-.2-.2,.08c.02-.27,.01-.53-.02-.8l.16,.42c.13-.07,.1-.18,.11-.28,0-.14-.12-.15-.26-.14Zm.5,3.16c.25-.66,.26-.75,.04-.93-.09,.25-.17,.48-.25,.71-.05,.14,.04,.2,.21,.22Zm-.9-2.23l-.31,.53c.22-.04,.36-.24,.33-.46,0-.02-.01-.05-.02-.07Zm1.17,2.81l.32-.36c-.34,.01-.38,.04-.32,.36h0Zm-.96-.61l.27,.07q0-.16-.2-.22l-.07,.14Zm.85,.16h.08l.06-.32c-.24,.09-.2,.2-.14,.32h0Zm-.04,.62q-.19,.08-.11,.22l.11-.22Zm.49-2.75q-.18,.05-.15,.18l.15-.18Zm-.76-.81c.11-.1,.13-.16-.03-.26l.03,.26Zm-.14,4.23c.19,.03,.2-.06,.24-.13,0,0-.02-.03-.04-.05l-.2,.18Zm.04-.31l-.08-.03s-.03,.08-.04,.11l.06,.02s.04-.07,.07-.11h0Z"/><path class="cls-1" d="M119.52,3.91l-.13,.74-.49-.4c.05-.15,.1-.3,.13-.45,.01-.08,.1-.23-.16-.2,.08-.16,.17-.33,.24-.49,.02-.05-.03-.12-.06-.17-.03-.01-.07-.01-.1,0-.05,.05-.12,.12-.11,.15,.04,.13,.03,.27-.05,.38-.02,.03,.05,.09,.08,.13l-.14,.53c-.22-.14-.41-.26-.6-.38-.17-.13-.36-.25-.54-.36-.22-.1-.45-.18-.68-.25,.04-.1,.06-.18,.1-.25,.07-.16,.15-.31,.03-.49-.04-.05,0-.15,.03-.21,.19-.32,.39-.64,.59-.95,.06-.07,.13-.12,.2-.17l.05,.38h.05l.15-.24c.44,.17,.87,.38,1.28,.63-.04,.07-.09,.13-.15,.19-.18,.13-.18,.13-.04,.3,.01,.01,.01,.04,.02,.05,.02,.02,.04,.03,.06,.05,.25-.12,.03-.37,.24-.49,.17,.1,.2,.17,.12,.37s-.15,.39-.22,.59c-.06,.16-.11,.32-.18,.48-.06,.12,0,.18,.13,.23h0c-.11,.17-.34,.33-.07,.53l.19-.22Zm-1.79-2.1l.09,.02,.1-.21-.1-.02-.09,.21Z"/><path class="cls-1" d="M83.08,2.03c.22-.21,.3-.54,.2-.83h-.01c.19-.05,.39-.03,.57,.04h0l-.15,.21c.06,.05,.16,.1,.19,.17,.02,.05-.06,.13-.09,.2-.03,.07-.06,.15-.09,.24q.58-.04,.75-.15c0-.15-.13-.17-.36-.13,.2-.23,.59-.39,.29-.68,.3-.07,.51-.02,.46,.09-.08,.18,.12,.22,.18,.37,.1-.07,.21-.12,.21-.17,.02-.11,0-.23-.07-.33-.09-.09-.11-.23-.04-.34h.2l-.08-.16,.3-.27-.59-.06-.05-.13c.18-.11,.25,.03,.38,.07l.2-.1s.06,.02,.07,.04c.02,.12,.02,.24,.05,.35,.04,.16,0,.27-.2,.35-.06,.02-.11,.16-.08,.18,.25,.21,.13,.44,.07,.66-.02,.05-.04,.11-.06,.16-.02,.14,.04,.17,.29,.22,.23-.29,0-.6,.07-.89,.07-.29,.1-.58,.16-.93,.08,.07,.17,.12,.16,.14-.11,.14-.06,.29-.09,.43-.03,.1-.07,.2-.13,.29,.13,.16,.17,.37,.13,.57,0,.02,0,.04,0,.05,.02,.05,.05,.1,.1,.18l.39-.1c-.03-.06-.09-.15-.07-.16,.25-.19,.19-.43,.24-.66,.06-.23,.1-.46,.12-.69,.01-.16,.11-.21,.3-.21,.26,0,.51,0,.76,0l.15,.38c-.51,.23-.44,.61-.43,.99-.13,.04-.39,.02-.27,.24,0,0-.13,.05-.26,.1,.16,.03,.28,.16,.3,.32h0c-.15,.11-.35,.14-.53,.09-.11-.01-.19-.11-.31-.19l-.12,.19h-1.64s0-.09,0-.13q.28-.07,.21-.23c-.13,.06-.26,.1-.2,.24-.07-.04-.16-.03-.22,.02-.11,.07-.23,.11-.35,.12-.34,.01-.68,0-1.02,0-.16,0-.16,0-.35-.16h.36q.12,.15,.28-.02l-.29,.03Zm3.76-.65c-.08-.01-.17-.07-.2,.04-.02,.08,.04,.13,.15,.11,.13-.02,.08-.09,.04-.15q.23,0,.19-.15l-.18,.16Zm.09-1.02l.08-.02-.07-.14-.06,.02,.05,.14Z"/><path class="cls-1" d="M119.4,3.59l.26-.26c-.18-.26,.13-.45,.23-.67,.08-.14,.18-.27,.29-.38l.28,.16-.41,.47,.08,.05,.45-.39c.11,.04,.11,.11,.07,.19-.05,.07-.09,.15-.13,.23-.03,.11-.01,.21,.21,.25l.22-.41c.11,.13-.02,.39-.31,.7,.03,.4-.05,.8-.23,1.16v-.45l-.08-.02c-.13,.2-.24,.41-.34,.63-.03-.09-.08-.14-.06-.18,.06-.18,.15-.36,.26-.52,.17-.26,.19-.58,.06-.86-.18,.11-.31,.29-.34,.5-.01,.21-.04,.43-.07,.64-.05,.14-.11,.27-.19,.4-.19-.07-.11-.16-.08-.23,.07-.18,.2-.35,.11-.56-.02-.06,.04-.14,.08-.25l-.22,.06c.02-.11,.04-.22-.14-.28h0Z"/><path class="cls-1" d="M122.75,9.76c-.07-.28,.15-.5,.36-.72l-.06-.04-.52,.18c.35-.46,.54-1.01,.56-1.59,.1,.08,.07,.09,.15,.37,.03,.12-.23,.24,.06,.36,.03-.13,.07-.24,.08-.36,0-.14,.02-.28,.05-.41,.06-.13,.16-.24,.27-.33-.02,.12-.04,.25-.06,.37-.02,.1-.19,.18-.03,.3,.03,.02-.06,.15-.11,.22-.15,.13-.16,.36-.03,.51,.03,.03,.06,.05,.09,.07,.14,.11,.05,.2-.2,.24l.04,.33c-.12,0-.23,.02-.35,.05-.08,.05-.14,.12-.18,.2-.05,.07-.09,.15-.14,.23h.01Z"/><path class="cls-1" d="M122.74,9.75c-.07,.17-.15,.34-.25,.49-.1,.13-.15,.3-.14,.47,0,.11-.04,.22-.1,.32-.12,.22-.25,.44-.38,.66-.06,.09-.12,.17-.19,.24-.1-.24-.17-.41,0-.6,.07-.11,.12-.24,.15-.36l-.2,.08c-.1-.05-.05-.64,.07-.8,.19,.04,.14,.14,.12,.24-.02,.1-.03,.2-.05,.31,.18-.02,.31-.16,.32-.34,.03-.14,.1-.27,.2-.37,.09-.11,.18-.23,.25-.36,.07,.01,.13,.02,.2,.03h-.01Z"/><path class="cls-1" d="M34.38,30.97c-.09,.03-.1,.16-.26,.12-.03,0-.11,.06-.14,.1-.11,.15-.23,.31-.15,.5,.01,.03-.03,.08-.07,.11-.09-.23-.27-.46,.08-.63,0-.19-.15-.19-.31-.22-.14-.03-.24-.14-.41-.04l.23-.32h.29l.06,.23c.21,0,.41-.1,.55-.26l.12,.42h0Z"/><path class="cls-1" d="M83.84,1.24c.04-.11,.02-.19-.13-.25-.27-.11-.26-.11-.19-.38,.16-.03,.31-.07,.45-.14,.08-.05,.07-.18,.11-.32l-.33,.12,.08-.23,.47,.08c-.16,.15-.03,.34-.24,.43,.14,.16-.14,.3-.06,.46,.06,.12,0,.2-.17,.23h0Z"/><path class="cls-1" d="M31.72,32.44l-.15,.13s-.07-.06-.1-.1c-.07-.11-.17-.21,0-.34l.31,.12,.15-.46,.21-.04-.19,.52c.05,.05,.27,.1,.13,.23-.13,.12-.24,0-.36-.05Z"/><path class="cls-1" d="M74.24,1.99c.27-.02,.54-.06,.8-.06,.09,0,.19,.09,.27,.14l.32-.19,.12,.2c-.36,.22-.64,.02-.96-.09-.1,.15-.29,.22-.47,.16-.03-.06-.06-.12-.09-.18h0Z"/><path class="cls-1" d="M124.23,8.29c.07,.1,.15,.18,.13,.2-.16,.15-.05,.31-.05,.47,0,.03-.02,.06-.05,.14l-.27-.32c-.13,.04,.04,.3-.27,.21,0-.29,.27-.45,.5-.7Z"/><path class="cls-1" d="M33.56,31.77c-.18,.2-.32,.37-.08,.57l-.18,.18s-.05-.02-.05-.03c0-.07,.01-.13,.03-.23-.16,.08-.11,.28-.35,.24,.06-.14,.07-.32,.19-.42,.12-.1,.12-.3,.44-.31Z"/><path class="cls-1" d="M76.22,1.84c.06-.08,.09-.17,.15-.19,.17-.03,.31-.16,.35-.32,.02-.05,.1-.09,.17-.15,.01,.08,0,.16,.04,.2,.12,.16,.11,.19-.09,.24-.19,.05-.37,.12-.63,.21Z"/><path class="cls-1" d="M32.71,31.18c-.17,.08-.37,.11-.25,.3-.06,.04-.13,.07-.2,.1l-.09-.5c.17,.06,.38-.14,.53,.1Z"/><path class="cls-1" d="M39.08,30.69c-.48,.04-.33,.32-.41,.52-.19-.21,.06-.39,0-.61l.35,.04,.06,.05Z"/><path class="cls-1" d="M119.4,3.59c.18,.05,.16,.17,.14,.28,0,.02,0,.03-.02,.04l-.19,.21c-.28-.2-.04-.36,.07-.54Z"/><path class="cls-1" d="M123.04,6.38c-.22-.19-.08-.38,0-.59,.12,.2,.12,.28,0,.59Z"/><path class="cls-1" d="M83.13,1.39h-.31l-.06-.13-.2,.08-.03-.2c.32-.06,.45,.12,.65,.21l-.04,.05Z"/><path class="cls-1" d="M76.49,.69q.24-.11,.24-.39c.06,.03,.14,.04,.14,.07,.02,.1,.01,.21-.01,.32-.04,.11-.15,.11-.37,0Z"/><path class="cls-1" d="M38.24,30.95l-.27-.03c.05-.08,.08-.14,.13-.2,.09-.12,.22-.16,.45-.11-.21,.08-.3,.19-.31,.34Z"/><path class="cls-1" d="M30.31,32.02c-.09-.13-.1-.3-.03-.43l.28,.03c-.03,.16-.12,.31-.26,.4h0Z"/><path class="cls-1" d="M76.22,.58c-.03-.16,.18-.33-.1-.45,.13-.09,.25-.05,.26,.02,0,.14,0,.29-.03,.43h-.12Z"/><path class="cls-1" d="M27.77,30.93l-.24-.3,.38-.05-.14,.36Z"/><path class="cls-1" d="M37.99,31.19c.04,.14,.21,.29-.03,.45-.04-.16-.18-.3,.03-.45Z"/><path class="cls-1" d="M36.99,32.38l-.27,.25-.03-.32c.17-.07,.21,.06,.31,.08h0Z"/><path class="cls-1" d="M34.33,32.34l-.08-.5h.03l.14,.49h-.09Z"/><path class="cls-1" d="M76.28,2.04c-.29,.1-.36-.06-.49-.12,.2-.07,.3,.04,.49,.12Z"/><path class="cls-1" d="M75.67,1.39l-.14-.14,.24-.15c.16,.14-.06,.17-.1,.29Z"/><path class="cls-1" d="M75.92,1.71l.13-.4,.15,.25-.28,.15Z"/><path class="cls-1" d="M122.33,7.76c.36-.03,.4,.01,.24,.33-.09-.12-.04-.29-.24-.34h0Z"/><path class="cls-1" d="M83.01,.96c-.14-.03-.32,.08-.42-.07,.14,0,.28,.02,.41,.08h0Z"/><path class="cls-1" d="M123.33,5.41l.19,.35q-.23-.12-.19-.35Z"/><path class="cls-1" d="M32.78,30.59h.17s-.07,.09-.1,.13c-.02,.04-.03,.09-.03,.13h-.09l.05-.26Z"/><path class="cls-1" d="M31.95,30.83l.19-.26q.11,.18-.19,.26Z"/><path class="cls-1" d="M36.11,31.69l-.18,.26c-.12-.19-.11-.21,.18-.26Z"/><path class="cls-1" d="M83.28,1.2c-.09-.08-.18-.16-.27-.24h.41c-.07,.11-.1,.18-.15,.24h0Z"/><path class="cls-1" d="M76.23,1.17l.27-.34c-.03,.16,.06,.31-.27,.34Z"/><path class="cls-1" d="M74.65,1.6l-.14,.25c-.06-.08-.12-.12-.12-.17,0-.14,.11-.1,.26-.08Z"/><path class="cls-1" d="M123.66,8.47l.09-.32q.09,.14-.09,.32Z"/><path class="cls-1" d="M35.74,30.86l.23-.23c.07,.16-.08,.2-.17,.27l-.06-.03Z"/><path class="cls-1" d="M35.6,30.77l-.12,.22c-.1-.12-.03-.18,.12-.22Z"/><path class="cls-1" d="M76.22,.57c.03,.18,.03,.19-.36,.26,.15-.11,.26-.18,.36-.26h0Z"/><path class="cls-1" d="M34.37,30.98l.29,.03-.09,.19c-.07-.08-.13-.16-.2-.23h0Z"/><path class="cls-1" d="M36.37,31.24l-.34-.03,.04-.17,.3,.2Z"/><path class="cls-1" d="M35.8,32.48l-.17,.18c-.02-.09-.05-.19,.17-.18Z"/><path class="cls-1" d="M75.17,1.57c-.21-.09-.14-.16-.08-.24l.08,.24Z"/><path class="cls-1" d="M123.07,5.59l-.09-.14,.09-.02s.05,.09,.07,.13l-.08,.03Z"/><path class="cls-1" d="M124.24,14.65q.02-.15,.21-.1c-.09,.04-.15,.07-.22,.09h0Z"/><path class="cls-1" d="M34.97,30.67l-.25,.08c.07-.07,.09-.11,.12-.13,.04,0,.08-.01,.12,0v.06Z"/><path class="cls-1" d="M73.06,.11s.06-.04,.09-.05c.05,0,.11,0,.15,.03l-.22,.06-.03-.04Z"/><path class="cls-1" d="M40.26,31.92c-.08,0-.15,.22-.23,0h0c.08-.04,.15-.12,.23,0h.01Z"/><path class="cls-1" d="M35.36,31.42s.03,.06,.04,.09c0,0-.03,.02-.05,.02l-.04-.1h.05Z"/><path class="cls-1" d="M82.47,1.86s.05,.03,.07,.05c0,0-.03,.03-.05,.04-.02-.02-.04-.04-.06-.06l.04-.04Z"/><path class="cls-1" d="M36.3,32.51v.17h-.06l-.02-.16h.08Z"/><path class="cls-1" d="M15.32,1.05c-.08,.12,.09,.27-.13,.35-.21-.13-.19-.34-.25-.5-.04-.18-.04-.37-.03-.56,0-.05,.01-.09,.04-.14,.06-.08,.18-.1,.26-.05,.01,0,.02,.02,.03,.03,.05,.07,.09,.15,.12,.23,.06,.18,.1,.36,.16,.55l-.21,.07Z"/><path class="cls-1" d="M29.06,30.86c.28,.19,.61,.36,.56,.7,0,.07,.06,.14,.09,.22-.15,.06-.38,.03-.41,.22q-.19-.18,.03-.4c-.27-.21-.12-.51-.28-.75Z"/><path class="cls-1" d="M2,11.48c-.07-.25-.07-.51,.01-.75,0-.06,.1-.11,.16-.17,.24,.24,.1,.51-.17,.93Z"/><path class="cls-1" d="M69.79,1.04c-.05-.02-.13-.02-.16-.05-.07-.1-.14-.2-.2-.3,.07-.11,.22-.14,.33-.08,.12,.06,.32,.08,.32,.24,0,.16-.2,.13-.3,.2h0Z"/><path class="cls-1" d="M70.8,1.83l.16-.07-.07-.25c.15,.02,.3,.02,.45,.03,.21,0,.24,.08,.25,.19-.16,0-.32,.04-.47,.11-.14,.11-.21,0-.31,0h0Z"/><path class="cls-1" d="M68.45,.13c.26,.12,.3,.21,.17,.34-.08,.09-.21,.12-.31,.06-.15-.08-.11-.2,.14-.4Z"/><path class="cls-1" d="M26.34,32.19l.04,.18c-.21-.04-.4-.14-.56-.28-.08-.06,.03-.22,.2-.31,.13,.1,0,.29,.22,.35l.09,.06Z"/><path class="cls-1" d="M20.97,32.18l.11-.43c.18,0,.33,.05,.37,.23l-.38,.24-.11-.04Z"/><path class="cls-1" d="M68.77,2.11c-.25,.02-.23-.11-.24-.22l-.26-.03v-.04l.33-.1c.12,.1,.33,.19,.17,.39Z"/><path class="cls-1" d="M68.53,.73c.11-.05,.23-.08,.35-.11,.08,0,.15,.01,.22,.06,.03,.05,.02,.11-.01,.15-.08,.05-.16,.07-.25,.07-.11-.04-.21-.09-.3-.16Z"/><path class="cls-1" d="M1.85,12.01c0,.13,0,.26,0,.39,0,.04-.11,.07-.16,.11-.04-.05-.13-.11-.11-.15,.05-.13,.12-.25,.19-.37h.09Z"/><path class="cls-1" d="M28.52,31.75c.12,.06,.24,.12,.36,.18,.18,.09,.09,.17-.03,.26-.15-.11-.19-.28-.38-.35l.05-.1h0Z"/><path class="cls-1" d="M21.34,31.01c.33,.07,.35,.08,.38,.33-.3,.02-.27-.18-.38-.33Z"/><path class="cls-1" d="M17.27,31.93c-.18-.04-.33-.17-.38-.35,.3,.05,.38,.13,.38,.35Z"/><path class="cls-1" d="M16.62,1.44c-.18,.02-.2-.06-.22-.14-.02-.07-.03-.16,.11-.16,.05,0,.11,.08,.13,.13,0,.06,0,.12-.02,.17Z"/><path class="cls-1" d="M24.18,31.27c.15-.09,.27-.08,.33,.03,.01,.06-.02,.12-.07,.15-.17,.03-.23-.06-.26-.18Z"/><path class="cls-1" d="M73.36,1.95l-.5-.11,.5-.16v.28Z"/><path class="cls-1" d="M73.93,1l-.15-.37c.28,.07,.35,.21,.15,.37Z"/><path class="cls-1" d="M69.22,1.28c-.09-.01-.17-.04-.25-.07-.04-.03-.05-.09-.03-.14,.05-.03,.12-.05,.18-.03,.07,.05,.12,.12,.17,.19l-.07,.05Z"/><path class="cls-1" d="M7.11,2.06c-.07-.12-.03-.28,.09-.35h.03c.14,.22,.13,.26-.12,.35Z"/><path class="cls-1" d="M17.39,1.78l-.16,.11s-.11-.08-.11-.11,.07-.07,.11-.11l.16,.11Z"/><path class="cls-1" d="M14.44,31.56c-.23,0-.23-.19-.31-.31l.39,.24-.07,.07Z"/><path class="cls-1" d="M23.45,31.67l.45,.12c-.07,.14-.13,.14-.24,.06-.07-.05-.15-.09-.23-.12l.02-.06Z"/><path class="cls-1" d="M27.11,31.27v-.34c.2,.15,.18,.25,.12,.35h-.12Z"/><path class="cls-1" d="M1.27,9.08c0,.09,0,.17,0,.26,0,.02-.06,.04-.1,.06-.03-.03-.09-.07-.09-.1,.02-.08,.05-.16,.08-.23h.11Z"/><path class="cls-1" d="M69.94,1.84c-.16,.16-.29,.19-.44,.03,.12-.11,.25-.07,.44-.03Z"/><path class="cls-1" d="M72.37,1.04l.17,.21c-.09,.05-.21,.05-.3,0h.01l-.14-.21h.26Z"/><path class="cls-1" d="M20.74,1.08c-.07,.03-.14,.05-.21,.06-.04,0-.07-.05-.11-.08,.05-.03,.1-.09,.15-.09,.05,0,.1,.06,.18,.11Z"/><path class="cls-1" d="M28.53,31.75c-.15,.03-.2-.05-.22-.13,0-.04,.06-.08,.09-.12,.04,.03,.11,.05,.12,.08,0,.06,0,.13,0,.19h0Z"/><path class="cls-1" d="M69.79,1.04l.08,.38-.28-.23c.09-.06,.15-.1,.21-.15h0Z"/><path class="cls-1" d="M30.03,32.1l.22,.35c-.29-.06-.27-.2-.22-.35h0Z"/><path class="cls-1" d="M26.18,31.05l-.18,.2-.17-.26,.35,.06Z"/><path class="cls-1" d="M70.6,.26q-.06,.28-.32,.14l.32-.14Z"/><path class="cls-1" d="M11.73,.99v.35c-.16-.15-.13-.25-.09-.34h.09Z"/><path class="cls-1" d="M31.38,31.03c.04-.05,.08-.1,.13-.15,.03-.02,.1,0,.15,0,0,.04,.01,.1-.02,.12-.07,.03-.14,.06-.21,.08l-.05-.04Z"/><path class="cls-1" d="M7.6,1.7l.02-.24c.2,.1,.17,.17,.07,.25h-.09Z"/><path class="cls-1" d="M26.34,32.19l-.09-.06-.05-.21c.17,.03,.23,.1,.25,.19,0,.02-.07,.05-.11,.07Z"/><path class="cls-1" d="M24.79,32.63c-.1-.06-.16-.13-.01-.28l.12,.25-.11,.03Z"/><path class="cls-1" d="M67.83,2.1c-.04-.09-.01-.15,.13-.14,.13,0,.17,.05,.13,.15-.09,0-.18-.01-.27-.02h0Z"/><path class="cls-1" d="M69.04,1.67l.4,.12c-.24,.1-.32-.04-.44-.03l.04-.09Z"/><path class="cls-1" d="M72.6,1.72c-.12,0-.23-.02-.17-.19l.24,.13-.07,.07Z"/><path class="cls-1" d="M25.55,31.58l-.33-.15q.28-.07,.33,.15Z"/><path class="cls-1" d="M70.65,1.37c-.06,.11-.19,.16-.31,.11h-.02c.04-.15,.14-.15,.32-.11Z"/><path class="cls-1" d="M68.98,1.44l-.17,.1-.08-.11,.19-.07,.06,.08Z"/><path class="cls-1" d="M73.26,1.21c.17-.03,.26-.02,.26,.08,0,.03-.07,.06-.1,.09l-.16-.16Z"/><path class="cls-1" d="M19.28,30.77c-.07,.04-.12,.09-.15,.08-.04,0-.08-.05-.12-.08,.04-.03,.08-.08,.12-.08,.04,0,.08,.04,.15,.08Z"/><path class="cls-1" d="M26.68,30.63c.06,.12,.02,.18-.12,.24-.08-.13-.05-.19,.12-.24Z"/><path class="cls-1" d="M9.94,2.18q-.02-.17,.2-.12l-.2,.12Z"/><path class="cls-1" d="M29.49,30.95l.3-.07q-.11,.13-.3,.07Z"/><path class="cls-1" d="M73.49,1.67h.29c-.08,.07-.15,.13-.29,0Z"/><path class="cls-1" d="M72.38,1.05c.08-.08,.15-.17,.31-.05-.08,.09-.21,.11-.32,.04h0Z"/><path class="cls-1" d="M69.48,1.38l.23,.18q-.19-.02-.23-.18Z"/><path class="cls-1" d="M20.03,31.71l.18,.17c-.2,0-.24-.05-.18-.17Z"/><path class="cls-1" d="M30.87,31.01c-.05-.04-.11-.07-.12-.1,0-.02,.06-.05,.1-.08,.04,.03,.08,.06,.1,.09,0,.02-.04,.05-.09,.09Z"/><path class="cls-1" d="M29.08,31.68c-.13-.05-.15-.12-.05-.2,.03-.01,.07,0,.1,0,.09,.07,.1,.14-.04,.19Z"/><path class="cls-1" d="M19.46,31.66l-.23-.17,.06-.05,.25,.16-.08,.06Z"/><path class="cls-1" d="M72.12,1.04l.14,.22-.26-.08,.13-.14Z"/><path class="cls-1" d="M67.31,1.21l-.23-.05c.11-.11,.18-.08,.25-.01l-.03,.06Z"/><path class="cls-1" d="M71.99,1.18l.26,.08h-.01l-.03,.18-.22-.26Z"/><path class="cls-1" d="M28.52,31.22s-.08,.08-.11,.08c-.04,0-.07-.03-.09-.06,0-.02,.04-.07,.07-.07s.07,.02,.13,.05Z"/><path class="cls-1" d="M68.27,1.7l-.08-.15,.04-.02s.08,.04,.11,.07c.02,.02,0,.06,0,.1h-.08Z"/><path class="cls-1" d="M70.58,1.13l-.22-.1,.03-.05,.25,.07-.06,.08Z"/><path class="cls-1" d="M72.69,.4c.05,.06,.1,.09,.1,.11,0,.02-.05,.05-.08,.07-.02-.02-.06-.04-.06-.06,0-.03,.02-.06,.04-.13Z"/><path class="cls-1" d="M21.11,32.53l.18-.19c.03,.16-.06,.18-.18,.19Z"/><path class="cls-1" d="M6.8,2.38c-.05,.02-.11,.04-.17,.04-.03,0-.05-.04-.08-.07,.03-.01,.06-.04,.09-.04,.06,.01,.11,.03,.16,.06Z"/><path class="cls-1" d="M6.36,30.69s-.04-.07-.06-.11c.02-.02,.05-.03,.08-.03,.03,0,.05,.03,.06,.06,0,.02-.03,.04-.08,.08Z"/><path class="cls-1" d="M26.35,32.49l.08,.09s-.07,.05-.1,.05c-.03,0-.06-.04-.09-.06l.11-.07Z"/><path class="cls-1" d="M18.3,31.07l-.11-.13,.05-.03,.14,.12-.08,.04Z"/><path class="cls-1" d="M66.53,1.76s.09,.06,.14,.09l-.03,.04c-.05-.02-.11-.05-.16-.07l.06-.06Z"/><path class="cls-1" d="M31.15,30.91s.08,.06,.08,.06c-.02,.03-.05,.05-.09,.07,0,0-.07-.03-.07-.04,.02-.03,.05-.06,.08-.09Z"/><path class="cls-1" d="M19.58,31.16l-.13-.11,.05-.04,.15,.1-.07,.05Z"/><path class="cls-1" d="M30.62,31.14l-.04-.15,.08-.02,.07,.15-.11,.02Z"/><path class="cls-1" d="M26.41,31.31l-.02-.17h.09l.04,.16h-.11Z"/><path class="cls-1" d="M74.21,1.56h-.27q.13-.08,.26,0h0Z"/><path class="cls-1" d="M25.53,32.13c-.04-.06-.07-.09-.07-.11,0-.02,.07-.04,.1-.04,.02,0,.07,.04,.06,.05-.01,.03-.05,.05-.1,.1Z"/><path class="cls-1" d="M19.89,31.32l.11,.14-.06,.03-.13-.13,.08-.04Z"/><path class="cls-1" d="M73.74,1.34s.07-.05,.11-.06c.02,0,.05,.03,.08,.04-.02,.03-.05,.05-.08,.07-.01,0-.05-.02-.1-.05Z"/><path class="cls-1" d="M3.29,4.52l-.09,.06s-.04-.04-.05-.06c0-.01,.03-.04,.04-.04,.03,.01,.07,.02,.1,.04Z"/><path class="cls-1" d="M68.44,1.13s.06,.03,.07,.05c0,.01-.03,.03-.04,.05-.02-.02-.04-.04-.06-.06,0,0,.02-.02,.04-.04Z"/><path class="cls-1" d="M68,1.21s-.07-.05-.06-.07c.01-.03,.04-.04,.07-.05,.02,0,.06,.03,.06,.05,0,.02-.04,.04-.07,.07Z"/><path class="cls-1" d="M23.01,1.56s.04-.04,.06-.06l.05,.02s-.03,.05-.05,.07l-.06-.03Z"/><path class="cls-1" d="M65.36,.9c.05-.01,.1-.02,.15-.03l.03,.06-.16,.03-.02-.06Z"/><path class="cls-1" d="M27.37,32.16s-.02-.08-.02-.12c0-.01,.05-.02,.08-.03,.01,.02,.03,.05,.03,.07,0,.02-.04,.03-.09,.07Z"/><path class="cls-1" d="M71.01,.84s-.05,.05-.08,.07c-.04-.02-.07-.04-.1-.06,0,0,.02-.04,.03-.04,.05,0,.1,.02,.15,.03Z"/><path class="cls-1" d="M24.84,32.16c-.06,.01-.1,.03-.11,.02-.02-.01-.04-.04-.04-.06,0-.02,.04-.03,.07-.04l.08,.08Z"/><path class="cls-1" d="M22.69,31.16l.12,.11-.08,.04-.09-.12,.05-.03Z"/><path class="cls-1" d="M70.16,.69s-.07-.07-.06-.08c.02-.03,.05-.05,.08-.07,.02,.02,.07,.04,.06,.05-.01,.03-.04,.05-.08,.09Z"/><path class="cls-1" d="M66.73,1.7s-.04-.09-.05-.14c0-.01,.05-.04,.07-.04,.03,0,.06,.02,.08,.04,0,0-.03,.04-.11,.13Z"/><path class="cls-1" d="M8.26,2.71s-.07-.04-.07-.06c0-.02,.02-.04,.03-.07,.02,.01,.06,.02,.07,.04,0,.02-.02,.05-.03,.09Z"/><path class="cls-1" d="M69.79,.27s-.09-.05-.09-.06c.02-.03,.04-.06,.08-.07,.03,0,.05,.01,.08,.03-.02,.04-.04,.07-.06,.1Z"/><path class="cls-1" d="M39.63,30.93l.45-.02-.09,.19c.21,.12,.23-.19,.41-.11,.19,.09,.26-.19,.47-.05,.01,.12-.07,.23-.19,.25-.07,.02-.17-.05-.26-.07-.25,.1-.35,.31-.52,.51l-.05-.27h-.46c0-.18,.49-.17,.24-.43Z"/><path class="cls-1" d="M98.88,32.26s-.09,.05-.12,.04c-.11-.05-.23-.05-.33,0-.1,.05-.22,.02-.28-.07-.06-.08-.09-.18-.08-.28,.06-.15,.27-.15,.43-.02,.12,.1,.25,.21,.38,.32Z"/><path class="cls-1" d="M100.87,32.62c-.06-.07-.11-.14-.16-.22-.06-.13,0-.29,.14-.35,.11-.06,.24-.05,.33,.03,.13,.1,.16,.24,.03,.35-.11,.07-.23,.13-.36,.18h.01Z"/><path class="cls-1" d="M123.35,10.08c.11,.18,.13,.4,.07,.61-.03,.08,.03,.19,.05,.29-.25,.05-.2,.38-.63,.4,.23-.13,.31-.24,.3-.42-.01-.11,.13-.22,.15-.34,0-.12-.02-.24-.05-.35,0-.04,.05-.09,.11-.19Z"/><path class="cls-1" d="M123.76,16.23c.02-.17,.24-.24,.46-.35,.01,.07,0,.15,0,.22-.05,.13-.12,.25-.06,.4,.05,.1-.08,.11-.19,.12-.12-.1,.08-.3-.21-.39Z"/><path class="cls-1" d="M124.34,21.63l-.12,.49-.5-.15c.06-.26,.38-.19,.62-.34Z"/><path class="cls-1" d="M123.96,9.71c.12,.13,.25,.26,.37,.39,.02,.04,0,.09-.03,.12-.05,.02-.11,.02-.16,0-.1-.07-.19-.16-.26-.26-.04-.06,0-.15,0-.23l.08-.02Z"/><path class="cls-1" d="M95.86,32.03c-.12,0-.24-.12-.23-.21,.04-.11,.16-.19,.28-.17,.14,.03,.19,.11,.18,.21-.01,.11-.11,.19-.22,.18h0Z"/><path class="cls-1" d="M75.22,31.44c-.21-.3-.2-.46,.03-.61,.08,.2,.07,.42-.03,.61Z"/><path class="cls-1" d="M101.79,30.97c-.11,.07-.23,.14-.35,.19-.04,.01-.16-.08-.18-.14-.03-.08,.14-.18,.28-.17,.09,.03,.17,.07,.25,.12Z"/><path class="cls-1" d="M98.68,30.89c0-.15,.11-.18,.22-.19,.11-.01,.19,.03,.2,.12,0,.09-.05,.15-.17,.14-.09-.02-.17-.04-.25-.08Z"/><path class="cls-1" d="M122.27,18.88c-.05-.23,.03-.47,.21-.62,.03,.23-.05,.45-.21,.62Z"/><path class="cls-1" d="M122.9,11.99l.28-.45c.2,.26,.14,.36-.28,.45Z"/><path class="cls-1" d="M123.8,12.01c.12,.09,.25,.18,.37,.27,.02,.02,0,.08-.02,.14-.28-.05-.32-.22-.43-.36l.07-.06Z"/><path class="cls-1" d="M100.64,30.59c.08,.06,.16,.09,.17,.13,.01,.09-.06,.15-.18,.13-.05,0-.14-.07-.13-.1,0-.05,.08-.1,.14-.16Z"/><path class="cls-1" d="M123.79,13.81q.26,.16,.07,.46l-.07-.46Z"/><path class="cls-1" d="M122.86,13.47c.17,.09,.39,.12,.45,.32l-.52-.26,.06-.06Z"/><path class="cls-1" d="M123.97,18.37l-.06-.22c.06,0,.12-.03,.14-.02,.07,.05,.14,.11,.2,.18l-.29,.06Z"/><path class="cls-1" d="M122.61,19.17c.18-.12,.4-.16,.61-.13-.18,.13-.4,.17-.61,.13Z"/><path class="cls-1" d="M100.07,31.76l.33,.09c-.22,.15-.22,.15-.33-.09Z"/><path class="cls-1" d="M122.59,27.27l.09-.32h.06c0,.05-.01,.1,.01,.15,.06,.11,.07,.11-.16,.17Z"/><path class="cls-1" d="M38.94,32.42l.24-.08c.02,.16-.04,.25-.23,.33v-.25h0Z"/><path class="cls-1" d="M94.59,31.68c.07,.07,.14,.11,.16,.16,0,.02-.08,.07-.12,.1-.05-.04-.13-.07-.15-.11-.01-.03,.06-.08,.11-.15Z"/><path class="cls-1" d="M122.47,12.44c.04-.12-.24-.25,.03-.38,.05,.14,.13,.26-.03,.38Z"/><path class="cls-1" d="M123.15,21.59l.21-.43,.06,.02-.18,.44-.1-.03Z"/><path class="cls-1" d="M122.23,19.13c-.14,.16-.02,.33-.24,.41,0-.27,.05-.36,.24-.41Z"/><path class="cls-1" d="M40.25,31.93c-.07-.13-.15-.05-.23,0,.03-.05,.08-.11,.12-.15,.07-.05,.13-.08,.21-.12,.09,.12,.01,.2-.1,.27Z"/><path class="cls-1" d="M122.24,24.8l-.08,.41h-.1l.1-.43,.08,.03Z"/><path class="cls-1" d="M38.93,32.02l.39,.12s-.1,.1-.13,.1c-.16-.02-.26-.09-.26-.22h0Z"/><path class="cls-1" d="M98.04,31.28l-.13,.11-.14-.1s.08-.07,.12-.08c.04,0,.08,.04,.15,.07Z"/><path class="cls-1" d="M122.2,21.3s.03,.02,.03,.03c.03,.1,.03,.18-.12,.21-.03,0-.06-.01-.09-.04-.04-.12,.03-.19,.18-.21Z"/><path class="cls-1" d="M104.8,31.09c-.05-.06-.11-.1-.1-.13,.01-.04,.08-.07,.12-.1,.04,.03,.11,.06,.11,.08-.01,.04-.07,.08-.13,.15Z"/><path class="cls-1" d="M122.46,14.29v-.33q.11,.16,0,.33Z"/><path class="cls-1" d="M42.01,31.44h-.23l-.03-.05,.27-.19-.02,.24h0Z"/><path class="cls-1" d="M124.14,24.48c-.06,.16-.15,.15-.28,.03l.28-.03Z"/><path class="cls-1" d="M113.27,32.55l-.16,.08s-.07-.08-.1-.12c0-.01,.08-.07,.09-.06,.06,.03,.12,.07,.17,.11Z"/><path class="cls-1" d="M118.11,31.51c-.07-.14,0-.26,.1-.42,.1,.19-.1,.29-.11,.42h0Z"/><path class="cls-1" d="M44.09,31.75l.25-.22,.07,.04-.23,.25-.09-.07Z"/><path class="cls-1" d="M121.96,13.55l.03-.27h.08v.28h-.11Z"/><path class="cls-1" d="M42.31,31.79l.24,.04-.21,.21-.07-.02,.03-.23Z"/><path class="cls-1" d="M92.31,30.91c-.08,.02-.14,.05-.17,.04-.04-.01-.08-.04-.1-.08,0-.02,.04-.05,.07-.08l.2,.12Z"/><path class="cls-1" d="M41.77,31.85c.02,.1,.03,.2-.15,.24-.07-.13,.03-.19,.15-.24Z"/><path class="cls-1" d="M122.81,14.66v-.33q.13,.1,0,.33Z"/><path class="cls-1" d="M123.59,23.87c.07,0,.14,0,.22,0,0,0,0,.06,0,.09h-.23v-.1Z"/><path class="cls-1" d="M121.78,14.05l.07-.25h.09l-.04,.26h-.12Z"/><path class="cls-1" d="M102.04,32.51l-.13,.08s-.07-.06-.07-.08c.01-.03,.06-.06,.1-.09l.1,.09Z"/><path class="cls-1" d="M102.45,30.78c-.05,.14-.09,.2-.27,.13l.27-.13Z"/><path class="cls-1" d="M93.88,32.44c-.06,.04-.09,.08-.12,.08-.04,0-.07-.03-.09-.06,0,0,.03-.05,.06-.05,.05,0,.1,.02,.15,.03Z"/><path class="cls-1" d="M120.33,27.5l-.05,.17h-.06l.04-.18h.07Z"/><path class="cls-1" d="M123.9,20.51c-.07,.02-.12,.05-.15,.04-.04,0-.06-.05-.09-.07,.03-.02,.07-.05,.1-.05,.03,0,.07,.04,.13,.08Z"/><path class="cls-1" d="M46.94,31.55l.16-.22q.03,.16-.16,.22Z"/><path class="cls-1" d="M44.37,32.19l-.22,.15c-.02-.16,.06-.19,.17-.2l.06,.05Z"/><path class="cls-1" d="M123.58,11.24l.05,.15-.07,.02-.09-.15,.11-.02Z"/><path class="cls-1" d="M85.22,31.12l-.07,.06-.09-.07s.05-.05,.07-.05c.03,0,.05,.03,.09,.05Z"/><path class="cls-1" d="M43.92,32.49h.31c-.11,.18-.19,.1-.31,0Z"/><path class="cls-1" d="M101.7,31.43s0-.1,0-.15c.03,0,.06,0,.09,0v.15h-.1Z"/><path class="cls-1" d="M42,31.44l.14,.13-.26,.06c.05-.09,.08-.14,.12-.19h0Z"/><path class="cls-1" d="M93.3,31.77c.04,.05,.09,.08,.08,.11,0,.02-.07,.06-.1,.05-.04,0-.07-.04-.08-.07,0-.02,.05-.05,.09-.09Z"/><path class="cls-1" d="M37.07,31.87c.07,.04,.21,.03,.16,.2l-.22-.17,.05-.04Z"/><path class="cls-1" d="M101.38,31.67s-.09-.06-.09-.09c.01-.03,.04-.06,.07-.07,.04,0,.09,.03,.1,.05s-.04,.05-.08,.1Z"/><path class="cls-1" d="M120.52,27.99l-.12,.29q-.05-.14,.12-.29Z"/><path class="cls-1" d="M123.37,15.22l-.16,.2c-.1-.12-.06-.17,.16-.2Z"/><path class="cls-1" d="M123.86,23.55l.19-.02v.06h-.18v-.04Z"/><path class="cls-1" d="M41.75,30.85l.18,.09q-.17,.04-.17-.1h0Z"/><path class="cls-1" d="M123.78,23.15c-.05,.02-.09,.04-.11,.04-.03-.02-.06-.04-.08-.07,.03-.01,.06-.04,.08-.04,.04,.02,.08,.04,.12,.07Z"/><path class="cls-1" d="M102.67,30.98l.09,.05-.07,.07s-.06-.03-.07-.05c0-.02,.03-.04,.05-.07Z"/><path class="cls-1" d="M96.67,31.23s-.09,.04-.14,.04c-.02,0-.05-.03-.07-.05,.04-.02,.07-.04,.12-.06,.02,0,.05,.03,.1,.06Z"/><path class="cls-1" d="M122.96,14.12l-.2-.11q.15-.08,.2,.11Z"/><path class="cls-1" d="M123.79,12.71l.08,.04-.06,.05s-.05-.03-.07-.06l.05-.04Z"/><path class="cls-1" d="M44.45,31.94l-.16,.1s-.05-.05-.07-.08c0-.01,.04-.05,.07-.05,.05,0,.11,.01,.16,.03Z"/><path class="cls-1" d="M105.43,32.06l.05,.06s-.06,.02-.09,.03c-.02,0-.04-.03-.06-.05l.09-.04Z"/><path class="cls-1" d="M38.95,32.41c-.14,.04-.23,.01-.17-.14,.05,.05,.11,.1,.16,.15h.01Z"/><path class="cls-1" d="M92.52,32.45l-.08,.05s-.04-.03-.05-.05c0,0,.03-.04,.03-.04,.03,0,.07,.02,.1,.04Z"/><path class="cls-1" d="M123.95,24.27s-.02,.05-.03,.05c-.03,0-.06,0-.09-.02,0-.01,.01-.04,.03-.04,.03,0,.06,0,.09,0Z"/><path class="cls-1" d="M93.94,1.93c-.22-.16-.19-.38-.23-.58-.02-.14-.03-.28-.02-.42,0-.2,.06-.3,.23-.34,.22-.04,.45,.03,.6,.19l-.38,.05c-.01,.23,.05,.46,.17,.66l-.27,.1v.33h-.1Z"/><path class="cls-1" d="M90.51,.39c.25,.14,.15,.3,.13,.44,0,.02-.1,.06-.14,.05-.04,0-.1-.07-.09-.1,.02-.13,.07-.26,.1-.39Z"/><path class="cls-1" d="M94.96,.5l.1,.55c-.07-.01-.15-.01-.16-.03-.11-.15-.13-.35-.04-.52h.1Z"/><path class="cls-1" d="M95.33,1.99c-.05-.04-.13-.07-.15-.12-.01-.07,0-.14,.03-.2,.04-.01,.08-.02,.12,0,.04,.05,.06,.11,.08,.17,0,.04,0,.09,0,.13l-.08,.03Z"/><path class="cls-1" d="M116.26,1.45c.08,.17-.05,.27-.2,.37-.06-.2-.03-.25,.2-.37Z"/><path class="cls-1" d="M99.32,1.69l-.14-.1,.14-.11s.1,.07,.12,.11c0,.02-.07,.06-.12,.1Z"/><path class="cls-1" d="M89.14,.29c.16-.05,.33-.01,.45,.11-.16,.07-.34,.03-.45-.11Z"/><path class="cls-1" d="M90.51,1.51v.34c-.17-.14-.17-.24,0-.34Z"/><path class="cls-1" d="M102.13,.19c-.09,.1-.17,.13-.28,.05-.02-.01-.03-.06-.01-.07,.09-.08,.18-.06,.29,.02Z"/><path class="cls-1" d="M89.74,1.59c-.17-.02-.17-.09-.13-.17,.03-.02,.08-.03,.12-.03,.1,.05,.1,.12,.01,.19Z"/><path class="cls-1" d="M97.86,.65l-.24,.04s-.03-.09-.01-.1c.07-.06,.18-.05,.23,.02,0,.01,.02,.02,.02,.04Z"/><path class="cls-1" d="M91.41,1.01s-.1,.06-.15,.08c-.03,0-.07-.04-.1-.06,.03-.03,.07-.06,.11-.08,.02,0,.07,.03,.14,.05Z"/><path class="cls-1" d="M88.7,1.49c-.06-.03-.11-.06-.17-.09l.03-.04,.19,.07-.05,.05Z"/><path class="cls-1" d="M91.45,.23l-.19-.04,.02-.06,.19,.04-.02,.06Z"/><path class="cls-1" d="M121.55,4.55l.2-.08,.19,.2c-.09,.16-.17,.33-.23,.5-.04,.17-.07,.33-.09,.5-.26-.1-.06-.29-.26-.39l-.13,.25h-.05c0-.11,0-.23,0-.34,.01-.07,.06-.12,.12-.15,.16-.05,.2-.16,.15-.25-.07-.12,.04-.18,.1-.26h0Z"/><path class="cls-1" d="M122.03,6.92c-.17-.02-.26-.08-.21-.22,.08-.23,.16-.45,.25-.71,.22,.18,.21,.26-.04,.93Z"/><path class="cls-1" d="M121.53,3.75c.04,.26,.05,.53,.02,.8h0c-.05-.02-.12-.02-.15-.05-.17-.19-.15-.48,.05-.65,.01-.01,.03-.02,.04-.03,.02-.02,.02-.05,.03-.07h0Z"/><path class="cls-1" d="M121.13,4.68c.08,.21-.03,.43-.24,.51-.02,0-.05,.01-.07,.02l.31-.53Z"/><path class="cls-1" d="M122.31,7.49c-.06-.31-.02-.34,.32-.36l-.32,.36Z"/><path class="cls-1" d="M121.53,3.75c.14,0,.27,0,.26,.14,0,.1,.03,.2-.11,.28-.06-.15-.11-.28-.16-.42h0Z"/><path class="cls-1" d="M121.35,6.88l.07-.14q.2,.06,.2,.22l-.27-.07Z"/><path class="cls-1" d="M122.19,7.04c-.06-.11-.1-.23,.14-.32l-.06,.32h-.08Z"/><path class="cls-1" d="M122.16,7.67l-.11,.22q-.08-.14,.11-.22Z"/><path class="cls-1" d="M122.65,4.92l-.15,.18q-.03-.13,.15-.18Z"/><path class="cls-1" d="M121.89,4.1l-.03-.26c.16,.1,.14,.16,.03,.26Z"/><path class="cls-1" d="M122.67,4.54l-.19,.23c-.08-.22,.07-.21,.2-.23h-.01Z"/><path class="cls-1" d="M121.74,8.33l.2-.18s.05,.05,.04,.05c-.04,.06-.05,.15-.24,.13Z"/><path class="cls-1" d="M121.78,8.02s-.04,.07-.07,.11l-.06-.02s.03-.08,.04-.11l.08,.03Z"/><path class="cls-1" d="M118.89,3.59s-.1-.1-.08-.13c.08-.11,.1-.25,.05-.38-.02-.04,.06-.11,.11-.15,.03,0,.07,0,.1,0,.03,.06,.08,.12,.06,.17-.07,.17-.16,.33-.24,.49h0Z"/><path class="cls-1" d="M117.73,1.81l.09-.21,.1,.02-.1,.21-.09-.02Z"/><path class="cls-1" d="M84.68,2.04c-.06-.14,.08-.18,.2-.24q.07,.17-.21,.23h.01Z"/><path class="cls-1" d="M83.08,2.03l.29-.03q-.16,.17-.28,.02h-.01Z"/><path class="cls-1" d="M86.84,1.38c.04,.06,.09,.13-.04,.15-.1,.02-.17-.03-.15-.11,.02-.11,.12-.05,.2-.04h0Z"/><path class="cls-1" d="M86.94,.36l-.05-.14,.06-.02,.07,.14-.08,.02Z"/><path class="cls-1" d="M86.84,1.38l.18-.16q.04,.16-.19,.15h0Z"/><text class="cls-2" transform="translate(11.76 21.42)"><tspan x="0" y="0"> v7 &amp; v8</tspan></text></g></g></svg>