<?xml version="1.0" encoding="utf-8"?>
<!-- Generator: Adobe Illustrator 26.3.1, SVG Export Plug-In . SVG Version: 6.00 Build 0)  -->
<svg version="1.1" id="Layer_1" xmlns="http://www.w3.org/2000/svg" xmlns:xlink="http://www.w3.org/1999/xlink" x="0px" y="0px"
	 viewBox="0 0 124.5 32.7" style="enable-background:new 0 0 124.5 32.7;" xml:space="preserve">
<style type="text/css">
	.st0{fill:#818181;}
	.st1{fill:none;}
	.st2{fill:#666666;}
</style>
<g id="Layer_1-2">
	<path class="st0" d="M8.6,19.8c-0.1,0-0.1,0-0.1-0.1"/>
	<path class="st0" d="M17.9,22.7"/>
	<path class="st0" d="M30.3,32c0.2,0.1,0.3,0.1,0.3,0.3c0,0.1-0.1,0.2-0.1,0.3l-0.6,0.2c0-0.1,0-0.2,0-0.2c-0.1-0.1-0.1-0.1-0.2-0.2
		l-0.4,0.2l0.1,0.2c-0.3,0-0.6,0-1,0c0.2-0.2,0.4-0.1,0.7-0.1l-0.3-0.3c-0.1,0-0.2,0.1-0.2,0.1c-0.1,0-0.2,0-0.3-0.1l-0.1,0.3
		c-0.1-0.1-0.2-0.2-0.4-0.1v0.3h-2.2c-0.1-0.1-0.1-0.2-0.2-0.2c-0.1,0-0.2,0-0.3,0c0,0.2,0,0.2,0.2,0.2c-0.2,0.1-0.2,0.1-0.6,0.1
		c-0.2,0-0.4,0-0.7,0c-0.2,0-0.4,0-0.6,0l-0.1-0.4c-0.1,0.1-0.2,0.3-0.1,0.4c0,0,0,0,0,0c-0.6,0-1.1,0-1.7,0c-0.2,0-0.3,0-0.5-0.1
		c-0.2-0.1-0.5-0.1-0.7-0.2l-0.1,0.1c0.1,0,0.3,0.1,0.4,0.2h-0.6h-3.4c-1.2,0-2.4,0-3.6,0c-1.4,0-2.8-0.1-4.2-0.4
		c-2.4-0.4-4.6-1.5-6.3-3.2c-0.8-0.7-1.4-1.6-1.8-2.5C0.3,25.5,0,24.3,0,23.1c0-2.4,0-4.8,0-7.2c0-1.7,0-3.5,0-5.2
		c0-0.4,0.1-0.7,0.3-1.1C0.4,9.4,0.4,9,0.4,8.7L0.1,8.7c0,0,0-0.1,0-0.1C0.2,7,0.9,5.6,1.9,4.3C2,4.5,2,4.7,1.9,4.9
		C1.8,4.9,1.8,5,1.9,5C2,5,2.1,5,2.1,4.9c0.1-0.2,0.2-0.4,0.2-0.6c0-0.1,0-0.2-0.1-0.3C3.5,2.6,5,1.6,6.6,1c0,0.1,0,0.2,0,0.3
		c0,0.1,0.1,0.1,0.2,0.2c0.1,0,0.2-0.1,0.2-0.1c0-0.1,0-0.2,0-0.3c0-0.1,0.1-0.2,0.3-0.2l0.1,0.4l0.1,0C7.5,1.2,7.5,1.1,7.6,1
		c0.1-0.2,0.3-0.4,0.6-0.4c0.2,0,0.3-0.1,0.5-0.1c0,0.1,0.1,0.2,0.1,0.3c0,0.1,0.1,0.3-0.2,0.4C8.4,1.2,8.5,1.4,8.5,1.5
		c0.1-0.1,0.2-0.2,0.3-0.2C8.9,1.2,9,1.1,9.1,0.9c0.1-0.2,0.2-0.4,0.3-0.5c0.7-0.2,1.5-0.3,2.2-0.3c0,0,0,0,0,0
		c0,0.1-0.1,0.2,0.1,0.2c0.2,0,0.1-0.1,0.1-0.2c0,0,0-0.1,0-0.1h4c0.2,0.2,0,0.4,0.3,0.5l0-0.5c0.1,0,0.2,0,0.3,0c0.6,0,1.3,0,1.9,0
		c0.2,0,0.4,0,0.4,0.2C19.1,0.1,19.5,0,19.8,0c14,0,28.1,0,42.1,0c1.3,0,2.6,0,4,0c0.3,0,0.6,0,0.9,0c0,0.1,0.1,0.1,0.2,0.2
		c0,0,0.1,0,0.2,0c0.1,0.1,0,0.3,0.4,0.2c-0.1-0.1-0.2-0.1-0.2-0.2c0-0.1,0.1-0.1,0.1-0.3c0.5,0,0.9,0,1.4,0c0.1,0,0.1,0,0.2,0.1
		c0.2,0,0.4-0.1,0.5-0.1c0.2,0,0.4,0,0.6,0c0.2,0,0.3,0,0.5,0.1c0.1,0.1,0.3,0.1,0.4,0.1l0-0.1l-0.2-0.1l0.3,0l0.1,0.2l0.2-0.1
		l0,0.2l-0.3,0.1l0.4,0.1c0,0.3-0.4,0.5-0.2,0.8c0.3,0,0.2-0.4,0.6-0.4l-0.1-0.2l0.7,0c0,0,0-0.1,0-0.2c-0.1-0.1-0.2-0.1-0.3,0
		c-0.1,0.1-0.2,0.1-0.4,0l0.2-0.5c0.2-0.1,0.4,0,0.5,0.2L72.7,0l0.1,0.1c0,0,0.1,0,0.1,0c0,0,0,0.1,0,0.1C73,0.3,73,0.5,73,0.6
		c0,0.1,0,0.2,0,0.4c0.3,0.2,0.5,0,0.7-0.1l-0.4-0.4c0.2-0.2,0.5-0.1,0.7-0.1c0.2,0,0.4-0.1,0.6-0.1c0.1,0.2,0.1,0.4,0.2,0.6
		c0,0.1,0.1,0.1,0.2,0.1c0-0.1,0-0.2,0.1-0.4c0.1-0.1,0.2-0.2,0.3-0.3l0.2,0.2c0.1,0,0.2-0.1,0.1-0.3h0.4c-0.1,0.1-0.1,0.3-0.2,0.4
		c0,0.1,0,0.1-0.1,0.2c0,0.1,0,0.1-0.1,0.1c0,0,0,0-0.1,0c-0.2-0.1-0.2,0-0.4,0l0.1,0.1l-0.2,0.2L74.9,1l0,0.2l-0.1,0l-0.2-0.4
		L74.3,1c0,0.2,0,0.4-0.1,0.6c-0.1-0.1-0.1-0.1-0.3,0l0.3,0c-0.1,0.1-0.2,0.1-0.1,0.2c0,0.1,0.1,0.1,0.1,0.2l0,0l-0.4,0
		c0,0,0,0,0-0.1c0,0,0,0,0-0.1c0,0-0.1,0-0.1,0C73.6,2,73.6,2,73.1,2.2L73,2c-0.1,0.2-0.3,0.3-0.5,0.1c0,0-0.1,0-0.2,0
		c-0.1,0-0.2,0-0.2,0C71.8,2,71.8,2,71.7,2.2c-0.2,0-0.6,0.1-0.7-0.1l-0.5,0.1c0-0.2,0.2-0.3,0.3-0.4c0.1,0,0.2,0.1,0.3,0
		c0.2-0.1,0.3-0.1,0.5-0.1c0-0.1,0-0.2-0.3-0.2c-0.2,0-0.3,0-0.5,0l0.1,0.2l-0.2,0.1c-0.1-0.2-0.2-0.2-0.4-0.2
		c-0.1,0-0.2,0.1-0.3,0.1l0.1,0.4c-0.2,0-0.4,0-0.5,0c-0.6,0-1.1,0-1.7,0c-0.1,0-0.2,0-0.1-0.1c0.1,0,0.2,0,0.3,0
		c0-0.1,0-0.1-0.1-0.2c-0.1,0-0.2,0.1-0.1,0.1c-0.1-0.1-0.2-0.1-0.3,0c-0.3,0.1-0.7,0.1-1,0c0,0-0.1,0-0.1,0
		c-0.1,0.1-0.3,0.1-0.5,0.1c-0.4,0-0.9,0-1.3,0l0.3-0.5L65,1.9l0.1-0.2l-0.6-0.2c0,0.2-0.1,0.3-0.1,0.4c-0.1,0.2-0.1,0.2-0.4,0.2
		c-1.2,0-2.3,0-3.5,0H21.8l-0.1-0.6c-0.3,0.2-0.1,0.4-0.2,0.5h-8.4c0-0.2,0.1-0.4,0.1-0.6c0-0.1,0-0.3,0.1-0.4c0-0.2,0-0.2-0.3-0.3
		c-0.2,0-0.3,0.2-0.2,0.4c0,0.3,0,0.7,0,1c-0.1,0-0.2,0-0.4,0c-0.7,0-1.5,0-2.2,0.1c-0.3,0-0.6,0.1-0.8,0.2c-0.1,0-0.1,0-0.2,0
		L8.8,2C8.6,2,8.7,2.2,8.5,2.2c0,0.1,0.1,0.2,0.1,0.3c0,0.1-0.1,0.2-0.3,0.3C8,2.9,7.7,3,7.4,3.2L7.1,2.9c0,0.5-0.4,0.6-0.7,0.7
		C6.2,3.4,6.6,3.2,6.4,3C6,3,6.2,3.2,6.1,3.3C6,3.5,6,3.7,6.1,3.8L5.7,4.1L5.5,4c0,0-0.1,0.1-0.1,0.1c0,0.2-0.1,0.3-0.3,0.5
		c-1.2,1-2.1,2.4-2.3,4c0,0.3,0,0.6,0,0.8c0,4.2,0,8.4,0,12.5c0,0.6,0,1.1,0,1.7c0.1,3,2,5.1,5.5,6.4c0.2,0.1,0.4,0.2,0.5,0.2
		c1,0.2,2.1,0.4,3.2,0.4c2.5,0,5,0,7.6,0c1,0,1.9,0,2.9,0c0.3,0,0.5,0,0.8,0c0.1,0.1,0.1,0.3,0.2,0.4c0.1,0.1,0.2,0.2,0.4,0.2
		c0.2-0.2-0.1-0.4-0.1-0.6h3.4L27,30.9l0.4-0.1c0.1,0.2-0.1,0.5,0.4,0.4c0-0.1,0.1-0.1,0.1-0.2c0.2-0.1,0.3-0.3,0.5-0.4
		c0,0,0,0,0.1,0c0,0.2-0.1,0.3,0.2,0.4l0.2-0.1l0-0.4c0.4,0,0.9,0,1.3,0.1c0.1,0,0.1,0,0.2,0c0.2-0.1,0.4,0,0.6,0.1
		c0.1,0.1,0.2,0.1,0.3,0c0.2-0.1,0.4-0.1,0.6-0.1l-0.1,0.1c0,0.1,0.1,0.2,0.1,0.3c0,0.1,0.1,0.2,0.2,0.3l-0.1,0.2
		c0-0.1-0.1-0.1-0.1-0.2c-0.1,0-0.1-0.1-0.2-0.1c-0.2,0.1-0.4,0.2-0.6,0.4c-0.1,0-0.1,0.1,0,0.2c0.3,0.1,0.3,0.2,0,0.3
		c0-0.1-0.1-0.2-0.1-0.3c-0.1-0.1-0.1-0.2-0.2-0.2l0.2-0.1l-0.4-0.3l-0.1,0.4L30,31.3c-0.1,0.2-0.1,0.4-0.2,0.5
		c0,0.1-0.1,0.1-0.2,0.2c0.1,0,0.2,0,0.3,0c0.1,0,0.2,0,0.2,0.1c0,0.2-0.1,0.3,0.2,0.4L30,32.1c0.1,0,0.1,0.1,0.2,0.1
		c0.1,0,0.1,0,0.1-0.1C30.4,32.1,30.3,32.1,30.3,32L30.3,32z M72,1.2l0.2,0.3l0-0.2c0.1,0.1,0.2,0.1,0.3,0c-0.1-0.1-0.1-0.1-0.2-0.2
		c0.1,0.1,0.2,0,0.3,0c-0.2-0.1-0.2,0-0.3,0.1l-0.3,0L72,1.2z M28.5,31.8c0-0.1,0-0.1,0-0.2c0,0-0.1-0.1-0.1-0.1
		c0,0-0.1,0.1-0.1,0.1C28.3,31.7,28.4,31.8,28.5,31.8L28.5,31.8c0.1,0.2,0.2,0.3,0.3,0.4c0.1-0.1,0.2-0.2,0-0.3
		C28.8,31.9,28.6,31.8,28.5,31.8z M26.3,32.2c0,0,0.1-0.1,0.1-0.1c0-0.1-0.1-0.2-0.3-0.2L26.3,32.2c-0.3-0.1-0.2-0.3-0.3-0.4
		c-0.2,0.1-0.3,0.3-0.2,0.3c0.2,0.1,0.3,0.2,0.6,0.3L26.3,32.2z M69.8,1l-0.2,0.1l0.3,0.2L69.8,1c0.1-0.1,0.3,0,0.3-0.2
		c0-0.2-0.2-0.2-0.3-0.2c-0.1-0.1-0.3,0-0.3,0.1c0.1,0.1,0.1,0.2,0.2,0.3C69.6,1,69.7,1,69.8,1L69.8,1z M15.3,1L15.5,1
		c-0.1-0.2-0.1-0.4-0.2-0.6c0-0.1-0.1-0.2-0.1-0.2c-0.1-0.1-0.2-0.1-0.3,0c0,0,0,0,0,0c0,0,0,0.1,0,0.1c0,0.2,0,0.4,0,0.6
		c0.1,0.2,0,0.4,0.2,0.5C15.4,1.3,15.2,1.2,15.3,1z M29.1,30.9c0.2,0.2,0,0.5,0.3,0.8c-0.2,0.2-0.2,0.2,0,0.4c0-0.2,0.3-0.2,0.4-0.2
		c0-0.1-0.1-0.2-0.1-0.2C29.7,31.2,29.3,31.1,29.1,30.9z M2,11.5c0.3-0.4,0.4-0.7,0.2-0.9C2.1,10.6,2,10.7,2,10.7
		C1.9,11,1.9,11.2,2,11.5z M68.4,0.1c-0.3,0.2-0.3,0.3-0.1,0.4c0.1,0.1,0.2,0,0.3-0.1C68.7,0.3,68.7,0.2,68.4,0.1z M21,32.2l0.1,0
		l0.4-0.2c0-0.2-0.2-0.2-0.4-0.2L21,32.2z M68.7,2.1c0.2-0.2-0.1-0.3-0.2-0.4l-0.3,0.1l0,0l0.3,0C68.5,2,68.5,2.1,68.7,2.1z
		 M68.5,0.7c0.1,0.1,0.2,0.1,0.3,0.2c0.1,0,0.2,0,0.3-0.1c0,0,0-0.1,0-0.1c-0.1,0-0.1-0.1-0.2-0.1C68.7,0.6,68.6,0.7,68.5,0.7z
		 M1.8,12L1.8,12c-0.2,0.1-0.2,0.2-0.3,0.4c0,0,0.1,0.1,0.1,0.1c0.1,0,0.2-0.1,0.2-0.1C1.9,12.3,1.9,12.1,1.8,12z M21.3,31
		c0.1,0.2,0.1,0.4,0.4,0.3C21.7,31.1,21.7,31.1,21.3,31L21.3,31z M17.3,31.9c0-0.2-0.1-0.3-0.4-0.3C16.9,31.8,17.1,31.9,17.3,31.9
		L17.3,31.9z M16.6,1.4c0-0.1,0-0.1,0-0.2c0,0-0.1-0.1-0.1-0.1c-0.1,0-0.1,0.1-0.1,0.2C16.4,1.4,16.4,1.5,16.6,1.4z M24.2,31.3
		c0,0.1,0.1,0.2,0.3,0.2c0.1,0,0.1-0.1,0.1-0.2C24.4,31.2,24.3,31.2,24.2,31.3L24.2,31.3z M73.3,2V1.7l-0.5,0.2L73.3,2z M73.9,1
		c0.2-0.2,0.1-0.3-0.2-0.4L73.9,1z M69.2,1.3L69.2,1.3c0-0.1,0-0.2-0.1-0.2c-0.1,0-0.1,0-0.2,0c0,0,0,0.1,0,0.1
		C69,1.2,69.1,1.3,69.2,1.3L69.2,1.3z M7.1,2.1C7.4,2,7.4,1.9,7.2,1.7C7.1,1.8,7,1.9,7.1,2.1C7.1,2,7.1,2.1,7.1,2.1z M17.4,1.8
		l-0.2-0.1c0,0-0.1,0.1-0.1,0.1s0.1,0.1,0.1,0.1L17.4,1.8z M14.4,31.6L14.4,31.6l-0.3-0.3C14.2,31.4,14.2,31.6,14.4,31.6L14.4,31.6z
		 M23.4,31.7L23.4,31.7c0.1,0.1,0.1,0.1,0.2,0.2c0.1,0.1,0.2,0.1,0.2-0.1L23.4,31.7z M27.1,31.3l0.1,0c0.1-0.1,0.1-0.2-0.1-0.3V31.3
		z M1.3,9.1l-0.1,0c0,0.1-0.1,0.2-0.1,0.2c0,0,0.1,0.1,0.1,0.1c0,0,0.1,0,0.1-0.1C1.3,9.2,1.3,9.2,1.3,9.1z M69.9,1.8
		c-0.2,0-0.3-0.1-0.4,0C69.6,2,69.8,2,69.9,1.8z M20.7,1.1C20.6,1,20.6,1,20.6,1c-0.1,0-0.1,0.1-0.1,0.1c0,0,0.1,0.1,0.1,0.1
		C20.6,1.1,20.7,1.1,20.7,1.1z M26.2,31L25.8,31l0.2,0.3L26.2,31z M70.6,0.3l-0.3,0.1C70.5,0.5,70.5,0.5,70.6,0.3z M11.7,1L11.7,1
		c-0.1,0.1-0.2,0.2,0,0.3V1z M31.4,31L31.4,31c0.1,0,0.2,0,0.3,0c0,0,0-0.1,0-0.1c-0.1,0-0.1,0-0.2,0C31.4,30.9,31.4,31,31.4,31z
		 M7.6,1.7L7.6,1.7c0.2-0.1,0.2-0.1,0-0.2L7.6,1.7z M24.8,32.6l0.1,0l-0.1-0.3C24.6,32.5,24.7,32.6,24.8,32.6z M69,1.7L69,1.7
		c0.1,0.1,0.2,0.2,0.4,0.1L69,1.7z M72.6,1.7L72.6,1.7l-0.2-0.2C72.3,1.7,72.5,1.7,72.6,1.7L72.6,1.7z M25.5,31.6
		c0-0.2,0-0.2-0.3-0.2L25.5,31.6z M70.6,1.4c-0.2,0-0.3,0-0.3,0.1C70.4,1.5,70.6,1.5,70.6,1.4C70.6,1.4,70.6,1.4,70.6,1.4z M69,1.4
		L69,1.4l-0.3,0l0.1,0.1L69,1.4z M73.2,1.2l0.2,0.2c0,0,0.1-0.1,0.1-0.1C73.5,1.2,73.4,1.2,73.2,1.2L73.2,1.2z M19.3,30.8
		c-0.1,0-0.1-0.1-0.2-0.1c0,0-0.1,0.1-0.1,0.1c0,0,0.1,0.1,0.1,0.1C19.2,30.9,19.2,30.8,19.3,30.8z M26.7,30.6
		c-0.2,0-0.2,0.1-0.1,0.2C26.7,30.8,26.7,30.7,26.7,30.6z M9.9,2.2l0.2-0.1C9.9,2,9.9,2,9.9,2.2z M29.5,31c0.2,0.1,0.2,0.1,0.3-0.1
		L29.5,31z M73.5,1.7c0.1,0.1,0.2,0.1,0.3,0H73.5z M69.5,1.4c0,0.2,0,0.2,0.2,0.2L69.5,1.4z M20,31.7c-0.1,0.1,0,0.2,0.2,0.2
		L20,31.7z M30.9,31C30.9,31,31,30.9,30.9,31c0.1-0.1,0-0.2,0-0.2c0,0-0.1,0.1-0.1,0.1C30.8,30.9,30.8,31,30.9,31z M29.1,31.7
		c0.1,0,0.1-0.1,0-0.2c0,0-0.1,0-0.1,0C28.9,31.6,28.9,31.6,29.1,31.7L29.1,31.7z M19.5,31.7L19.5,31.7l-0.2-0.2l-0.1,0L19.5,31.7z
		 M67.3,1.2L67.3,1.2c0-0.1-0.1-0.2-0.2-0.1L67.3,1.2z M28.5,31.2c-0.1,0-0.1-0.1-0.1,0c0,0-0.1,0.1-0.1,0.1c0,0,0.1,0.1,0.1,0.1
		C28.4,31.3,28.5,31.3,28.5,31.2z M68.2,1.7L68.2,1.7c0.1,0,0.1-0.1,0.1-0.1c0,0-0.1-0.1-0.1-0.1l0,0L68.2,1.7z M70.6,1.1L70.6,1.1
		L70.4,1l0,0L70.6,1.1z M72.7,0.4c0,0.1,0,0.1,0,0.1c0,0,0,0,0.1,0.1c0,0,0.1,0,0.1-0.1S72.7,0.5,72.7,0.4z M21.1,32.5
		c0.1,0,0.2,0,0.2-0.2L21.1,32.5z M6.8,2.4c-0.1,0-0.1,0-0.2-0.1c0,0-0.1,0-0.1,0c0,0,0,0.1,0.1,0.1C6.7,2.4,6.7,2.4,6.8,2.4z
		 M6.4,30.7C6.4,30.7,6.4,30.6,6.4,30.7c0.1-0.1,0-0.1,0-0.1c0,0-0.1,0-0.1,0C6.3,30.6,6.3,30.7,6.4,30.7z M26.3,32.5l-0.1,0.1
		c0,0,0.1,0.1,0.1,0.1C26.4,32.6,26.4,32.6,26.3,32.5L26.3,32.5z M18.3,31.1L18.3,31.1l-0.1-0.2l-0.1,0L18.3,31.1z M66.5,1.8
		L66.5,1.8c0,0.1,0,0.1,0.1,0.1l0,0C66.6,1.8,66.6,1.8,66.5,1.8z M31.1,30.9C31.1,30.9,31.1,31,31.1,30.9c-0.1,0.1,0,0.1,0,0.1
		C31.2,31,31.2,31,31.1,30.9C31.2,31,31.2,30.9,31.1,30.9z M19.6,31.2L19.6,31.2L19.5,31l0,0L19.6,31.2z M30.6,31.1l0.1,0L30.6,31
		l-0.1,0L30.6,31.1z M26.4,31.3l0.1,0l0-0.2l-0.1,0L26.4,31.3z M25.5,32.1C25.6,32.1,25.6,32.1,25.5,32.1c0.1-0.1,0.1-0.2,0-0.2
		c0,0-0.1,0-0.1,0C25.5,32,25.5,32.1,25.5,32.1L25.5,32.1z M19.9,31.3L19.9,31.3l0,0.2l0.1,0L19.9,31.3z M73.7,1.3
		c0.1,0,0.1,0.1,0.1,0c0,0,0.1,0,0.1-0.1c0,0-0.1,0-0.1,0C73.8,1.3,73.7,1.3,73.7,1.3z M3.3,4.5C3.3,4.5,3.2,4.5,3.3,4.5
		c-0.1,0-0.1,0-0.1,0C3.2,4.5,3.2,4.6,3.3,4.5L3.3,4.5z M68.4,1.1C68.4,1.1,68.4,1.2,68.4,1.1C68.4,1.2,68.4,1.2,68.4,1.1
		C68.5,1.2,68.5,1.2,68.4,1.1C68.5,1.2,68.4,1.1,68.4,1.1z M68,1.2C68,1.2,68,1.2,68,1.2c0.1-0.1,0-0.1,0-0.1
		C68,1.1,67.9,1.1,68,1.2C67.9,1.2,67.9,1.2,68,1.2L68,1.2z M23,1.6L23,1.6c0.1,0,0.1,0,0.1,0L23,1.6C23,1.5,23,1.5,23,1.6z
		 M65.3,0.9L65.3,0.9l0.2,0l0-0.1C65.4,0.9,65.4,0.9,65.3,0.9z M27.4,32.2C27.4,32.1,27.4,32.1,27.4,32.2c0.1-0.1,0.1-0.1,0.1-0.1
		c0,0-0.1,0-0.1,0C27.3,32.1,27.3,32.1,27.4,32.2z M71,0.8c0,0-0.1,0-0.1,0c0,0,0,0,0,0C70.8,0.9,70.9,0.9,71,0.8
		C70.9,0.9,71,0.9,71,0.8z M24.8,32.2L24.8,32.2c-0.1-0.1-0.1-0.1-0.2,0c0,0,0,0.1,0,0.1C24.7,32.2,24.8,32.2,24.8,32.2z M22.7,31.2
		L22.7,31.2l0,0.1l0.1,0L22.7,31.2z M70.1,0.7C70.2,0.6,70.2,0.6,70.1,0.7c0.1-0.1,0-0.1,0-0.1C70.1,0.6,70.1,0.6,70.1,0.7
		C70.1,0.6,70.1,0.6,70.1,0.7z M66.7,1.7c0.1-0.1,0.1-0.1,0.1-0.1c0,0-0.1,0-0.1,0c0,0-0.1,0-0.1,0C66.7,1.6,66.7,1.7,66.7,1.7z
		 M8.3,2.7C8.3,2.7,8.3,2.6,8.3,2.7c0-0.1,0-0.1,0-0.1C8.2,2.6,8.2,2.6,8.3,2.7C8.2,2.7,8.2,2.7,8.3,2.7z M69.8,0.3
		C69.8,0.2,69.8,0.2,69.8,0.3c0-0.1,0-0.1,0-0.1C69.7,0.2,69.7,0.2,69.8,0.3C69.7,0.2,69.7,0.2,69.8,0.3z"/>
	<path class="st0" d="M124.2,14.6c0.2,0.1,0.2,0.3,0.2,0.4c0,0.1,0,0.3,0,0.4l-0.4-0.1l0,0.1c0.1,0.1,0.1,0.1,0.2,0.2
		c0.2,0.1,0.2,0.2,0.2,0.4c0,0.6,0,1.2,0,1.8c0,0.2,0,0.4,0,0.6v2.1l-0.3,0l0.1,0.2l0.2-0.1v1.6l-0.4,0.1c0.1,0.1,0.2,0.1,0.3,0.2
		c0.1,0.1,0.2,0.1,0.1,0.3c0,0,0,0.1,0,0.2c0,0.2,0,0.5,0,0.7l-0.4,0.1l0.4,0.2c0,0.5-0.1,0.9-0.3,1.4c-0.1,0.2-0.1,0.4-0.2,0.6
		c-0.2,0.7-0.5,1.4-0.9,1.9c-0.7,1-1.6,1.9-2.7,2.6c-0.4,0.2-0.8,0.5-1.2,0.7l-0.1-0.2c-0.1,0.4-0.4,0.5-0.7,0.6c0,0-0.1,0-0.1-0.1
		c0-0.1,0.2-0.2,0.1-0.4c-0.1,0.2-0.2,0.3-0.1,0.4c-0.5,0.4-1.2,0.6-1.8,0.7c-0.9,0.2-1.9,0.3-2.8,0.5c-0.5,0.1-0.9,0.1-1.4,0.1
		c-2.2,0-4.5,0-6.7,0c-1.4,0-2.8,0-4.2,0c-0.1,0-0.2,0-0.3,0c0,0,0-0.1,0-0.1c0.1,0,0.2-0.1,0.4-0.2c0.1-0.1,0.1-0.2,0-0.3
		c-0.1-0.1-0.2-0.1-0.3,0c-0.1,0.1-0.2,0.2-0.1,0.3c0,0.1,0.1,0.1,0.2,0.2c-0.3,0.1-0.5,0.1-0.8,0.1c-0.1-0.1,0.2-0.3-0.1-0.4
		c-0.1,0-0.1-0.1-0.3-0.1c0.2,0.2,0.1,0.3,0,0.5c-0.2,0-0.5,0-0.7,0c-2.3,0-4.6,0-6.9,0c-1.6,0-3.2,0-4.8,0H54.1c-2,0-4.1,0-6.1,0
		c-0.2,0-0.4,0-0.6-0.1c-0.1,0-0.2-0.1-0.3,0c-0.2,0.1-0.5,0.2-0.8,0.1c-0.4,0-0.9,0-1.3,0c-1.2,0-2.5,0-3.7,0c-0.1,0-0.1,0-0.2,0
		l0-0.2c-0.1-0.1-0.3-0.1-0.5,0l0.3-0.6l0.2,0.1c0-0.2-0.2-0.4,0-0.6c-0.3,0-0.4,0-0.5,0.2c-0.1,0.3-0.2,0.6-0.3,0.8
		c0,0,0,0.1-0.1,0.1c-0.3-0.1-0.6-0.2-0.9,0c0-0.2,0.1-0.3,0.3-0.3c0.1,0,0.3,0,0.4,0c0.3,0,0.3,0,0.3-0.3l-0.3,0l0-0.1l0,0
		c0.1-0.1,0.2-0.2,0.1-0.3c-0.1,0-0.1,0.1-0.2,0.1c0,0-0.1,0.1-0.1,0.2l0,0c-0.1,0.1-0.2,0.2-0.4,0.2c-0.1,0-0.1,0.1-0.2,0.1
		c-0.1,0.1-0.2,0.3-0.3,0.4h-0.4l-0.1-0.2l-0.2,0.2l-0.2-0.1c-0.2,0.1-0.4,0.2-0.6,0c-0.2,0.1-0.4,0.1-0.6,0.1
		c-0.1-0.2,0.1-0.3,0.2-0.5c-0.2,0-0.2,0.1-0.3,0.2l0,0l0.1-0.3h-0.4c-0.2-0.1-0.1-0.3,0-0.5c0-0.1,0.2-0.3,0.1-0.4
		c-0.1-0.2,0-0.3,0.1-0.4c0.1,0,0.2,0.1,0.3,0.1c0.1,0,0.1-0.1,0.2-0.2c0.2-0.1,0.4-0.1,0.6,0l-0.3,0.1l0.2,0.3
		c-0.2,0-0.2,0-0.2-0.1c0-0.1-0.2-0.1-0.3-0.1c0,0,0,0,0,0c-0.1,0-0.1,0.1-0.1,0.2c0.1,0.2-0.1,0.3-0.2,0.5L37,31.2
		c-0.2,0.1-0.3,0.3-0.3,0.5l0.3-0.1l0.2,0.1l0.2-0.3c0.1,0.1,0.2,0.2,0.1,0.3c-0.1,0.1-0.1,0.2-0.1,0.3l0.6,0
		c0.1-0.1,0.2-0.2,0.3-0.3c0-0.1,0-0.2,0-0.2c0,0,0.1-0.1,0.1-0.1c0.1,0.4-0.1,0.7-0.5,0.8l0.1,0.3l0.4,0v-0.4l0.3,0.1
		c0.1-0.1,0.2-0.1,0.3-0.2c0,0.1,0.1,0.2,0.3,0.2c0,0,0.1-0.1,0.1-0.1L38.9,32c0-0.1,0-0.1,0.1-0.1c0.2,0,0.4-0.1,0.5-0.2
		c-0.2,0-0.3-0.3-0.6-0.1l0.5-1l0.7,0.1l0-0.1c0.4,0,0.7-0.1,1.1,0l0,0.5c0.2-0.1,0.3-0.2,0.5-0.3c0,0.1,0,0.1,0.2,0.1l-0.2-0.1
		c0.1-0.2,0.3-0.1,0.5-0.1v0.4c0.4-0.1,0.3-0.4,0.4-0.5c0.4,0,0.7,0,1.1,0c0.2,0,0.4,0,0.7,0.1c0,0,0.1,0,0.1,0
		c0.3-0.1,0.7-0.1,1-0.1c0.4,0,0.7,0,1.1,0c7.8,0,15.6,0,23.3,0c5.6,0,11.3,0,16.9,0c0.2,0,0.5,0,0.7,0.2c0.1-0.1,0.3-0.2,0.4-0.2
		c1.9,0,3.9,0,5.8,0c0.1,0.1,0.2,0.2,0.3,0.2c0.1,0,0.2-0.1,0.3-0.2c0.8,0,1.6,0,2.4,0c0.4,0,0.8,0.1,1.2,0.1c0.1,0,0.2,0,0.3,0
		c0.2-0.1,0.5-0.1,0.7-0.1c1.1,0,2.2,0,3.3,0c0.3,0,0.7,0,1,0c0.2,0,0.4,0,0.6,0.2c0.1-0.2,0.3-0.2,0.5-0.2c1.1,0,2.3,0,3.4,0
		c0.1,0,0.3,0,0.4,0.1c0,0.1,0.2,0.1,0.3,0c0.1-0.1,0.2-0.1,0.3-0.1c0.7,0,1.3,0,2,0c1.2,0,2.5,0,3.7-0.2c2-0.3,3.8-1.2,5.3-2.5
		c0.6-0.6,1.1-1.2,1.4-2c0.4-0.8,0.6-1.7,0.5-2.5c0-0.3,0-0.6,0-0.8c0-0.1,0.1-0.2,0.1-0.3c-0.2,0-0.1-0.1-0.1-0.2c0-0.5,0-1,0-1.5
		c0-0.3,0.1-0.5,0.1-0.8c0-0.2,0-0.4-0.1-0.6c0-0.1,0-0.3,0.2-0.3c0,0,0,0,0,0c-0.2-0.1-0.2-0.1-0.2-0.3c0-0.4,0-0.8,0-1.2
		c0-0.1,0-0.3,0-0.4c0-0.2,0-0.4,0.2-0.5c0.1-0.1,0.1-0.1-0.1-0.2V16l0.2,0c0.1-0.2,0.1-0.4,0-0.5l-0.2,0.4c0-0.1,0-0.1,0-0.2
		c0-0.8,0-1.7,0-2.5c0-0.1,0.1-0.2,0.1-0.3c0-0.1,0.2-0.1,0.2-0.1l0.1,0c0-0.1,0-0.2,0-0.3c0-0.1,0-0.2,0.1-0.2
		c0.1-0.1,0.1-0.1,0.1-0.2c-0.1-0.1,0.1-0.2,0.1-0.3c0.3-0.3,0.5-0.7,0.5-1.1c0-0.2,0.1-0.4,0.2-0.6c0.1-0.2,0.2-0.4,0.4-0.5l0,0.4
		l0.1,0c0.1-0.2,0.3-0.5,0.4-0.7c0.1-0.2,0.2-0.2,0.4,0l-0.2,0.1l0,0l0.3,0c0,0.4,0,0.9-0.1,1.3c0,0,0,0.1,0,0.1c0,0.2,0,0.5,0,0.7
		c0,0.4-0.1,0.8-0.1,1.1c0,0,0,0.1,0,0.1c0.2,0.1,0.2,0.3,0.2,0.4c0.1,0.3,0,0.6-0.2,0.9c-0.1,0.1-0.1,0.2-0.1,0.4
		C124.1,14.6,124.2,14.6,124.2,14.6L124.2,14.6z M42,31.4l-0.1,0.2l0.3-0.1L42,31.4l0-0.2l-0.3,0.2l0,0C41.8,31.4,41.9,31.4,42,31.4
		z M38.9,32.4l-0.2-0.1C38.7,32.4,38.8,32.4,38.9,32.4l0,0.2c0.2-0.1,0.3-0.2,0.2-0.3C39.1,32.4,39,32.4,38.9,32.4L38.9,32.4z
		 M39.6,30.9c0.2,0.3-0.3,0.3-0.2,0.4h0.5l0,0.3c0.2-0.2,0.3-0.4,0.5-0.5c0.1,0,0.2,0.1,0.3,0.1c0.1,0,0.2-0.1,0.2-0.3
		c-0.2-0.1-0.3,0.1-0.5,0c-0.2-0.1-0.2,0.2-0.4,0.1l0.1-0.2L39.6,30.9z M98.8,32.3c-0.1-0.1-0.3-0.2-0.4-0.3c-0.2-0.1-0.4-0.1-0.4,0
		c0,0.1,0,0.2,0.1,0.3c0.1,0.1,0.2,0.1,0.3,0.1c0.1-0.1,0.2-0.1,0.3,0C98.8,32.3,98.8,32.3,98.8,32.3L98.8,32.3z M123.3,10.1
		c-0.1,0.1-0.1,0.1-0.1,0.2c0,0.1,0,0.2,0.1,0.4c0,0.1-0.2,0.2-0.2,0.3c0,0.2-0.1,0.3-0.3,0.4c0.4,0,0.4-0.3,0.6-0.4
		c0-0.1-0.1-0.2-0.1-0.3C123.4,10.5,123.4,10.3,123.3,10.1z M123.7,16.2c0.3,0.1,0.1,0.3,0.2,0.4c0.1,0,0.2,0,0.2-0.1
		c-0.1-0.1,0-0.3,0.1-0.4c0-0.1,0-0.1,0-0.2C124,16,123.7,16.1,123.7,16.2L123.7,16.2z M124.3,21.6c-0.2,0.2-0.6,0.1-0.6,0.3
		l0.5,0.1L124.3,21.6z M123.9,9.7L123.9,9.7c-0.1,0.1-0.1,0.2-0.1,0.2c0.1,0.1,0.2,0.2,0.3,0.3c0.1,0,0.1,0,0.2,0c0,0,0-0.1,0-0.1
		C124.2,10,124,9.8,123.9,9.7L123.9,9.7z M95.8,32c0.1,0,0.2-0.1,0.2-0.2c0,0,0,0,0,0c0-0.1,0-0.2-0.2-0.2c-0.1,0-0.2,0.1-0.3,0.2
		C95.6,31.9,95.7,32,95.8,32z M75.2,31.4c0.1-0.2,0.1-0.4,0-0.6C75,31,75,31.1,75.2,31.4z M101.8,31c-0.1-0.1-0.2-0.1-0.3-0.1
		c-0.1,0-0.3,0.1-0.3,0.2c0,0.1,0.1,0.1,0.2,0.1C101.5,31.1,101.6,31,101.8,31z M98.6,30.9c0.1,0,0.2,0.1,0.2,0.1
		c0.1,0,0.2-0.1,0.2-0.1c0-0.1-0.1-0.1-0.2-0.1C98.8,30.7,98.6,30.7,98.6,30.9z M122.2,18.9c0.2-0.2,0.2-0.4,0.2-0.6
		C122.3,18.4,122.2,18.6,122.2,18.9z M122.9,12c0.4-0.1,0.5-0.2,0.3-0.4L122.9,12z M123.8,12L123.8,12c0,0.2,0.1,0.4,0.4,0.4
		c0-0.1,0-0.1,0-0.1C124,12.2,123.9,12.1,123.8,12z M100.6,30.6c-0.1,0.1-0.1,0.1-0.1,0.2c0,0,0.1,0.1,0.1,0.1c0.1,0,0.2,0,0.2-0.1
		C100.8,30.7,100.7,30.7,100.6,30.6z M123.7,13.8l0.1,0.5C124,14,124,14,123.7,13.8z M122.8,13.5L122.8,13.5l0.5,0.3
		C123.2,13.6,123,13.6,122.8,13.5L122.8,13.5z M123.9,18.4l0.3-0.1c-0.1-0.1-0.1-0.1-0.2-0.2c0,0-0.1,0-0.1,0L123.9,18.4z
		 M122.6,19.2c0.2,0,0.4,0,0.6-0.1C123,19,122.8,19.1,122.6,19.2z M100,31.8c0.1,0.2,0.1,0.2,0.3,0.1L100,31.8z M122.5,27.3
		c0.2-0.1,0.2-0.1,0.2-0.2c0,0,0-0.1,0-0.1l-0.1,0L122.5,27.3z M94.6,31.7c-0.1,0.1-0.1,0.1-0.1,0.2c0,0,0.1,0.1,0.2,0.1
		c0,0,0.1-0.1,0.1-0.1C94.7,31.8,94.6,31.8,94.6,31.7z M122.4,12.4c0.2-0.1,0.1-0.2,0-0.4C122.2,12.2,122.5,12.3,122.4,12.4z
		 M123.1,21.6l0.1,0l0.2-0.4l-0.1,0L123.1,21.6z M122.2,19.1c-0.2,0-0.2,0.1-0.2,0.4C122.2,19.5,122.1,19.3,122.2,19.1z M122.2,24.8
		L122.2,24.8l-0.2,0.4l0.1,0L122.2,24.8z M98,31.3c-0.1,0-0.1-0.1-0.1-0.1c0,0-0.1,0-0.1,0.1l0.1,0.1L98,31.3z M122.2,21.3
		c-0.2,0-0.2,0.1-0.2,0.2c0,0,0.1,0,0.1,0C122.2,21.5,122.2,21.4,122.2,21.3C122.2,21.3,122.2,21.3,122.2,21.3z M104.8,31.1
		c0.1-0.1,0.1-0.1,0.1-0.1c0,0-0.1-0.1-0.1-0.1c0,0-0.1,0.1-0.1,0.1C104.7,31,104.7,31,104.8,31.1L104.8,31.1z M122.4,14.3
		c0.1-0.2,0.1-0.2,0-0.3V14.3z M124.1,24.5l-0.3,0C124,24.6,124,24.6,124.1,24.5L124.1,24.5z M113.2,32.5c-0.1,0-0.1-0.1-0.2-0.1
		c0,0-0.1,0.1-0.1,0.1c0,0,0.1,0.1,0.1,0.1L113.2,32.5z M44.1,31.8L44.1,31.8l0.3-0.2l-0.1,0L44.1,31.8z M121.9,13.6l0.1,0v-0.3
		l-0.1,0L121.9,13.6z M42.3,31.8l0,0.2l0.1,0l0.2-0.2L42.3,31.8z M92.3,30.9l-0.2-0.1c0,0-0.1,0.1-0.1,0.1c0,0,0.1,0.1,0.1,0.1
		C92.1,31,92.2,30.9,92.3,30.9L92.3,30.9z M41.8,31.9c-0.1,0.1-0.2,0.1-0.2,0.2C41.8,32.1,41.8,32,41.8,31.9L41.8,31.9z M122.8,14.7
		c0.1-0.2,0.1-0.2,0-0.3V14.7z M123.6,23.9L123.6,23.9l0.2,0.1c0,0,0-0.1,0-0.1C123.7,23.9,123.6,23.9,123.6,23.9L123.6,23.9z
		 M121.7,14.1l0.1,0l0-0.3l-0.1,0L121.7,14.1z M102,32.5l-0.1-0.1c0,0-0.1,0.1-0.1,0.1c0,0,0,0.1,0.1,0.1L102,32.5z M102.4,30.8
		l-0.3,0.1C102.3,31,102.4,30.9,102.4,30.8z M93.8,32.4c0,0-0.1,0-0.2,0c0,0-0.1,0-0.1,0.1c0,0,0.1,0.1,0.1,0.1
		C93.8,32.5,93.8,32.5,93.8,32.4z M120.3,27.5L120.3,27.5l-0.1,0.2l0.1,0L120.3,27.5z M123.9,20.5c-0.1,0-0.1-0.1-0.1-0.1
		c0,0-0.1,0-0.1,0c0,0,0.1,0.1,0.1,0.1C123.7,20.6,123.8,20.5,123.9,20.5z M46.9,31.5c0.2-0.1,0.2-0.1,0.2-0.2L46.9,31.5z
		 M44.4,32.2L44.4,32.2c-0.2,0-0.2,0-0.2,0.1L44.4,32.2z M123.5,11.2l-0.1,0l0.1,0.1l0.1,0L123.5,11.2z M85.2,31.1
		C85.2,31.1,85.1,31.1,85.2,31.1c-0.1-0.1-0.1,0-0.2,0L85.2,31.1L85.2,31.1z M43.9,32.5c0.1,0.1,0.2,0.2,0.3,0L43.9,32.5z
		 M101.7,31.4L101.7,31.4l0.1-0.2c0,0-0.1,0-0.1,0C101.7,31.3,101.7,31.4,101.7,31.4z M93.3,31.8C93.2,31.8,93.2,31.8,93.3,31.8
		c-0.1,0.1-0.1,0.2,0,0.2c0,0,0.1,0,0.1-0.1C93.4,31.9,93.3,31.8,93.3,31.8z M37.1,31.9L37.1,31.9l0.2,0.2
		C37.3,31.9,37.1,31.9,37.1,31.9L37.1,31.9z M101.3,31.7c0,0,0.1-0.1,0.1-0.1s-0.1-0.1-0.1-0.1C101.3,31.5,101.3,31.6,101.3,31.7
		C101.3,31.6,101.3,31.6,101.3,31.7L101.3,31.7z M120.5,28c-0.2,0.1-0.2,0.1-0.1,0.3L120.5,28z M123.3,15.2c-0.2,0-0.3,0.1-0.2,0.2
		L123.3,15.2z M123.8,23.6L123.8,23.6l0.2,0l0-0.1L123.8,23.6z M123.7,23.2c0,0-0.1-0.1-0.1-0.1c0,0,0,0-0.1,0c0,0,0.1,0,0.1,0.1
		C123.6,23.2,123.7,23.2,123.7,23.2L123.7,23.2z M102.6,31C102.6,31,102.6,31,102.6,31c0,0.1,0,0.1,0,0.1L102.6,31L102.6,31z
		 M96.6,31.2C96.6,31.2,96.6,31.2,96.6,31.2c-0.1-0.1-0.2,0-0.2,0c0,0,0,0.1,0.1,0.1C96.5,31.3,96.6,31.3,96.6,31.2L96.6,31.2z
		 M122.9,14.1c0-0.2,0-0.2-0.2-0.1L122.9,14.1z M123.7,12.7L123.7,12.7C123.7,12.8,123.7,12.8,123.7,12.7L123.7,12.7L123.7,12.7z
		 M44.4,31.9c-0.1,0-0.1,0-0.2,0c0,0-0.1,0-0.1,0c0,0,0,0.1,0.1,0.1L44.4,31.9z M105.4,32.1L105.4,32.1
		C105.3,32.1,105.3,32.1,105.4,32.1C105.4,32.1,105.4,32.1,105.4,32.1L105.4,32.1z M92.5,32.4C92.5,32.4,92.4,32.4,92.5,32.4
		c-0.1,0-0.1,0-0.1,0C92.4,32.5,92.4,32.5,92.5,32.4L92.5,32.4z M123.9,24.3C123.9,24.3,123.8,24.3,123.9,24.3c-0.1,0-0.1,0-0.1,0
		C123.8,24.3,123.9,24.3,123.9,24.3C123.9,24.3,123.9,24.3,123.9,24.3L123.9,24.3z"/>
	<path class="st0" d="M87.2,2.1c0.2-0.3,0.6-0.4,0.7-0.8c0-0.1,0.2-0.2,0.3-0.2L88,0.7l0.2-0.1C88,0.4,88,0.3,88.3,0.2l-0.1-0.1
		c0.1,0,0.1-0.1,0.2-0.1c0.5,0,1.1,0,1.6,0c2.9,0,5.8,0,8.7,0h0.5l0.3,0.4c0.2-0.1,0.1-0.3,0.2-0.4c0.1,0,0.2,0,0.3,0
		c4.2,0,8.3,0,12.5,0c0.9,0,1.8,0.1,2.7,0.3c0.4,0.1,0.7,0.1,1,0.2c-0.1,0.2-0.2,0.4-0.3,0.6c0,0,0,0.1,0.1,0.1
		c0.2-0.1,0.4-0.3,0.5-0.6c0.2,0,0.2,0.1,0.2,0.2c0,0.1,0,0.2,0.1,0.2l0.2,0l-0.1,0.4c0.3-0.1,0.3-0.4,0.6-0.5c0,0.1,0,0.3-0.1,0.4
		c-0.1,0.2-0.1,0.3-0.3,0.4c-0.2,0.1,0,0.3-0.2,0.4c0,0.4,0,0.4-0.4,0.8c-0.6-0.2-1.3-0.3-1.9-0.5c-0.7-0.2-1.5-0.2-2.2-0.2
		c-2.3,0-4.6,0-6.9,0h-8.8c-1.5,0-2.9,0-4.4,0c-0.1,0-0.2,0-0.3,0c-0.1-0.3,0.2-0.6-0.2-0.9c-0.2,0.1-0.3,0.2-0.2,0.4
		c0,0.2,0,0.3,0,0.5c-0.5,0-0.9,0-1.3,0c-0.1,0-0.1-0.1-0.2-0.1c-0.1,0.1-0.3,0.2-0.5,0.1c-0.4,0-0.7,0-1.1,0c-0.2,0-0.3,0-0.5-0.1
		c-0.1,0.1-0.3,0.1-0.6,0.1C87.3,2.2,87.3,2.1,87.2,2.1L87.2,2.1z M93.9,1.9l0.1,0V1.6l0.3-0.1c-0.1-0.2-0.2-0.4-0.2-0.7l0.4-0.1
		c-0.2-0.2-0.4-0.2-0.6-0.2c-0.2,0-0.2,0.1-0.2,0.3c0,0.1,0,0.3,0,0.4C93.7,1.5,93.7,1.8,93.9,1.9L93.9,1.9z M90.5,0.4
		c0,0.1-0.1,0.3-0.1,0.4c0,0,0,0.1,0.1,0.1c0,0,0.1,0,0.1,0C90.6,0.7,90.7,0.5,90.5,0.4z M94.9,0.5l-0.1,0c-0.1,0.2-0.1,0.4,0,0.5
		c0,0,0.1,0,0.2,0L94.9,0.5z M95.3,2L95.3,2c0.1-0.1,0.1-0.1,0.1-0.2c0-0.1,0-0.1-0.1-0.2c0,0-0.1,0-0.1,0c0,0.1,0,0.1,0,0.2
		C95.2,1.9,95.2,2,95.3,2z M116.2,1.4C116,1.6,116,1.6,116,1.8C116.2,1.7,116.3,1.6,116.2,1.4L116.2,1.4z M99.3,1.7
		c0.1,0,0.1-0.1,0.1-0.1c0,0-0.1-0.1-0.1-0.1l-0.1,0.1L99.3,1.7z M89.1,0.3c0.1,0.1,0.3,0.2,0.4,0.1C89.4,0.3,89.3,0.2,89.1,0.3z
		 M90.5,1.5c-0.2,0.1-0.2,0.2,0,0.3V1.5z M102.1,0.2c-0.1-0.1-0.2-0.1-0.3,0c0,0,0,0.1,0,0.1C101.9,0.3,102,0.3,102.1,0.2z
		 M89.7,1.6c0.1-0.1,0.1-0.1,0-0.2c0,0-0.1,0-0.1,0C89.5,1.5,89.5,1.6,89.7,1.6z M97.8,0.6c0-0.1-0.1-0.1-0.2-0.1c0,0,0,0,0,0
		c0,0,0,0.1,0,0.1L97.8,0.6z M91.4,1C91.3,1,91.3,1,91.2,1c0,0-0.1,0-0.1,0.1c0,0,0.1,0.1,0.1,0.1C91.3,1.1,91.3,1,91.4,1z
		 M88.7,1.5L88.7,1.5l-0.1-0.1l0,0C88.6,1.4,88.6,1.5,88.7,1.5z M91.4,0.2L91.4,0.2l-0.2-0.1l0,0.1L91.4,0.2z"/>
	<path class="st0" d="M122.3,7.8c0.1,0.2,0,0.5-0.2,0.6C122,8.4,122,8.6,122,8.7c0.2-0.1,0.5-0.1,0.7-0.1c0,0,0,0.1,0,0.1
		c-0.3,0.1-0.5,0.4-0.6,0.7c0,0.2-0.2,0.4-0.4,0.5c-0.1-0.1,0-0.3,0.1-0.4c0.2-0.1,0.2-0.3,0.2-0.5l-0.3,0.1c0,0,0-0.1,0-0.1
		c0-0.8-0.2-1.5-0.5-2.2c-0.2-0.4-0.5-0.8-0.7-1.2c-0.2-0.2-0.2-0.4,0-0.6c0.1-0.1,0.1-0.1,0.2-0.2V4.6l0.2,0l0.4-1.6
		c0.1,0,0.2,0.1,0.3,0.2l-0.2,0.1l0.2,0.2l0.3-0.2c0.4,0.3,0.7,0.7,1,1.1c-0.1,0-0.3,0-0.2,0.2l0.2-0.2c0.2,0.1,0.1,0.3,0.2,0.4
		l0.1,0c0,0,0,0,0,0c-0.1,0.1,0.1,0.3-0.1,0.4c-0.1,0.1,0,0.3-0.1,0.4c0,0.1-0.1,0.2-0.2,0.2c0,0-0.1,0.1-0.1,0.1c0,0.2,0,0.4,0,0.6
		c0,0,0.1,0.1,0.2,0.1c0.2,0,0.2,0,0.4,0.2l-0.5,0.3C122.7,7.6,122.6,7.6,122.3,7.8C122.3,7.7,122.3,7.7,122.3,7.8L122.3,7.8
		L122.3,7.8z M121.5,3.8C121.5,3.8,121.5,3.8,121.5,3.8c-0.2,0.2-0.3,0.5-0.1,0.7c0,0,0,0,0,0c0,0,0.1,0,0.1,0
		c-0.1,0.1-0.2,0.1-0.1,0.3c0.1,0.1,0,0.2-0.2,0.2c-0.1,0-0.1,0.1-0.1,0.1c0,0.1,0,0.2,0,0.3l0,0l0.1-0.2c0.2,0.1,0,0.3,0.3,0.4
		c0-0.2,0.1-0.3,0.1-0.5c0.1-0.2,0.1-0.3,0.2-0.5l-0.2-0.2l-0.2,0.1C121.5,4.3,121.5,4,121.5,3.8l0.2,0.4c0.1-0.1,0.1-0.2,0.1-0.3
		C121.8,3.8,121.6,3.7,121.5,3.8z M122,6.9c0.2-0.7,0.3-0.7,0-0.9c-0.1,0.3-0.2,0.5-0.2,0.7C121.7,6.8,121.8,6.9,122,6.9z
		 M121.1,4.7l-0.3,0.5C121,5.2,121.1,5,121.1,4.7C121.1,4.7,121.1,4.7,121.1,4.7z M122.3,7.5l0.3-0.4C122.2,7.1,122.2,7.2,122.3,7.5
		L122.3,7.5z M121.3,6.9l0.3,0.1c0-0.2,0-0.2-0.2-0.2L121.3,6.9z M122.2,7L122.2,7l0.1-0.3C122.1,6.8,122.1,6.9,122.2,7L122.2,7z
		 M122.1,7.7c-0.2,0.1-0.2,0.1-0.1,0.2L122.1,7.7z M122.6,4.9c-0.2,0.1-0.2,0.1-0.2,0.2L122.6,4.9z M121.8,4.1
		c0.1-0.1,0.1-0.2,0-0.3L121.8,4.1z M121.7,8.3c0.2,0,0.2-0.1,0.2-0.1c0,0,0,0,0-0.1L121.7,8.3z M121.7,8L121.7,8
		c-0.1,0-0.1,0-0.1,0.1l0.1,0C121.7,8.1,121.7,8.1,121.7,8L121.7,8z"/>
	<path class="st0" d="M119.5,3.9l-0.1,0.7l-0.5-0.4c0.1-0.1,0.1-0.3,0.1-0.4c0-0.1,0.1-0.2-0.2-0.2c0.1-0.2,0.2-0.3,0.2-0.5
		c0,0,0-0.1-0.1-0.2c0,0-0.1,0-0.1,0c0,0-0.1,0.1-0.1,0.2c0,0.1,0,0.3-0.1,0.4c0,0,0.1,0.1,0.1,0.1l-0.1,0.5
		c-0.2-0.1-0.4-0.3-0.6-0.4c-0.2-0.1-0.4-0.3-0.5-0.4c-0.2-0.1-0.4-0.2-0.7-0.3c0-0.1,0.1-0.2,0.1-0.3c0.1-0.2,0.1-0.3,0-0.5
		c0-0.1,0-0.1,0-0.2c0.2-0.3,0.4-0.6,0.6-1c0.1-0.1,0.1-0.1,0.2-0.2l0.1,0.4l0.1,0l0.2-0.3c0.4,0.2,0.9,0.4,1.3,0.6
		c0,0.1-0.1,0.1-0.2,0.2c-0.2,0.1-0.2,0.1,0,0.3c0,0,0,0,0,0.1c0,0,0,0,0.1,0c0.2-0.1,0-0.4,0.2-0.5c0.2,0.1,0.2,0.2,0.1,0.4
		c-0.1,0.2-0.1,0.4-0.2,0.6c-0.1,0.2-0.1,0.3-0.2,0.5c-0.1,0.1,0,0.2,0.1,0.2l0,0c-0.1,0.2-0.3,0.3-0.1,0.5L119.5,3.9z M117.7,1.8
		L117.7,1.8l0.2-0.2l-0.1,0L117.7,1.8z"/>
	<path class="st0" d="M83.1,2c0.2-0.2,0.3-0.5,0.2-0.8l0,0c0.2-0.1,0.4,0,0.6,0l0,0l-0.1,0.2c0.1,0,0.2,0.1,0.2,0.2
		c0,0.1-0.1,0.1-0.1,0.2c0,0.1-0.1,0.1-0.1,0.2c0.6,0,0.6,0,0.8-0.2c0-0.2-0.1-0.2-0.4-0.1c0.2-0.2,0.6-0.4,0.3-0.7
		c0.3-0.1,0.5,0,0.5,0.1c-0.1,0.2,0.1,0.2,0.2,0.4c0.1-0.1,0.2-0.1,0.2-0.2c0-0.1,0-0.2-0.1-0.3C85,1,85,0.8,85.1,0.7l0.2,0
		l-0.1-0.2l0.3-0.3l-0.6-0.1l0-0.1c0.2-0.1,0.3,0,0.4,0.1l0.2-0.1c0,0,0.1,0,0.1,0c0,0.1,0,0.2,0,0.4c0,0.2,0,0.3-0.2,0.4
		c-0.1,0-0.1,0.2-0.1,0.2c0.2,0.2,0.1,0.4,0.1,0.7c0,0.1,0,0.1-0.1,0.2c0,0.1,0,0.2,0.3,0.2c0.2-0.3,0-0.6,0.1-0.9
		c0.1-0.3,0.1-0.6,0.2-0.9C85.9,0.3,86,0.3,86,0.3c-0.1,0.1-0.1,0.3-0.1,0.4c0,0.1-0.1,0.2-0.1,0.3c0.1,0.2,0.2,0.4,0.1,0.6
		c0,0,0,0,0,0.1c0,0.1,0.1,0.1,0.1,0.2l0.4-0.1c0-0.1-0.1-0.1-0.1-0.2c0.2-0.2,0.2-0.4,0.2-0.7c0.1-0.2,0.1-0.5,0.1-0.7
		C86.7,0.1,86.8,0,87,0c0.3,0,0.5,0,0.8,0l0.1,0.4c-0.5,0.2-0.4,0.6-0.4,1c-0.1,0-0.4,0-0.3,0.2c0,0-0.1,0.1-0.3,0.1
		c0.2,0,0.3,0.2,0.3,0.3l0,0c-0.2,0.1-0.3,0.2-0.5,0.1c-0.1,0-0.2-0.1-0.3-0.2l-0.1,0.2h-1.6c0,0,0-0.1,0-0.1
		C84.9,2,84.9,2,84.9,1.8c-0.1,0.1-0.3,0.1-0.2,0.2c-0.1,0-0.2,0-0.2,0c-0.1,0.1-0.2,0.1-0.3,0.1c-0.3,0-0.7,0-1,0
		c-0.2,0-0.2,0-0.3-0.2L83.1,2c0.1,0.1,0.1,0.1,0.3,0L83.1,2z M86.8,1.4c-0.1,0-0.2-0.1-0.2,0c0,0.1,0,0.1,0.1,0.1
		C86.9,1.5,86.8,1.4,86.8,1.4c0.2,0,0.2,0,0.2-0.2L86.8,1.4z M86.9,0.4L86.9,0.4l0-0.2l-0.1,0L86.9,0.4z"/>
	<path class="st0" d="M119.4,3.6l0.3-0.3c-0.2-0.3,0.1-0.4,0.2-0.7c0.1-0.1,0.2-0.3,0.3-0.4l0.3,0.2L120,2.9l0.1,0l0.4-0.4
		c0.1,0,0.1,0.1,0.1,0.2c0,0.1-0.1,0.2-0.1,0.2c0,0.1,0,0.2,0.2,0.3l0.2-0.4c0.1,0.1,0,0.4-0.3,0.7c0,0.4,0,0.8-0.2,1.2V4.2l-0.1,0
		c-0.1,0.2-0.2,0.4-0.3,0.6c0-0.1-0.1-0.1-0.1-0.2c0.1-0.2,0.1-0.4,0.3-0.5c0.2-0.3,0.2-0.6,0.1-0.9c-0.2,0.1-0.3,0.3-0.3,0.5
		c0,0.2,0,0.4-0.1,0.6c0,0.1-0.1,0.3-0.2,0.4c-0.2-0.1-0.1-0.2-0.1-0.2c0.1-0.2,0.2-0.3,0.1-0.6c0-0.1,0-0.1,0.1-0.2l-0.2,0.1
		C119.5,3.8,119.5,3.6,119.4,3.6L119.4,3.6z"/>
	<path class="st0" d="M122.7,9.8c-0.1-0.3,0.2-0.5,0.4-0.7L123,9l-0.5,0.2c0.3-0.5,0.5-1,0.6-1.6c0.1,0.1,0.1,0.1,0.1,0.4
		c0,0.1-0.2,0.2,0.1,0.4c0-0.1,0.1-0.2,0.1-0.4c0-0.1,0-0.3,0-0.4c0.1-0.1,0.2-0.2,0.3-0.3c0,0.1,0,0.2-0.1,0.4c0,0.1-0.2,0.2,0,0.3
		c0,0-0.1,0.2-0.1,0.2c-0.1,0.1-0.2,0.4,0,0.5c0,0,0.1,0.1,0.1,0.1c0.1,0.1,0,0.2-0.2,0.2l0,0.3c-0.1,0-0.2,0-0.3,0.1
		c-0.1,0.1-0.1,0.1-0.2,0.2C122.8,9.6,122.7,9.7,122.7,9.8L122.7,9.8z"/>
	<path class="st0" d="M122.7,9.8c-0.1,0.2-0.1,0.3-0.2,0.5c-0.1,0.1-0.2,0.3-0.1,0.5c0,0.1,0,0.2-0.1,0.3c-0.1,0.2-0.2,0.4-0.4,0.7
		c-0.1,0.1-0.1,0.2-0.2,0.2c-0.1-0.2-0.2-0.4,0-0.6c0.1-0.1,0.1-0.2,0.1-0.4l-0.2,0.1c-0.1-0.1,0-0.6,0.1-0.8c0.2,0,0.1,0.1,0.1,0.2
		c0,0.1,0,0.2,0,0.3c0.2,0,0.3-0.2,0.3-0.3c0-0.1,0.1-0.3,0.2-0.4c0.1-0.1,0.2-0.2,0.3-0.4C122.6,9.7,122.6,9.8,122.7,9.8L122.7,9.8
		z"/>
	<path class="st0" d="M34.4,31c-0.1,0-0.1,0.2-0.3,0.1c0,0-0.1,0.1-0.1,0.1c-0.1,0.2-0.2,0.3-0.2,0.5c0,0,0,0.1-0.1,0.1
		c-0.1-0.2-0.3-0.5,0.1-0.6c0-0.2-0.1-0.2-0.3-0.2c-0.1,0-0.2-0.1-0.4,0l0.2-0.3h0.3l0.1,0.2c0.2,0,0.4-0.1,0.5-0.3L34.4,31L34.4,31
		z"/>
	<path class="st0" d="M83.8,1.2c0-0.1,0-0.2-0.1-0.3c-0.3-0.1-0.3-0.1-0.2-0.4c0.2,0,0.3-0.1,0.5-0.1C84,0.4,84,0.3,84.1,0.1
		l-0.3,0.1L83.8,0l0.5,0.1c-0.2,0.2,0,0.3-0.2,0.4C84.2,0.7,83.9,0.8,84,1C84,1.1,84,1.2,83.8,1.2L83.8,1.2z"/>
	<path class="st0" d="M31.7,32.4l-0.2,0.1c0,0-0.1-0.1-0.1-0.1c-0.1-0.1-0.2-0.2,0-0.3l0.3,0.1l0.1-0.5l0.2,0l-0.2,0.5
		c0.1,0.1,0.3,0.1,0.1,0.2C31.9,32.6,31.8,32.5,31.7,32.4z"/>
	<path class="st0" d="M74.2,2c0.3,0,0.5-0.1,0.8-0.1c0.1,0,0.2,0.1,0.3,0.1l0.3-0.2l0.1,0.2c-0.4,0.2-0.6,0-1-0.1
		c-0.1,0.2-0.3,0.2-0.5,0.2C74.3,2.1,74.3,2,74.2,2L74.2,2z"/>
	<path class="st0" d="M124.2,8.3c0.1,0.1,0.1,0.2,0.1,0.2c-0.2,0.2-0.1,0.3,0,0.5c0,0,0,0.1-0.1,0.1L124,8.8c-0.1,0,0,0.3-0.3,0.2
		C123.7,8.7,124,8.5,124.2,8.3z"/>
	<path class="st0" d="M33.5,31.8c-0.2,0.2-0.3,0.4-0.1,0.6l-0.2,0.2c0,0,0,0,0,0c0-0.1,0-0.1,0-0.2c-0.2,0.1-0.1,0.3-0.3,0.2
		c0.1-0.1,0.1-0.3,0.2-0.4C33.2,32,33.2,31.8,33.5,31.8z"/>
	<path class="st0" d="M76.2,1.8c0.1-0.1,0.1-0.2,0.1-0.2c0.2,0,0.3-0.2,0.4-0.3c0-0.1,0.1-0.1,0.2-0.1c0,0.1,0,0.2,0,0.2
		C77,1.6,77,1.6,76.8,1.6C76.6,1.7,76.5,1.8,76.2,1.8z"/>
	<path class="st0" d="M32.7,31.2c-0.2,0.1-0.4,0.1-0.2,0.3c-0.1,0-0.1,0.1-0.2,0.1l-0.1-0.5C32.3,31.1,32.6,30.9,32.7,31.2z"/>
	<path class="st0" d="M39.1,30.7c-0.5,0-0.3,0.3-0.4,0.5c-0.2-0.2,0.1-0.4,0-0.6L39.1,30.7L39.1,30.7z"/>
	<path class="st0" d="M119.4,3.6c0.2,0.1,0.2,0.2,0.1,0.3c0,0,0,0,0,0l-0.2,0.2C119,3.9,119.3,3.8,119.4,3.6z"/>
	<path class="st0" d="M123,6.4c-0.2-0.2-0.1-0.4,0-0.6C123.1,6,123.1,6.1,123,6.4z"/>
	<path class="st0" d="M83.1,1.4h-0.3l-0.1-0.1l-0.2,0.1l0-0.2C82.8,1.1,83,1.2,83.1,1.4L83.1,1.4z"/>
	<path class="st0" d="M76.5,0.7c0.2-0.1,0.2-0.1,0.2-0.4c0.1,0,0.1,0,0.1,0.1c0,0.1,0,0.2,0,0.3C76.8,0.8,76.7,0.8,76.5,0.7z"/>
	<path class="st0" d="M38.2,31l-0.3,0c0-0.1,0.1-0.1,0.1-0.2c0.1-0.1,0.2-0.2,0.5-0.1C38.3,30.7,38.2,30.8,38.2,31z"/>
	<path class="st0" d="M30.3,32c-0.1-0.1-0.1-0.3,0-0.4l0.3,0C30.5,31.8,30.4,31.9,30.3,32L30.3,32z"/>
	<path class="st0" d="M76.2,0.6c0-0.2,0.2-0.3-0.1-0.5c0.1-0.1,0.2,0,0.3,0c0,0.1,0,0.3,0,0.4C76.3,0.6,76.2,0.6,76.2,0.6L76.2,0.6z
		"/>
	<path class="st0" d="M27.8,30.9l-0.2-0.3l0.4-0.1L27.8,30.9z"/>
	<path class="st0" d="M38,31.2c0,0.1,0.2,0.3,0,0.4C37.9,31.5,37.8,31.3,38,31.2z"/>
	<path class="st0" d="M37,32.4l-0.3,0.2l0-0.3C36.8,32.2,36.9,32.4,37,32.4L37,32.4z"/>
	<path class="st0" d="M34.3,32.3l-0.1-0.5l0,0L34.3,32.3L34.3,32.3z"/>
	<path class="st0" d="M76.3,2C76,2.1,75.9,2,75.8,1.9C76,1.9,76.1,2,76.3,2z"/>
	<path class="st0" d="M75.6,1.4l-0.1-0.1l0.2-0.1C75.9,1.2,75.7,1.3,75.6,1.4z"/>
	<path class="st0" d="M75.9,1.7L76,1.3l0.1,0.3L75.9,1.7z"/>
	<path class="st0" d="M122.3,7.8c0.4,0,0.4,0,0.2,0.3C122.4,8,122.5,7.8,122.3,7.8L122.3,7.8z"/>
	<path class="st0" d="M83,1c-0.1,0-0.3,0.1-0.4-0.1C82.7,0.9,82.8,0.9,83,1L83,1z"/>
	<path class="st0" d="M123.3,5.4l0.2,0.4C123.2,5.6,123.2,5.6,123.3,5.4z"/>
	<path class="st0" d="M32.8,30.6l0.2,0c0,0-0.1,0.1-0.1,0.1c0,0,0,0.1,0,0.1l-0.1,0L32.8,30.6z"/>
	<path class="st0" d="M31.9,30.8l0.2-0.3C32.2,30.8,32.2,30.8,31.9,30.8z"/>
	<path class="st0" d="M36.1,31.7L35.9,32C35.8,31.8,35.8,31.7,36.1,31.7z"/>
	<path class="st0" d="M83.3,1.2C83.2,1.1,83.1,1,83,1l0,0c0.1,0,0.2,0,0.4,0C83.3,1.1,83.3,1.1,83.3,1.2L83.3,1.2z"/>
	<path class="st0" d="M76.2,1.2l0.3-0.3C76.4,1,76.5,1.1,76.2,1.2z"/>
	<path class="st0" d="M74.6,1.6l-0.1,0.2c-0.1-0.1-0.1-0.1-0.1-0.2C74.4,1.5,74.5,1.6,74.6,1.6z"/>
	<path class="st0" d="M123.6,8.5l0.1-0.3C123.8,8.3,123.8,8.3,123.6,8.5z"/>
	<path class="st0" d="M35.7,30.9l0.2-0.2C36,30.8,35.9,30.8,35.7,30.9L35.7,30.9z"/>
	<path class="st0" d="M35.6,30.8L35.5,31C35.4,30.9,35.4,30.8,35.6,30.8z"/>
	<path class="st0" d="M76.2,0.6c0,0.2,0,0.2-0.4,0.3C76,0.7,76.1,0.7,76.2,0.6L76.2,0.6z"/>
	<path class="st0" d="M34.4,31l0.3,0l-0.1,0.2C34.5,31.1,34.4,31,34.4,31L34.4,31z"/>
	<path class="st0" d="M36.4,31.2l-0.3,0l0-0.2L36.4,31.2z"/>
	<path class="st0" d="M35.8,32.5l-0.2,0.2C35.6,32.6,35.6,32.5,35.8,32.5z"/>
	<path class="st0" d="M75.1,1.6c-0.2-0.1-0.1-0.2-0.1-0.2L75.1,1.6z"/>
	<path class="st0" d="M123,5.6l-0.1-0.1l0.1,0C123.1,5.5,123.1,5.5,123,5.6L123,5.6z"/>
	<path class="st0" d="M124.2,14.7c0-0.1,0-0.1,0.2-0.1C124.3,14.6,124.3,14.6,124.2,14.7L124.2,14.7z"/>
	<path class="st0" d="M35,30.7l-0.3,0.1c0.1-0.1,0.1-0.1,0.1-0.1C34.9,30.6,34.9,30.6,35,30.7L35,30.7z"/>
	<path class="st0" d="M73,0.1C73.1,0.1,73.1,0.1,73,0.1c0.1-0.1,0.2,0,0.2,0L73,0.1L73,0.1z"/>
	<path class="st0" d="M40.3,31.9c-0.1,0-0.1,0.2-0.2,0l0,0C40.1,31.9,40.2,31.8,40.3,31.9L40.3,31.9z"/>
	<path class="st0" d="M35.3,31.4C35.4,31.4,35.4,31.5,35.3,31.4c0,0.1,0,0.1,0,0.1L35.3,31.4L35.3,31.4z"/>
	<path class="st0" d="M82.4,1.9C82.5,1.9,82.5,1.9,82.4,1.9C82.5,1.9,82.5,1.9,82.4,1.9C82.4,1.9,82.4,1.9,82.4,1.9L82.4,1.9z"/>
	<path class="st0" d="M36.3,32.5v0.2l-0.1,0L36.3,32.5L36.3,32.5z"/>
	<path class="st0" d="M15.3,1c-0.1,0.1,0.1,0.3-0.1,0.4C15,1.3,15,1.1,14.9,0.9c0-0.2,0-0.4,0-0.6c0,0,0-0.1,0-0.1
		c0.1-0.1,0.2-0.1,0.3,0c0,0,0,0,0,0c0.1,0.1,0.1,0.2,0.1,0.2c0.1,0.2,0.1,0.4,0.2,0.6L15.3,1z"/>
	<path class="st0" d="M29.1,30.9c0.3,0.2,0.6,0.4,0.6,0.7c0,0.1,0.1,0.1,0.1,0.2c-0.1,0.1-0.4,0-0.4,0.2c-0.2-0.2-0.2-0.2,0-0.4
		C29.1,31.4,29.2,31.1,29.1,30.9z"/>
	<path class="st1" d="M2,11.5c-0.1-0.2-0.1-0.5,0-0.8c0-0.1,0.1-0.1,0.2-0.2C2.4,10.8,2.3,11.1,2,11.5z"/>
	<path class="st0" d="M69.8,1c-0.1,0-0.1,0-0.2,0c-0.1-0.1-0.1-0.2-0.2-0.3c0.1-0.1,0.2-0.1,0.3-0.1c0.1,0.1,0.3,0.1,0.3,0.2
		C70.1,1,69.9,1,69.8,1L69.8,1z"/>
	<path class="st0" d="M70.8,1.8l0.2-0.1l-0.1-0.2c0.2,0,0.3,0,0.5,0c0.2,0,0.2,0.1,0.3,0.2c-0.2,0-0.3,0-0.5,0.1
		C71,1.9,70.9,1.8,70.8,1.8L70.8,1.8z"/>
	<path class="st0" d="M68.4,0.1c0.3,0.1,0.3,0.2,0.2,0.3c-0.1,0.1-0.2,0.1-0.3,0.1C68.1,0.5,68.2,0.3,68.4,0.1z"/>
	<path class="st0" d="M26.3,32.2l0,0.2c-0.2,0-0.4-0.1-0.6-0.3c-0.1-0.1,0-0.2,0.2-0.3C26.1,31.9,26,32.1,26.3,32.2L26.3,32.2z"/>
	<path class="st0" d="M21,32.2l0.1-0.4c0.2,0,0.3,0.1,0.4,0.2l-0.4,0.2L21,32.2z"/>
	<path class="st0" d="M68.7,2.1c-0.2,0-0.2-0.1-0.2-0.2l-0.3,0l0,0l0.3-0.1C68.7,1.8,68.9,1.9,68.7,2.1z"/>
	<path class="st0" d="M68.5,0.7c0.1,0,0.2-0.1,0.3-0.1c0.1,0,0.2,0,0.2,0.1c0,0,0,0.1,0,0.1c-0.1,0-0.2,0.1-0.3,0.1
		C68.7,0.9,68.6,0.8,68.5,0.7z"/>
	<path class="st0" d="M1.8,12c0,0.1,0,0.3,0,0.4c0,0-0.1,0.1-0.2,0.1c0,0-0.1-0.1-0.1-0.1C1.6,12.2,1.7,12.1,1.8,12L1.8,12z"/>
	<path class="st0" d="M28.5,31.8c0.1,0.1,0.2,0.1,0.4,0.2c0.2,0.1,0.1,0.2,0,0.3C28.7,32.1,28.7,31.9,28.5,31.8L28.5,31.8L28.5,31.8
		z"/>
	<path class="st0" d="M21.3,31c0.3,0.1,0.3,0.1,0.4,0.3C21.4,31.4,21.4,31.2,21.3,31z"/>
	<path class="st0" d="M17.3,31.9c-0.2,0-0.3-0.2-0.4-0.3C17.2,31.6,17.3,31.7,17.3,31.9z"/>
	<path class="st0" d="M16.6,1.4c-0.2,0-0.2-0.1-0.2-0.1c0-0.1,0-0.2,0.1-0.2c0,0,0.1,0.1,0.1,0.1C16.6,1.3,16.6,1.4,16.6,1.4z"/>
	<path class="st0" d="M24.2,31.3c0.1-0.1,0.3-0.1,0.3,0c0,0.1,0,0.1-0.1,0.2C24.3,31.5,24.2,31.4,24.2,31.3z"/>
	<path class="st0" d="M73.3,2l-0.5-0.1l0.5-0.2V2z"/>
	<path class="st0" d="M73.9,1l-0.2-0.4C74,0.7,74.1,0.8,73.9,1z"/>
	<path class="st0" d="M69.2,1.3c-0.1,0-0.2,0-0.3-0.1c0,0-0.1-0.1,0-0.1C69,1,69,1,69.1,1C69.2,1.1,69.2,1.2,69.2,1.3L69.2,1.3z"/>
	<path class="st0" d="M7.1,2.1C7,1.9,7.1,1.8,7.2,1.7c0,0,0,0,0,0C7.4,1.9,7.4,2,7.1,2.1z"/>
	<path class="st0" d="M17.4,1.8l-0.2,0.1c0,0-0.1-0.1-0.1-0.1s0.1-0.1,0.1-0.1L17.4,1.8z"/>
	<path class="st0" d="M14.4,31.6c-0.2,0-0.2-0.2-0.3-0.3L14.4,31.6L14.4,31.6z"/>
	<path class="st0" d="M23.4,31.7l0.4,0.1c-0.1,0.1-0.1,0.1-0.2,0.1C23.6,31.8,23.5,31.8,23.4,31.7L23.4,31.7z"/>
	<path class="st0" d="M27.1,31.3v-0.3c0.2,0.1,0.2,0.2,0.1,0.3L27.1,31.3z"/>
	<path class="st0" d="M1.3,9.1c0,0.1,0,0.2,0,0.3c0,0-0.1,0-0.1,0.1c0,0-0.1-0.1-0.1-0.1c0-0.1,0-0.2,0.1-0.2L1.3,9.1z"/>
	<path class="st0" d="M69.9,1.8c-0.2,0.2-0.3,0.2-0.4,0C69.6,1.8,69.7,1.8,69.9,1.8z"/>
	<path class="st0" d="M72.3,1l0.2,0.2c-0.1,0.1-0.2,0-0.3,0l0,0L72.1,1L72.3,1L72.3,1z"/>
	<path class="st0" d="M20.7,1.1c-0.1,0-0.1,0.1-0.2,0.1c0,0-0.1-0.1-0.1-0.1c0,0,0.1-0.1,0.1-0.1C20.6,1,20.6,1,20.7,1.1z"/>
	<path class="st0" d="M28.5,31.7c-0.1,0-0.2,0-0.2-0.1c0,0,0.1-0.1,0.1-0.1c0,0,0.1,0,0.1,0.1C28.5,31.6,28.5,31.7,28.5,31.7
		L28.5,31.7z"/>
	<path class="st0" d="M69.8,1l0.1,0.4l-0.3-0.2C69.6,1.1,69.7,1.1,69.8,1L69.8,1z"/>
	<path class="st0" d="M30,32.1l0.2,0.4C30,32.4,30,32.3,30,32.1L30,32.1z"/>
	<path class="st0" d="M26.2,31L26,31.2L25.8,31L26.2,31z"/>
	<path class="st0" d="M70.6,0.3c-0.1,0.3-0.1,0.3-0.3,0.1L70.6,0.3z"/>
	<path class="st0" d="M11.7,1v0.3C11.6,1.2,11.6,1.1,11.7,1L11.7,1z"/>
	<path class="st0" d="M31.4,31c0-0.1,0.1-0.1,0.1-0.1c0,0,0.1,0,0.2,0c0,0,0,0.1,0,0.1C31.6,31,31.5,31.1,31.4,31L31.4,31z"/>
	<path class="st0" d="M7.6,1.7l0-0.2C7.8,1.6,7.8,1.6,7.6,1.7L7.6,1.7z"/>
	<path class="st0" d="M26.3,32.2L26.3,32.2l-0.1-0.3c0.2,0,0.2,0.1,0.3,0.2C26.4,32.1,26.4,32.2,26.3,32.2z"/>
	<path class="st0" d="M24.8,32.6c-0.1-0.1-0.2-0.1,0-0.3l0.1,0.3L24.8,32.6z"/>
	<path class="st0" d="M67.8,2.1c0-0.1,0-0.1,0.1-0.1c0.1,0,0.2,0.1,0.1,0.2C68,2.1,67.9,2.1,67.8,2.1L67.8,2.1z"/>
	<path class="st0" d="M69,1.7l0.4,0.1C69.2,1.9,69.1,1.8,69,1.7L69,1.7z"/>
	<path class="st0" d="M72.6,1.7c-0.1,0-0.2,0-0.2-0.2L72.6,1.7L72.6,1.7z"/>
	<path class="st0" d="M25.5,31.6l-0.3-0.2C25.5,31.4,25.5,31.4,25.5,31.6z"/>
	<path class="st0" d="M70.6,1.4c-0.1,0.1-0.2,0.2-0.3,0.1c0,0,0,0,0,0C70.3,1.3,70.4,1.3,70.6,1.4z"/>
	<path class="st0" d="M69,1.4l-0.2,0.1l-0.1-0.1L69,1.4L69,1.4z"/>
	<path class="st0" d="M73.2,1.2c0.2,0,0.3,0,0.3,0.1c0,0-0.1,0.1-0.1,0.1L73.2,1.2z"/>
	<path class="st0" d="M19.3,30.8c-0.1,0-0.1,0.1-0.2,0.1c0,0-0.1-0.1-0.1-0.1c0,0,0.1-0.1,0.1-0.1C19.2,30.7,19.2,30.7,19.3,30.8z"
		/>
	<path class="st0" d="M26.7,30.6c0.1,0.1,0,0.2-0.1,0.2C26.5,30.7,26.5,30.7,26.7,30.6z"/>
	<path class="st0" d="M9.9,2.2c0-0.2,0-0.2,0.2-0.1L9.9,2.2z"/>
	<path class="st0" d="M29.5,31l0.3-0.1C29.7,31,29.7,31,29.5,31z"/>
	<path class="st0" d="M73.5,1.7h0.3C73.7,1.7,73.6,1.8,73.5,1.7z"/>
	<path class="st0" d="M72.4,1C72.4,1,72.5,0.9,72.7,1C72.6,1.1,72.5,1.1,72.4,1L72.4,1z"/>
	<path class="st0" d="M69.5,1.4l0.2,0.2C69.5,1.5,69.5,1.5,69.5,1.4z"/>
	<path class="st0" d="M20,31.7l0.2,0.2C20,31.9,20,31.8,20,31.7z"/>
	<path class="st0" d="M30.9,31c-0.1,0-0.1-0.1-0.1-0.1c0,0,0.1-0.1,0.1-0.1C30.9,30.9,30.9,30.9,30.9,31C31,30.9,30.9,31,30.9,31z"
		/>
	<path class="st0" d="M29.1,31.7c-0.1,0-0.1-0.1-0.1-0.2c0,0,0.1,0,0.1,0C29.2,31.6,29.2,31.6,29.1,31.7z"/>
	<path class="st0" d="M19.5,31.7l-0.2-0.2l0.1,0L19.5,31.7L19.5,31.7z"/>
	<path class="st0" d="M72.1,1l0.1,0.2L72,1.2L72.1,1z"/>
	<path class="st0" d="M67.3,1.2l-0.2,0C67.2,1,67.2,1.1,67.3,1.2L67.3,1.2z"/>
	<path class="st0" d="M72,1.2l0.3,0.1l0,0l0,0.2L72,1.2z"/>
	<path class="st0" d="M28.5,31.2c0,0-0.1,0.1-0.1,0.1c0,0-0.1,0-0.1-0.1c0,0,0-0.1,0.1-0.1C28.4,31.2,28.5,31.2,28.5,31.2z"/>
	<path class="st0" d="M68.2,1.7l-0.1-0.2l0,0c0,0,0.1,0,0.1,0.1C68.3,1.6,68.3,1.7,68.2,1.7L68.2,1.7z"/>
	<path class="st0" d="M70.6,1.1L70.3,1l0,0L70.6,1.1L70.6,1.1z"/>
	<path class="st0" d="M72.7,0.4c0.1,0.1,0.1,0.1,0.1,0.1c0,0,0,0-0.1,0.1c0,0-0.1,0-0.1-0.1C72.6,0.5,72.6,0.5,72.7,0.4z"/>
	<path class="st0" d="M21.1,32.5l0.2-0.2C21.3,32.5,21.2,32.5,21.1,32.5z"/>
	<path class="st0" d="M6.8,2.4c-0.1,0-0.1,0-0.2,0c0,0-0.1,0-0.1-0.1c0,0,0.1,0,0.1,0C6.7,2.3,6.7,2.3,6.8,2.4z"/>
	<path class="st0" d="M6.4,30.7c0,0,0-0.1-0.1-0.1c0,0,0,0,0.1,0C6.4,30.6,6.4,30.6,6.4,30.7C6.4,30.6,6.4,30.7,6.4,30.7z"/>
	<path class="st0" d="M26.3,32.5L26.3,32.5c0,0.1,0,0.1,0,0.1c0,0-0.1,0-0.1-0.1L26.3,32.5z"/>
	<path class="st0" d="M18.3,31.1l-0.1-0.1l0.1,0L18.3,31.1L18.3,31.1z"/>
	<path class="st0" d="M66.5,1.8c0,0,0.1,0.1,0.1,0.1l0,0C66.6,1.9,66.5,1.8,66.5,1.8L66.5,1.8z"/>
	<path class="st0" d="M31.1,30.9C31.2,30.9,31.2,31,31.1,30.9c0.1,0.1,0,0.1,0,0.1C31.1,31,31.1,31,31.1,30.9
		C31.1,31,31.1,30.9,31.1,30.9z"/>
	<path class="st0" d="M19.6,31.2L19.4,31l0,0L19.6,31.2L19.6,31.2z"/>
	<path class="st0" d="M30.6,31.1l0-0.2l0.1,0l0.1,0.1L30.6,31.1z"/>
	<path class="st0" d="M26.4,31.3l0-0.2l0.1,0l0,0.2L26.4,31.3z"/>
	<path class="st0" d="M74.2,1.6l-0.3,0C74,1.5,74,1.5,74.2,1.6L74.2,1.6z"/>
	<path class="st0" d="M25.5,32.1c0-0.1-0.1-0.1-0.1-0.1c0,0,0.1,0,0.1,0C25.6,32,25.6,32,25.5,32.1C25.6,32.1,25.6,32.1,25.5,32.1z"
		/>
	<path class="st0" d="M19.9,31.3l0.1,0.1l-0.1,0L19.9,31.3L19.9,31.3z"/>
	<path class="st0" d="M73.7,1.3c0,0,0.1,0,0.1-0.1c0,0,0,0,0.1,0c0,0-0.1,0.1-0.1,0.1C73.8,1.4,73.8,1.4,73.7,1.3z"/>
	<path class="st0" d="M3.3,4.5L3.3,4.5c-0.1,0-0.1,0-0.1,0C3.2,4.5,3.2,4.5,3.3,4.5C3.2,4.5,3.3,4.5,3.3,4.5z"/>
	<path class="st0" d="M68.4,1.1C68.4,1.1,68.5,1.2,68.4,1.1C68.5,1.2,68.5,1.2,68.4,1.1C68.4,1.2,68.4,1.2,68.4,1.1
		C68.4,1.2,68.4,1.1,68.4,1.1z"/>
	<path class="st0" d="M68,1.2C67.9,1.2,67.9,1.2,68,1.2c0-0.1,0-0.1,0-0.1C68,1.1,68,1.1,68,1.2C68,1.2,68,1.2,68,1.2z"/>
	<path class="st0" d="M23,1.6C23,1.5,23,1.5,23,1.6l0.1,0C23.1,1.6,23.1,1.6,23,1.6L23,1.6z"/>
	<path class="st0" d="M65.3,0.9c0.1,0,0.1,0,0.2,0l0,0.1L65.3,0.9L65.3,0.9z"/>
	<path class="st0" d="M27.4,32.2c0,0,0-0.1,0-0.1c0,0,0,0,0.1,0C27.4,32,27.5,32.1,27.4,32.2C27.4,32.1,27.4,32.1,27.4,32.2z"/>
	<path class="st0" d="M71,0.8C71,0.9,70.9,0.9,71,0.8c-0.1,0.1-0.2,0-0.2,0c0,0,0,0,0,0C70.9,0.8,70.9,0.8,71,0.8z"/>
	<path class="st0" d="M24.8,32.2c-0.1,0-0.1,0-0.1,0c0,0,0,0,0-0.1C24.7,32.1,24.7,32.1,24.8,32.2L24.8,32.2z"/>
	<path class="st0" d="M22.7,31.2l0.1,0.1l-0.1,0L22.7,31.2L22.7,31.2z"/>
	<path class="st0" d="M70.1,0.7C70.1,0.6,70.1,0.6,70.1,0.7c0-0.1,0-0.1,0-0.1C70.2,0.6,70.2,0.6,70.1,0.7
		C70.2,0.6,70.2,0.6,70.1,0.7z"/>
	<path class="st0" d="M66.7,1.7c0,0,0-0.1,0-0.1c0,0,0,0,0.1,0c0,0,0.1,0,0.1,0C66.8,1.6,66.8,1.6,66.7,1.7z"/>
	<path class="st0" d="M8.3,2.7C8.2,2.7,8.2,2.7,8.3,2.7c-0.1-0.1,0-0.1,0-0.1C8.3,2.6,8.3,2.6,8.3,2.7C8.3,2.6,8.3,2.7,8.3,2.7z"/>
	<path class="st0" d="M69.8,0.3C69.7,0.2,69.7,0.2,69.8,0.3c-0.1-0.1,0-0.1,0-0.1C69.8,0.1,69.8,0.2,69.8,0.3
		C69.8,0.2,69.8,0.2,69.8,0.3z"/>
	<path class="st0" d="M39.6,30.9l0.5,0L40,31.1c0.2,0.1,0.2-0.2,0.4-0.1c0.2,0.1,0.3-0.2,0.5,0c0,0.1-0.1,0.2-0.2,0.3
		c-0.1,0-0.2,0-0.3-0.1c-0.2,0.1-0.4,0.3-0.5,0.5l0-0.3h-0.5C39.4,31.2,39.9,31.2,39.6,30.9z"/>
	<path class="st0" d="M98.8,32.3c0,0-0.1,0.1-0.1,0c-0.1-0.1-0.2-0.1-0.3,0c-0.1,0-0.2,0-0.3-0.1C98,32.2,98,32.1,98,32
		c0.1-0.2,0.3-0.2,0.4,0C98.6,32,98.7,32.1,98.8,32.3z"/>
	<path class="st0" d="M100.8,32.6c-0.1-0.1-0.1-0.1-0.2-0.2c-0.1-0.1,0-0.3,0.1-0.3c0.1-0.1,0.2,0,0.3,0c0.1,0.1,0.2,0.2,0,0.3
		C101.1,32.5,100.9,32.6,100.8,32.6L100.8,32.6z"/>
	<path class="st0" d="M123.3,10.1c0.1,0.2,0.1,0.4,0.1,0.6c0,0.1,0,0.2,0.1,0.3c-0.3,0.1-0.2,0.4-0.6,0.4c0.2-0.1,0.3-0.2,0.3-0.4
		c0-0.1,0.1-0.2,0.2-0.3c0-0.1,0-0.2-0.1-0.4C123.2,10.2,123.3,10.2,123.3,10.1z"/>
	<path class="st0" d="M123.7,16.2c0-0.2,0.2-0.2,0.5-0.4c0,0.1,0,0.1,0,0.2c0,0.1-0.1,0.3-0.1,0.4c0,0.1-0.1,0.1-0.2,0.1
		C123.8,16.5,124,16.3,123.7,16.2z"/>
	<path class="st0" d="M124.3,21.6l-0.1,0.5l-0.5-0.1C123.7,21.7,124.1,21.8,124.3,21.6z"/>
	<path class="st0" d="M123.9,9.7c0.1,0.1,0.3,0.3,0.4,0.4c0,0,0,0.1,0,0.1c-0.1,0-0.1,0-0.2,0c-0.1-0.1-0.2-0.2-0.3-0.3
		C123.8,9.9,123.8,9.8,123.9,9.7L123.9,9.7z"/>
	<path class="st0" d="M95.8,32c-0.1,0-0.2-0.1-0.2-0.2c0-0.1,0.2-0.2,0.3-0.2c0.1,0,0.2,0.1,0.2,0.2C96,32,95.9,32,95.8,32
		C95.8,32,95.8,32,95.8,32z"/>
	<path class="st0" d="M75.2,31.4c-0.2-0.3-0.2-0.5,0-0.6C75.3,31,75.3,31.2,75.2,31.4z"/>
	<path class="st0" d="M101.8,31c-0.1,0.1-0.2,0.1-0.3,0.2c0,0-0.2-0.1-0.2-0.1c0-0.1,0.1-0.2,0.3-0.2
		C101.6,30.9,101.7,30.9,101.8,31z"/>
	<path class="st0" d="M98.6,30.9c0-0.2,0.1-0.2,0.2-0.2c0.1,0,0.2,0,0.2,0.1c0,0.1-0.1,0.2-0.2,0.1C98.8,30.9,98.7,30.9,98.6,30.9z"
		/>
	<path class="st0" d="M122.2,18.9c-0.1-0.2,0-0.5,0.2-0.6C122.5,18.5,122.4,18.7,122.2,18.9z"/>
	<path class="st0" d="M122.9,12l0.3-0.4C123.3,11.8,123.3,11.9,122.9,12z"/>
	<path class="st0" d="M123.8,12c0.1,0.1,0.3,0.2,0.4,0.3c0,0,0,0.1,0,0.1C123.8,12.4,123.8,12.2,123.8,12L123.8,12z"/>
	<path class="st0" d="M100.6,30.6c0.1,0.1,0.2,0.1,0.2,0.1c0,0.1-0.1,0.1-0.2,0.1c-0.1,0-0.1-0.1-0.1-0.1
		C100.5,30.7,100.5,30.7,100.6,30.6z"/>
	<path class="st0" d="M123.7,13.8c0.3,0.2,0.3,0.2,0.1,0.5L123.7,13.8z"/>
	<path class="st0" d="M122.8,13.5c0.2,0.1,0.4,0.1,0.5,0.3L122.8,13.5L122.8,13.5z"/>
	<path class="st0" d="M123.9,18.4l-0.1-0.2c0.1,0,0.1,0,0.1,0c0.1,0.1,0.1,0.1,0.2,0.2L123.9,18.4z"/>
	<path class="st0" d="M122.6,19.2c0.2-0.1,0.4-0.2,0.6-0.1C123,19.2,122.8,19.2,122.6,19.2z"/>
	<path class="st0" d="M100,31.8l0.3,0.1C100.1,32,100.1,32,100,31.8z"/>
	<path class="st0" d="M122.5,27.3l0.1-0.3l0.1,0c0,0,0,0.1,0,0.1C122.8,27.2,122.8,27.2,122.5,27.3z"/>
	<path class="st0" d="M38.9,32.4l0.2-0.1c0,0.2,0,0.2-0.2,0.3L38.9,32.4L38.9,32.4z"/>
	<path class="st0" d="M94.6,31.7c0.1,0.1,0.1,0.1,0.2,0.2c0,0-0.1,0.1-0.1,0.1c-0.1,0-0.1-0.1-0.2-0.1
		C94.4,31.8,94.5,31.8,94.6,31.7z"/>
	<path class="st0" d="M122.4,12.4c0-0.1-0.2-0.2,0-0.4C122.5,12.2,122.6,12.3,122.4,12.4z"/>
	<path class="st0" d="M123.1,21.6l0.2-0.4l0.1,0l-0.2,0.4L123.1,21.6z"/>
	<path class="st0" d="M122.2,19.1c-0.1,0.2,0,0.3-0.2,0.4C122,19.3,122,19.2,122.2,19.1z"/>
	<path class="st0" d="M40.2,31.9c-0.1-0.1-0.2,0-0.2,0c0-0.1,0.1-0.1,0.1-0.2c0.1,0,0.1-0.1,0.2-0.1C40.4,31.8,40.4,31.9,40.2,31.9z
		"/>
	<path class="st0" d="M122.2,24.8l-0.1,0.4l-0.1,0L122.2,24.8L122.2,24.8z"/>
	<path class="st0" d="M38.9,32l0.4,0.1c0,0-0.1,0.1-0.1,0.1C39,32.2,38.9,32.1,38.9,32L38.9,32z"/>
	<path class="st0" d="M98,31.3l-0.1,0.1l-0.1-0.1c0,0,0.1-0.1,0.1-0.1C97.9,31.2,97.9,31.2,98,31.3z"/>
	<path class="st0" d="M122.2,21.3C122.2,21.3,122.2,21.3,122.2,21.3c0.1,0.1,0.1,0.2-0.1,0.2c0,0-0.1,0-0.1,0
		C121.9,21.4,122,21.3,122.2,21.3z"/>
	<path class="st0" d="M104.8,31.1c0-0.1-0.1-0.1-0.1-0.1c0,0,0.1-0.1,0.1-0.1c0,0,0.1,0.1,0.1,0.1C104.9,31,104.8,31,104.8,31.1z"/>
	<path class="st0" d="M122.4,14.3V14C122.5,14.1,122.5,14.1,122.4,14.3z"/>
	<path class="st0" d="M42,31.4h-0.2l0,0l0.3-0.2L42,31.4L42,31.4z"/>
	<path class="st0" d="M124.1,24.5c-0.1,0.2-0.1,0.2-0.3,0L124.1,24.5z"/>
	<path class="st0" d="M113.2,32.5l-0.2,0.1c0,0-0.1-0.1-0.1-0.1c0,0,0.1-0.1,0.1-0.1C113.1,32.5,113.2,32.5,113.2,32.5z"/>
	<path class="st0" d="M118.1,31.5c-0.1-0.1,0-0.3,0.1-0.4C118.3,31.3,118.1,31.4,118.1,31.5L118.1,31.5z"/>
	<path class="st0" d="M44.1,31.8l0.2-0.2l0.1,0L44.1,31.8L44.1,31.8z"/>
	<path class="st0" d="M121.9,13.6l0-0.3l0.1,0v0.3L121.9,13.6z"/>
	<path class="st0" d="M42.3,31.8l0.2,0L42.3,32l-0.1,0L42.3,31.8z"/>
	<path class="st0" d="M92.3,30.9c-0.1,0-0.1,0-0.2,0c0,0-0.1,0-0.1-0.1c0,0,0-0.1,0.1-0.1L92.3,30.9z"/>
	<path class="st0" d="M41.8,31.9c0,0.1,0,0.2-0.2,0.2C41.5,32,41.6,31.9,41.8,31.9z"/>
	<path class="st0" d="M122.8,14.7v-0.3C122.9,14.4,122.9,14.4,122.8,14.7z"/>
	<path class="st0" d="M123.6,23.9c0.1,0,0.1,0,0.2,0c0,0,0,0.1,0,0.1L123.6,23.9L123.6,23.9z"/>
	<path class="st0" d="M121.7,14.1l0.1-0.3l0.1,0l0,0.3L121.7,14.1z"/>
	<path class="st0" d="M102,32.5l-0.1,0.1c0,0-0.1-0.1-0.1-0.1c0,0,0.1-0.1,0.1-0.1L102,32.5z"/>
	<path class="st0" d="M102.4,30.8c0,0.1-0.1,0.2-0.3,0.1L102.4,30.8z"/>
	<path class="st0" d="M93.8,32.4c-0.1,0-0.1,0.1-0.1,0.1c0,0-0.1,0-0.1-0.1c0,0,0-0.1,0.1-0.1C93.7,32.4,93.8,32.4,93.8,32.4z"/>
	<path class="st0" d="M120.3,27.5l0,0.2l-0.1,0L120.3,27.5L120.3,27.5z"/>
	<path class="st0" d="M123.9,20.5c-0.1,0-0.1,0-0.1,0c0,0-0.1,0-0.1-0.1c0,0,0.1,0,0.1,0C123.8,20.4,123.8,20.5,123.9,20.5z"/>
	<path class="st0" d="M46.9,31.5l0.2-0.2C47.1,31.5,47.1,31.5,46.9,31.5z"/>
	<path class="st0" d="M44.4,32.2l-0.2,0.1C44.1,32.2,44.2,32.1,44.4,32.2L44.4,32.2z"/>
	<path class="st0" d="M123.5,11.2l0,0.2l-0.1,0l-0.1-0.1L123.5,11.2z"/>
	<path class="st0" d="M85.2,31.1L85.2,31.1l-0.2,0C85.1,31.1,85.1,31.1,85.2,31.1C85.1,31.1,85.2,31.1,85.2,31.1z"/>
	<path class="st0" d="M43.9,32.5l0.3,0C44.1,32.7,44,32.6,43.9,32.5z"/>
	<path class="st0" d="M101.7,31.4c0,0,0-0.1,0-0.1c0,0,0.1,0,0.1,0L101.7,31.4L101.7,31.4z"/>
	<path class="st0" d="M42,31.4l0.1,0.1l-0.3,0.1C41.9,31.5,42,31.5,42,31.4L42,31.4z"/>
	<path class="st0" d="M93.3,31.8c0,0.1,0.1,0.1,0.1,0.1c0,0-0.1,0.1-0.1,0.1C93.2,31.9,93.2,31.9,93.3,31.8
		C93.2,31.8,93.2,31.8,93.3,31.8z"/>
	<path class="st0" d="M37.1,31.9c0.1,0,0.2,0,0.2,0.2L37.1,31.9L37.1,31.9z"/>
	<path class="st0" d="M101.3,31.7C101.3,31.6,101.3,31.6,101.3,31.7c-0.1-0.1-0.1-0.1,0-0.2c0,0,0.1,0,0.1,0.1
		S101.4,31.6,101.3,31.7z"/>
	<path class="st0" d="M120.5,28l-0.1,0.3C120.3,28.1,120.3,28.1,120.5,28z"/>
	<path class="st0" d="M123.3,15.2l-0.2,0.2C123.1,15.3,123.1,15.3,123.3,15.2z"/>
	<path class="st0" d="M123.8,23.6l0.2,0l0,0.1L123.8,23.6L123.8,23.6z"/>
	<path class="st0" d="M41.7,30.8l0.2,0.1C41.7,31,41.7,31,41.7,30.8L41.7,30.8z"/>
	<path class="st0" d="M123.7,23.2c-0.1,0-0.1,0-0.1,0c0,0-0.1,0-0.1-0.1c0,0,0.1,0,0.1,0C123.7,23.1,123.7,23.1,123.7,23.2z"/>
	<path class="st0" d="M102.6,31L102.6,31l0,0.1C102.6,31.1,102.6,31.1,102.6,31C102.6,31,102.6,31,102.6,31z"/>
	<path class="st0" d="M96.6,31.2c0,0-0.1,0-0.1,0c0,0,0,0-0.1-0.1C96.5,31.2,96.5,31.2,96.6,31.2C96.6,31.2,96.6,31.2,96.6,31.2z"/>
	<path class="st0" d="M122.9,14.1l-0.2-0.1C122.9,13.9,122.9,13.9,122.9,14.1z"/>
	<path class="st0" d="M123.7,12.7L123.7,12.7L123.7,12.7C123.7,12.8,123.7,12.8,123.7,12.7L123.7,12.7z"/>
	<path class="st0" d="M44.4,31.9L44.3,32c0,0-0.1-0.1-0.1-0.1c0,0,0,0,0.1,0C44.3,31.9,44.4,31.9,44.4,31.9z"/>
	<path class="st0" d="M105.4,32.1L105.4,32.1C105.4,32.1,105.4,32.1,105.4,32.1C105.3,32.1,105.3,32.1,105.4,32.1L105.4,32.1z"/>
	<path class="st0" d="M38.9,32.4c-0.1,0-0.2,0-0.2-0.1C38.8,32.3,38.9,32.4,38.9,32.4L38.9,32.4z"/>
	<path class="st0" d="M92.5,32.5L92.5,32.5c-0.1,0-0.1,0-0.1,0C92.4,32.4,92.4,32.4,92.5,32.5C92.4,32.4,92.5,32.4,92.5,32.5z"/>
	<path class="st0" d="M123.9,24.3C123.9,24.3,123.9,24.3,123.9,24.3c-0.1,0-0.1,0-0.1,0C123.8,24.3,123.8,24.3,123.9,24.3
		C123.8,24.3,123.9,24.3,123.9,24.3z"/>
	<path class="st0" d="M93.9,1.9c-0.2-0.2-0.2-0.4-0.2-0.6c0-0.1,0-0.3,0-0.4c0-0.2,0.1-0.3,0.2-0.3c0.2,0,0.4,0,0.6,0.2l-0.4,0.1
		c0,0.2,0,0.5,0.2,0.7L94,1.6v0.3L93.9,1.9z"/>
	<path class="st0" d="M90.5,0.4c0.2,0.1,0.2,0.3,0.1,0.4c0,0-0.1,0.1-0.1,0c0,0-0.1-0.1-0.1-0.1C90.4,0.7,90.4,0.5,90.5,0.4z"/>
	<path class="st0" d="M94.9,0.5L95,1.1c-0.1,0-0.1,0-0.2,0c-0.1-0.1-0.1-0.4,0-0.5L94.9,0.5z"/>
	<path class="st0" d="M95.3,2c-0.1,0-0.1-0.1-0.1-0.1c0-0.1,0-0.1,0-0.2c0,0,0.1,0,0.1,0c0,0.1,0.1,0.1,0.1,0.2
		C95.4,1.9,95.4,1.9,95.3,2L95.3,2z"/>
	<path class="st0" d="M116.2,1.4c0.1,0.2,0,0.3-0.2,0.4C116,1.6,116,1.6,116.2,1.4z"/>
	<path class="st0" d="M99.3,1.7l-0.1-0.1l0.1-0.1c0,0,0.1,0.1,0.1,0.1C99.4,1.6,99.3,1.6,99.3,1.7z"/>
	<path class="st0" d="M89.1,0.3c0.2-0.1,0.3,0,0.4,0.1C89.4,0.5,89.2,0.4,89.1,0.3z"/>
	<path class="st0" d="M90.5,1.5v0.3C90.3,1.7,90.3,1.6,90.5,1.5z"/>
	<path class="st0" d="M102.1,0.2c-0.1,0.1-0.2,0.1-0.3,0c0,0,0-0.1,0-0.1C101.9,0.1,102,0.1,102.1,0.2z"/>
	<path class="st0" d="M89.7,1.6c-0.2,0-0.2-0.1-0.1-0.2c0,0,0.1,0,0.1,0C89.8,1.4,89.8,1.5,89.7,1.6z"/>
	<path class="st0" d="M97.8,0.6l-0.2,0c0,0,0-0.1,0-0.1C97.6,0.5,97.7,0.5,97.8,0.6C97.8,0.6,97.8,0.6,97.8,0.6z"/>
	<path class="st0" d="M91.4,1c0,0-0.1,0.1-0.2,0.1c0,0-0.1,0-0.1-0.1c0,0,0.1-0.1,0.1-0.1C91.3,1,91.3,1,91.4,1z"/>
	<path class="st0" d="M88.7,1.5c-0.1,0-0.1-0.1-0.2-0.1l0,0L88.7,1.5L88.7,1.5z"/>
	<path class="st0" d="M91.4,0.2l-0.2,0l0-0.1L91.4,0.2L91.4,0.2z"/>
	<path class="st0" d="M121.5,4.5l0.2-0.1l0.2,0.2c-0.1,0.2-0.2,0.3-0.2,0.5c0,0.2-0.1,0.3-0.1,0.5c-0.3-0.1-0.1-0.3-0.3-0.4
		l-0.1,0.2l0,0c0-0.1,0-0.2,0-0.3c0-0.1,0.1-0.1,0.1-0.1c0.2-0.1,0.2-0.2,0.2-0.2C121.3,4.7,121.5,4.6,121.5,4.5L121.5,4.5z"/>
	<path class="st0" d="M122,6.9c-0.2,0-0.3-0.1-0.2-0.2c0.1-0.2,0.2-0.5,0.2-0.7C122.2,6.2,122.2,6.2,122,6.9z"/>
	<path class="st0" d="M121.5,3.8c0,0.3,0,0.5,0,0.8l0,0c0,0-0.1,0-0.1,0c-0.2-0.2-0.1-0.5,0-0.6C121.4,3.8,121.4,3.8,121.5,3.8
		C121.5,3.8,121.5,3.8,121.5,3.8L121.5,3.8z"/>
	<path class="st0" d="M121.1,4.7c0.1,0.2,0,0.4-0.2,0.5c0,0,0,0-0.1,0L121.1,4.7z"/>
	<path class="st0" d="M122.3,7.5c-0.1-0.3,0-0.3,0.3-0.4L122.3,7.5z"/>
	<path class="st0" d="M121.5,3.8c0.1,0,0.3,0,0.3,0.1c0,0.1,0,0.2-0.1,0.3C121.6,4,121.5,3.9,121.5,3.8L121.5,3.8z"/>
	<path class="st0" d="M121.3,6.9l0.1-0.1c0.2,0.1,0.2,0.1,0.2,0.2L121.3,6.9z"/>
	<path class="st0" d="M122.2,7c-0.1-0.1-0.1-0.2,0.1-0.3L122.2,7L122.2,7z"/>
	<path class="st0" d="M122.1,7.7L122,7.9C121.9,7.7,121.9,7.7,122.1,7.7z"/>
	<path class="st0" d="M122.6,4.9l-0.2,0.2C122.4,5,122.4,5,122.6,4.9z"/>
	<path class="st0" d="M121.8,4.1l0-0.3C122,3.9,122,4,121.8,4.1z"/>
	<path class="st0" d="M122.6,4.5l-0.2,0.2C122.4,4.6,122.5,4.6,122.6,4.5L122.6,4.5z"/>
	<path class="st0" d="M121.7,8.3l0.2-0.2c0,0,0,0,0,0.1C121.9,8.3,121.9,8.4,121.7,8.3z"/>
	<path class="st0" d="M121.7,8c0,0,0,0.1-0.1,0.1l-0.1,0C121.6,8.1,121.6,8,121.7,8L121.7,8z"/>
	<path class="st0" d="M118.8,3.6c0,0-0.1-0.1-0.1-0.1c0.1-0.1,0.1-0.3,0.1-0.4c0,0,0.1-0.1,0.1-0.2c0,0,0.1,0,0.1,0
		c0,0.1,0.1,0.1,0.1,0.2C119,3.3,118.9,3.4,118.8,3.6L118.8,3.6z"/>
	<path class="st0" d="M117.7,1.8l0.1-0.2l0.1,0L117.7,1.8L117.7,1.8z"/>
	<path class="st0" d="M84.6,2c-0.1-0.1,0.1-0.2,0.2-0.2C84.9,2,84.9,2,84.6,2L84.6,2z"/>
	<path class="st0" d="M83.1,2l0.3,0C83.2,2.2,83.2,2.2,83.1,2L83.1,2z"/>
	<path class="st0" d="M86.8,1.4c0,0.1,0.1,0.1,0,0.1c-0.1,0-0.2,0-0.1-0.1C86.6,1.3,86.7,1.4,86.8,1.4L86.8,1.4z"/>
	<path class="st0" d="M86.9,0.4l-0.1-0.1l0.1,0L86.9,0.4L86.9,0.4z"/>
	<path class="st0" d="M86.8,1.4L87,1.2C87,1.4,87,1.4,86.8,1.4L86.8,1.4z"/>
	<g>
		<g>
			<path class="st2" d="M14.7,11.8L14,13.9h-1.4L15,6.5h1.7l2.4,7.4h-1.5L17,11.8H14.7z M16.8,10.8L16.2,9c-0.1-0.5-0.3-1-0.4-1.4h0
				c-0.1,0.4-0.2,0.9-0.4,1.4l-0.6,1.8H16.8z"/>
			<path class="st2" d="M20.1,10.3c0-0.7,0-1.3,0-1.8h1.2l0.1,0.8h0c0.4-0.6,1-0.9,1.8-0.9c1.2,0,2.2,1.1,2.2,2.7
				c0,1.9-1.2,2.9-2.4,2.9c-0.7,0-1.2-0.3-1.5-0.7h0v2.8h-1.4V10.3z M21.5,11.7c0,0.1,0,0.3,0,0.4c0.1,0.6,0.6,0.9,1.2,0.9
				c0.9,0,1.4-0.7,1.4-1.8c0-0.9-0.5-1.7-1.3-1.7c-0.6,0-1.1,0.4-1.2,1c0,0.1,0,0.2,0,0.3V11.7z"/>
			<path class="st2" d="M26.6,10.3c0-0.7,0-1.3,0-1.8h1.2l0.1,0.8h0c0.4-0.6,1-0.9,1.8-0.9c1.2,0,2.2,1.1,2.2,2.7
				c0,1.9-1.2,2.9-2.4,2.9c-0.7,0-1.2-0.3-1.5-0.7h0v2.8h-1.4V10.3z M27.9,11.7c0,0.1,0,0.3,0,0.4c0.1,0.6,0.6,0.9,1.2,0.9
				c0.9,0,1.4-0.7,1.4-1.8c0-0.9-0.5-1.7-1.3-1.7c-0.6,0-1.1,0.4-1.2,1c0,0.1,0,0.2,0,0.3V11.7z"/>
			<path class="st2" d="M33,6.1h1.4v7.8H33V6.1z"/>
			<path class="st2" d="M37.3,7c0,0.4-0.3,0.7-0.8,0.7c-0.4,0-0.7-0.3-0.7-0.7c0-0.4,0.3-0.7,0.8-0.7C37,6.3,37.3,6.6,37.3,7z
				 M35.8,13.9V8.5h1.4v5.4H35.8z"/>
			<path class="st2" d="M39.6,11.6c0,1,0.8,1.4,1.7,1.4c0.6,0,1.1-0.1,1.5-0.2l0.2,0.9c-0.5,0.2-1.1,0.3-1.9,0.3
				c-1.7,0-2.8-1.1-2.8-2.7c0-1.5,0.9-2.9,2.6-2.9c1.7,0,2.3,1.4,2.3,2.6c0,0.3,0,0.5,0,0.6H39.6z M42,10.7c0-0.5-0.2-1.3-1.1-1.3
				c-0.8,0-1.2,0.8-1.2,1.3H42z"/>
			<path class="st2" d="M44.3,12.7c0.3,0.2,0.9,0.4,1.4,0.4c0.6,0,0.9-0.2,0.9-0.6c0-0.4-0.2-0.5-0.9-0.8c-1-0.4-1.5-0.9-1.5-1.6
				c0-0.9,0.8-1.7,2-1.7c0.6,0,1.1,0.1,1.4,0.3l-0.3,1c-0.2-0.1-0.7-0.3-1.1-0.3c-0.5,0-0.8,0.2-0.8,0.6c0,0.3,0.3,0.5,0.9,0.8
				c1,0.3,1.4,0.8,1.4,1.6c0,1-0.8,1.7-2.2,1.7c-0.6,0-1.2-0.2-1.6-0.4L44.3,12.7z"/>
			<path class="st2" d="M52.7,7v1.5H54v1h-1.3v2.4c0,0.7,0.2,1,0.7,1c0.2,0,0.4,0,0.5-0.1l0,1C53.8,14,53.4,14,53,14
				c-0.5,0-0.9-0.2-1.2-0.4c-0.3-0.3-0.4-0.8-0.4-1.5V9.6h-0.8v-1h0.8V7.3L52.7,7z"/>
			<path class="st2" d="M60.1,11.2c0,2-1.4,2.9-2.8,2.9c-1.5,0-2.7-1-2.7-2.8c0-1.8,1.2-2.8,2.8-2.8C59.1,8.4,60.1,9.5,60.1,11.2z
				 M56.1,11.2c0,1,0.5,1.8,1.3,1.8c0.8,0,1.3-0.7,1.3-1.8c0-0.8-0.4-1.8-1.3-1.8C56.5,9.4,56.1,10.3,56.1,11.2z"/>
			<path class="st2" d="M65.1,11.8l-0.6,2.1H63l2.4-7.4h1.7l2.4,7.4h-1.5l-0.7-2.1H65.1z M67.2,10.8L66.6,9c-0.1-0.5-0.3-1-0.4-1.4
				h0C66.1,8,66,8.5,65.9,8.9l-0.6,1.8H67.2z"/>
			<path class="st2" d="M75.9,13.7c-0.3,0.2-1,0.3-1.9,0.3c-2.4,0-3.8-1.5-3.8-3.7c0-2.4,1.7-3.9,4-3.9c0.9,0,1.5,0.2,1.8,0.3
				l-0.3,1.1c-0.3-0.2-0.8-0.3-1.4-0.3c-1.5,0-2.6,0.9-2.6,2.7c0,1.6,1,2.7,2.6,2.7c0.5,0,1.1-0.1,1.5-0.3L75.9,13.7z"/>
			<path class="st2" d="M80.1,8.5l0.9,2.7c0.2,0.5,0.3,0.9,0.4,1.3h0c0.1-0.4,0.2-0.9,0.4-1.3l0.8-2.7H84l-2,5.4h-1.3l-2-5.4H80.1z"
				/>
			<path class="st2" d="M89.5,6.7v0.9l-3,6.3h-1.4l3-6v0h-3.4V6.7H89.5z"/>
			<path class="st2" d="M90.1,15.2c0.3-0.8,0.6-2,0.7-2.9l1.4-0.1c-0.3,1-0.8,2.2-1.2,2.9L90.1,15.2z"/>
			<path class="st2" d="M96.5,8.5l0.9,2.7c0.2,0.5,0.3,0.9,0.4,1.3h0c0.1-0.4,0.2-0.9,0.4-1.3L99,8.5h1.4l-2,5.4H97l-2-5.4H96.5z"/>
			<path class="st2" d="M100.9,12.1c0-0.9,0.5-1.5,1.3-1.9l0,0c-0.7-0.4-1.1-1-1.1-1.6c0-1.2,1-2,2.4-2c1.5,0,2.2,0.9,2.2,1.8
				c0,0.6-0.3,1.2-1.1,1.6v0c0.8,0.3,1.4,0.9,1.4,1.8c0,1.3-1.1,2.1-2.6,2.1C101.7,14,100.9,13.1,100.9,12.1z M104.6,12
				c0-0.7-0.5-1.1-1.3-1.3c-0.7,0.2-1.1,0.7-1.1,1.2c0,0.6,0.4,1.2,1.2,1.2C104.2,13.1,104.6,12.6,104.6,12z M102.4,8.5
				c0,0.6,0.5,0.9,1.2,1.1c0.5-0.2,0.9-0.5,0.9-1.1c0-0.5-0.3-1-1-1C102.8,7.6,102.4,8,102.4,8.5z"/>
			<path class="st2" d="M50.6,27.1c-0.2-0.2-0.4-0.4-0.6-0.6c-0.6,0.5-1.2,0.7-2.1,0.7c-1.6,0-2.4-1-2.4-2.1c0-1,0.6-1.7,1.4-2.1
				l0,0c-0.3-0.4-0.6-1-0.6-1.5c0-0.9,0.7-1.9,2.1-1.9c1,0,1.8,0.6,1.8,1.7c0,0.8-0.4,1.4-1.5,1.9l0,0c0.5,0.6,1.1,1.2,1.5,1.7
				c0.3-0.5,0.5-1.2,0.7-2h1.2c-0.2,1.1-0.5,2.1-1.2,2.8c0.4,0.5,0.8,0.9,1.3,1.4H50.6z M49.4,25.7c-0.4-0.5-1.2-1.2-1.9-2
				c-0.4,0.2-0.8,0.6-0.8,1.2c0,0.7,0.5,1.3,1.4,1.3C48.6,26.2,49.1,26,49.4,25.7z M47.5,21.3c0,0.4,0.2,0.8,0.5,1.2
				c0.6-0.4,1-0.7,1-1.3c0-0.4-0.2-0.8-0.7-0.8C47.8,20.4,47.5,20.9,47.5,21.3z"/>
			<path class="st2" d="M56.8,25l-0.6,2.1h-1.4l2.4-7.4h1.7l2.4,7.4h-1.5L59.1,25H56.8z M58.9,24l-0.6-1.8c-0.1-0.5-0.3-1-0.4-1.4h0
				c-0.1,0.4-0.2,0.9-0.4,1.4L57,24H58.9z"/>
			<path class="st2" d="M67.6,26.9c-0.3,0.2-1,0.3-1.9,0.3c-2.4,0-3.8-1.5-3.8-3.7c0-2.4,1.7-3.9,4-3.9c0.9,0,1.5,0.2,1.8,0.3
				L67.4,21c-0.3-0.2-0.8-0.3-1.4-0.3c-1.5,0-2.6,0.9-2.6,2.7c0,1.6,1,2.7,2.6,2.7c0.5,0,1.1-0.1,1.5-0.3L67.6,26.9z"/>
			<path class="st2" d="M68.7,25.6c0.4,0.3,1.1,0.5,1.8,0.5c0.9,0,1.3-0.4,1.3-1c0-0.6-0.4-0.9-1.3-1.2c-1.2-0.4-2-1.1-2-2.2
				c0-1.2,1-2.1,2.6-2.1c0.8,0,1.4,0.2,1.8,0.4L72.6,21c-0.3-0.1-0.8-0.4-1.5-0.4c-0.9,0-1.2,0.5-1.2,0.9c0,0.6,0.4,0.8,1.4,1.2
				c1.3,0.5,1.9,1.1,1.9,2.2c0,1.2-0.9,2.2-2.8,2.2c-0.8,0-1.6-0.2-2-0.5L68.7,25.6z"/>
		</g>
	</g>
</g>
</svg>
